<?xml version="1.0" encoding="utf-8" standalone="no"?>
<!DOCTYPE svg PUBLIC "-//W3C//DTD SVG 1.1//EN"
  "http://www.w3.org/Graphics/SVG/1.1/DTD/svg11.dtd">
<svg xmlns:xlink="http://www.w3.org/1999/xlink" width="648pt" height="360pt" viewBox="0 0 648 360" xmlns="http://www.w3.org/2000/svg" version="1.1">
 <metadata>
  <rdf:RDF xmlns:dc="http://purl.org/dc/elements/1.1/" xmlns:cc="http://creativecommons.org/ns#" xmlns:rdf="http://www.w3.org/1999/02/22-rdf-syntax-ns#">
   <cc:Work>
    <dc:type rdf:resource="http://purl.org/dc/dcmitype/StillImage"/>
    <dc:date>2025-11-21T06:52:28.816235</dc:date>
    <dc:format>image/svg+xml</dc:format>
    <dc:creator>
     <cc:Agent>
      <dc:title>Matplotlib v3.10.7, https://matplotlib.org/</dc:title>
     </cc:Agent>
    </dc:creator>
   </cc:Work>
  </rdf:RDF>
 </metadata>
 <defs>
  <style type="text/css">*{stroke-linejoin: round; stroke-linecap: butt}</style>
 </defs>
 <g id="figure_1">
  <g id="patch_1">
   <path d="M 0 360 
L 648 360 
L 648 0 
L 0 0 
z
" style="fill: #ffffff"/>
  </g>
  <g id="axes_1">
   <g id="patch_2">
    <path d="M 57.53 314.12 
L 637.2 314.12 
L 637.2 10.8 
L 57.53 10.8 
z
" style="fill: #ffffff"/>
   </g>
   <g id="patch_3">
    <path d="M 83.878636 314.12 
L 123.121286 314.12 
L 123.121286 313.831908 
L 83.878636 313.831908 
z
" clip-path="url(#pf93331f6c8)" style="fill: #0b5a8a"/>
   </g>
   <g id="patch_4">
    <path d="M 196.000493 314.12 
L 235.243143 314.12 
L 235.243143 313.832277 
L 196.000493 313.832277 
z
" clip-path="url(#pf93331f6c8)" style="fill: #0b5a8a"/>
   </g>
   <g id="patch_5">
    <path d="M 308.12235 314.12 
L 347.365 314.12 
L 347.365 313.832075 
L 308.12235 313.832075 
z
" clip-path="url(#pf93331f6c8)" style="fill: #0b5a8a"/>
   </g>
   <g id="patch_6">
    <path d="M 420.244207 314.12 
L 459.486857 314.12 
L 459.486857 313.831124 
L 420.244207 313.831124 
z
" clip-path="url(#pf93331f6c8)" style="fill: #0b5a8a"/>
   </g>
   <g id="patch_7">
    <path d="M 532.366064 314.12 
L 571.608714 314.12 
L 571.608714 313.831565 
L 532.366064 313.831565 
z
" clip-path="url(#pf93331f6c8)" style="fill: #0b5a8a"/>
   </g>
   <g id="patch_8">
    <path d="M 83.878636 314.12 
L 123.121286 314.12 
L 123.121286 26.02824 
L 83.878636 26.02824 
z
" clip-path="url(#pf93331f6c8)" style="fill: #0b5a8a"/>
   </g>
   <g id="patch_9">
    <path d="M 196.000493 314.12 
L 235.243143 314.12 
L 235.243143 26.397359 
L 196.000493 26.397359 
z
" clip-path="url(#pf93331f6c8)" style="fill: #0b5a8a"/>
   </g>
   <g id="patch_10">
    <path d="M 308.12235 314.12 
L 347.365 314.12 
L 347.365 26.195213 
L 308.12235 26.195213 
z
" clip-path="url(#pf93331f6c8)" style="fill: #0b5a8a"/>
   </g>
   <g id="patch_11">
    <path d="M 420.244207 314.12 
L 459.486857 314.12 
L 459.486857 25.24381 
L 420.244207 25.24381 
z
" clip-path="url(#pf93331f6c8)" style="fill: #0b5a8a"/>
   </g>
   <g id="patch_12">
    <path d="M 532.366064 314.12 
L 571.608714 314.12 
L 571.608714 25.684876 
L 532.366064 25.684876 
z
" clip-path="url(#pf93331f6c8)" style="fill: #0b5a8a"/>
   </g>
   <g id="patch_13">
    <path d="M 123.121286 314.12 
L 162.363936 314.12 
L 162.363936 184.478708 
L 123.121286 184.478708 
z
" clip-path="url(#pf93331f6c8)" style="fill: #2ca02c"/>
   </g>
   <g id="patch_14">
    <path d="M 235.243143 314.12 
L 274.485793 314.12 
L 274.485793 184.644811 
L 235.243143 184.644811 
z
" clip-path="url(#pf93331f6c8)" style="fill: #2ca02c"/>
   </g>
   <g id="patch_15">
    <path d="M 347.365 314.12 
L 386.60765 314.12 
L 386.60765 184.553846 
L 347.365 184.553846 
z
" clip-path="url(#pf93331f6c8)" style="fill: #2ca02c"/>
   </g>
   <g id="patch_16">
    <path d="M 459.486857 314.12 
L 498.729507 314.12 
L 498.729507 184.125714 
L 459.486857 184.125714 
z
" clip-path="url(#pf93331f6c8)" style="fill: #2ca02c"/>
   </g>
   <g id="patch_17">
    <path d="M 571.608714 314.12 
L 610.851364 314.12 
L 610.851364 184.324194 
L 571.608714 184.324194 
z
" clip-path="url(#pf93331f6c8)" style="fill: #2ca02c"/>
   </g>
   <g id="matplotlib.axis_1">
    <g id="xtick_1">
     <g id="line2d_1">
      <defs>
       <path id="m037d4f691e" d="M 0 0 
L 0 3.5 
" style="stroke: #000000; stroke-width: 0.8"/>
      </defs>
      <g>
       <use xlink:href="#m037d4f691e" x="123.121286" y="314.12" style="stroke: #000000; stroke-width: 0.8"/>
      </g>
     </g>
     <g id="text_1">
      <!-- 0.05 -->
      <g transform="translate(111.988474 328.718437) scale(0.1 -0.1)">
       <defs>
        <path id="DejaVuSans-30" d="M 2034 4250 
Q 1547 4250 1301 3770 
Q 1056 3291 1056 2328 
Q 1056 1369 1301 889 
Q 1547 409 2034 409 
Q 2525 409 2770 889 
Q 3016 1369 3016 2328 
Q 3016 3291 2770 3770 
Q 2525 4250 2034 4250 
z
M 2034 4750 
Q 2819 4750 3233 4129 
Q 3647 3509 3647 2328 
Q 3647 1150 3233 529 
Q 2819 -91 2034 -91 
Q 1250 -91 836 529 
Q 422 1150 422 2328 
Q 422 3509 836 4129 
Q 1250 4750 2034 4750 
z
" transform="scale(0.015625)"/>
        <path id="DejaVuSans-2e" d="M 684 794 
L 1344 794 
L 1344 0 
L 684 0 
L 684 794 
z
" transform="scale(0.015625)"/>
        <path id="DejaVuSans-35" d="M 691 4666 
L 3169 4666 
L 3169 4134 
L 1269 4134 
L 1269 2991 
Q 1406 3038 1543 3061 
Q 1681 3084 1819 3084 
Q 2600 3084 3056 2656 
Q 3513 2228 3513 1497 
Q 3513 744 3044 326 
Q 2575 -91 1722 -91 
Q 1428 -91 1123 -41 
Q 819 9 494 109 
L 494 744 
Q 775 591 1075 516 
Q 1375 441 1709 441 
Q 2250 441 2565 725 
Q 2881 1009 2881 1497 
Q 2881 1984 2565 2268 
Q 2250 2553 1709 2553 
Q 1456 2553 1204 2497 
Q 953 2441 691 2322 
L 691 4666 
z
" transform="scale(0.015625)"/>
       </defs>
       <use xlink:href="#DejaVuSans-30"/>
       <use xlink:href="#DejaVuSans-2e" transform="translate(63.623047 0)"/>
       <use xlink:href="#DejaVuSans-30" transform="translate(95.410156 0)"/>
       <use xlink:href="#DejaVuSans-35" transform="translate(159.033203 0)"/>
      </g>
     </g>
    </g>
    <g id="xtick_2">
     <g id="line2d_2">
      <g>
       <use xlink:href="#m037d4f691e" x="235.243143" y="314.12" style="stroke: #000000; stroke-width: 0.8"/>
      </g>
     </g>
     <g id="text_2">
      <!-- 0.1 -->
      <g transform="translate(227.291581 328.718437) scale(0.1 -0.1)">
       <defs>
        <path id="DejaVuSans-31" d="M 794 531 
L 1825 531 
L 1825 4091 
L 703 3866 
L 703 4441 
L 1819 4666 
L 2450 4666 
L 2450 531 
L 3481 531 
L 3481 0 
L 794 0 
L 794 531 
z
" transform="scale(0.015625)"/>
       </defs>
       <use xlink:href="#DejaVuSans-30"/>
       <use xlink:href="#DejaVuSans-2e" transform="translate(63.623047 0)"/>
       <use xlink:href="#DejaVuSans-31" transform="translate(95.410156 0)"/>
      </g>
     </g>
    </g>
    <g id="xtick_3">
     <g id="line2d_3">
      <g>
       <use xlink:href="#m037d4f691e" x="347.365" y="314.12" style="stroke: #000000; stroke-width: 0.8"/>
      </g>
     </g>
     <g id="text_3">
      <!-- 0.2 -->
      <g transform="translate(339.413437 328.718437) scale(0.1 -0.1)">
       <defs>
        <path id="DejaVuSans-32" d="M 1228 531 
L 3431 531 
L 3431 0 
L 469 0 
L 469 531 
Q 828 903 1448 1529 
Q 2069 2156 2228 2338 
Q 2531 2678 2651 2914 
Q 2772 3150 2772 3378 
Q 2772 3750 2511 3984 
Q 2250 4219 1831 4219 
Q 1534 4219 1204 4116 
Q 875 4013 500 3803 
L 500 4441 
Q 881 4594 1212 4672 
Q 1544 4750 1819 4750 
Q 2544 4750 2975 4387 
Q 3406 4025 3406 3419 
Q 3406 3131 3298 2873 
Q 3191 2616 2906 2266 
Q 2828 2175 2409 1742 
Q 1991 1309 1228 531 
z
" transform="scale(0.015625)"/>
       </defs>
       <use xlink:href="#DejaVuSans-30"/>
       <use xlink:href="#DejaVuSans-2e" transform="translate(63.623047 0)"/>
       <use xlink:href="#DejaVuSans-32" transform="translate(95.410156 0)"/>
      </g>
     </g>
    </g>
    <g id="xtick_4">
     <g id="line2d_4">
      <g>
       <use xlink:href="#m037d4f691e" x="459.486857" y="314.12" style="stroke: #000000; stroke-width: 0.8"/>
      </g>
     </g>
     <g id="text_4">
      <!-- 0.5 -->
      <g transform="translate(451.535294 328.718437) scale(0.1 -0.1)">
       <use xlink:href="#DejaVuSans-30"/>
       <use xlink:href="#DejaVuSans-2e" transform="translate(63.623047 0)"/>
       <use xlink:href="#DejaVuSans-35" transform="translate(95.410156 0)"/>
      </g>
     </g>
    </g>
    <g id="xtick_5">
     <g id="line2d_5">
      <g>
       <use xlink:href="#m037d4f691e" x="571.608714" y="314.12" style="stroke: #000000; stroke-width: 0.8"/>
      </g>
     </g>
    </g>
   </g>
   <g id="matplotlib.axis_2">
    <g id="ytick_1">
     <g id="line2d_6">
      <defs>
       <path id="m9c1e580ecd" d="M 0 0 
L -3.5 0 
" style="stroke: #000000; stroke-width: 0.8"/>
      </defs>
      <g>
       <use xlink:href="#m9c1e580ecd" x="57.53" y="314.12" style="stroke: #000000; stroke-width: 0.8"/>
      </g>
     </g>
     <g id="text_5">
      <!-- 0 -->
      <g transform="translate(44.1675 317.919219) scale(0.1 -0.1)">
       <use xlink:href="#DejaVuSans-30"/>
      </g>
     </g>
    </g>
    <g id="ytick_2">
     <g id="line2d_7">
      <g>
       <use xlink:href="#m9c1e580ecd" x="57.53" y="278.37773" style="stroke: #000000; stroke-width: 0.8"/>
      </g>
     </g>
     <g id="text_6">
      <!-- 1000 -->
      <g transform="translate(25.08 282.176949) scale(0.1 -0.1)">
       <use xlink:href="#DejaVuSans-31"/>
       <use xlink:href="#DejaVuSans-30" transform="translate(63.623047 0)"/>
       <use xlink:href="#DejaVuSans-30" transform="translate(127.246094 0)"/>
       <use xlink:href="#DejaVuSans-30" transform="translate(190.869141 0)"/>
      </g>
     </g>
    </g>
    <g id="ytick_3">
     <g id="line2d_8">
      <g>
       <use xlink:href="#m9c1e580ecd" x="57.53" y="242.63546" style="stroke: #000000; stroke-width: 0.8"/>
      </g>
     </g>
     <g id="text_7">
      <!-- 2000 -->
      <g transform="translate(25.08 246.434679) scale(0.1 -0.1)">
       <use xlink:href="#DejaVuSans-32"/>
       <use xlink:href="#DejaVuSans-30" transform="translate(63.623047 0)"/>
       <use xlink:href="#DejaVuSans-30" transform="translate(127.246094 0)"/>
       <use xlink:href="#DejaVuSans-30" transform="translate(190.869141 0)"/>
      </g>
     </g>
    </g>
    <g id="ytick_4">
     <g id="line2d_9">
      <g>
       <use xlink:href="#m9c1e580ecd" x="57.53" y="206.89319" style="stroke: #000000; stroke-width: 0.8"/>
      </g>
     </g>
     <g id="text_8">
      <!-- 3000 -->
      <g transform="translate(25.08 210.692409) scale(0.1 -0.1)">
       <defs>
        <path id="DejaVuSans-33" d="M 2597 2516 
Q 3050 2419 3304 2112 
Q 3559 1806 3559 1356 
Q 3559 666 3084 287 
Q 2609 -91 1734 -91 
Q 1441 -91 1130 -33 
Q 819 25 488 141 
L 488 750 
Q 750 597 1062 519 
Q 1375 441 1716 441 
Q 2309 441 2620 675 
Q 2931 909 2931 1356 
Q 2931 1769 2642 2001 
Q 2353 2234 1838 2234 
L 1294 2234 
L 1294 2753 
L 1863 2753 
Q 2328 2753 2575 2939 
Q 2822 3125 2822 3475 
Q 2822 3834 2567 4026 
Q 2313 4219 1838 4219 
Q 1578 4219 1281 4162 
Q 984 4106 628 3988 
L 628 4550 
Q 988 4650 1302 4700 
Q 1616 4750 1894 4750 
Q 2613 4750 3031 4423 
Q 3450 4097 3450 3541 
Q 3450 3153 3228 2886 
Q 3006 2619 2597 2516 
z
" transform="scale(0.015625)"/>
       </defs>
       <use xlink:href="#DejaVuSans-33"/>
       <use xlink:href="#DejaVuSans-30" transform="translate(63.623047 0)"/>
       <use xlink:href="#DejaVuSans-30" transform="translate(127.246094 0)"/>
       <use xlink:href="#DejaVuSans-30" transform="translate(190.869141 0)"/>
      </g>
     </g>
    </g>
    <g id="ytick_5">
     <g id="line2d_10">
      <g>
       <use xlink:href="#m9c1e580ecd" x="57.53" y="171.15092" style="stroke: #000000; stroke-width: 0.8"/>
      </g>
     </g>
     <g id="text_9">
      <!-- 4000 -->
      <g transform="translate(25.08 174.950139) scale(0.1 -0.1)">
       <defs>
        <path id="DejaVuSans-34" d="M 2419 4116 
L 825 1625 
L 2419 1625 
L 2419 4116 
z
M 2253 4666 
L 3047 4666 
L 3047 1625 
L 3713 1625 
L 3713 1100 
L 3047 1100 
L 3047 0 
L 2419 0 
L 2419 1100 
L 313 1100 
L 313 1709 
L 2253 4666 
z
" transform="scale(0.015625)"/>
       </defs>
       <use xlink:href="#DejaVuSans-34"/>
       <use xlink:href="#DejaVuSans-30" transform="translate(63.623047 0)"/>
       <use xlink:href="#DejaVuSans-30" transform="translate(127.246094 0)"/>
       <use xlink:href="#DejaVuSans-30" transform="translate(190.869141 0)"/>
      </g>
     </g>
    </g>
    <g id="ytick_6">
     <g id="line2d_11">
      <g>
       <use xlink:href="#m9c1e580ecd" x="57.53" y="135.408651" style="stroke: #000000; stroke-width: 0.8"/>
      </g>
     </g>
     <g id="text_10">
      <!-- 5000 -->
      <g transform="translate(25.08 139.207869) scale(0.1 -0.1)">
       <use xlink:href="#DejaVuSans-35"/>
       <use xlink:href="#DejaVuSans-30" transform="translate(63.623047 0)"/>
       <use xlink:href="#DejaVuSans-30" transform="translate(127.246094 0)"/>
       <use xlink:href="#DejaVuSans-30" transform="translate(190.869141 0)"/>
      </g>
     </g>
    </g>
    <g id="ytick_7">
     <g id="line2d_12">
      <g>
       <use xlink:href="#m9c1e580ecd" x="57.53" y="99.666381" style="stroke: #000000; stroke-width: 0.8"/>
      </g>
     </g>
     <g id="text_11">
      <!-- 6000 -->
      <g transform="translate(25.08 103.465599) scale(0.1 -0.1)">
       <defs>
        <path id="DejaVuSans-36" d="M 2113 2584 
Q 1688 2584 1439 2293 
Q 1191 2003 1191 1497 
Q 1191 994 1439 701 
Q 1688 409 2113 409 
Q 2538 409 2786 701 
Q 3034 994 3034 1497 
Q 3034 2003 2786 2293 
Q 2538 2584 2113 2584 
z
M 3366 4563 
L 3366 3988 
Q 3128 4100 2886 4159 
Q 2644 4219 2406 4219 
Q 1781 4219 1451 3797 
Q 1122 3375 1075 2522 
Q 1259 2794 1537 2939 
Q 1816 3084 2150 3084 
Q 2853 3084 3261 2657 
Q 3669 2231 3669 1497 
Q 3669 778 3244 343 
Q 2819 -91 2113 -91 
Q 1303 -91 875 529 
Q 447 1150 447 2328 
Q 447 3434 972 4092 
Q 1497 4750 2381 4750 
Q 2619 4750 2861 4703 
Q 3103 4656 3366 4563 
z
" transform="scale(0.015625)"/>
       </defs>
       <use xlink:href="#DejaVuSans-36"/>
       <use xlink:href="#DejaVuSans-30" transform="translate(63.623047 0)"/>
       <use xlink:href="#DejaVuSans-30" transform="translate(127.246094 0)"/>
       <use xlink:href="#DejaVuSans-30" transform="translate(190.869141 0)"/>
      </g>
     </g>
    </g>
    <g id="ytick_8">
     <g id="line2d_13">
      <g>
       <use xlink:href="#m9c1e580ecd" x="57.53" y="63.924111" style="stroke: #000000; stroke-width: 0.8"/>
      </g>
     </g>
     <g id="text_12">
      <!-- 7000 -->
      <g transform="translate(25.08 67.72333) scale(0.1 -0.1)">
       <defs>
        <path id="DejaVuSans-37" d="M 525 4666 
L 3525 4666 
L 3525 4397 
L 1831 0 
L 1172 0 
L 2766 4134 
L 525 4134 
L 525 4666 
z
" transform="scale(0.015625)"/>
       </defs>
       <use xlink:href="#DejaVuSans-37"/>
       <use xlink:href="#DejaVuSans-30" transform="translate(63.623047 0)"/>
       <use xlink:href="#DejaVuSans-30" transform="translate(127.246094 0)"/>
       <use xlink:href="#DejaVuSans-30" transform="translate(190.869141 0)"/>
      </g>
     </g>
    </g>
    <g id="ytick_9">
     <g id="line2d_14">
      <g>
       <use xlink:href="#m9c1e580ecd" x="57.53" y="28.181841" style="stroke: #000000; stroke-width: 0.8"/>
      </g>
     </g>
     <g id="text_13">
      <!-- 8000 -->
      <g transform="translate(25.08 31.98106) scale(0.1 -0.1)">
       <defs>
        <path id="DejaVuSans-38" d="M 2034 2216 
Q 1584 2216 1326 1975 
Q 1069 1734 1069 1313 
Q 1069 891 1326 650 
Q 1584 409 2034 409 
Q 2484 409 2743 651 
Q 3003 894 3003 1313 
Q 3003 1734 2745 1975 
Q 2488 2216 2034 2216 
z
M 1403 2484 
Q 997 2584 770 2862 
Q 544 3141 544 3541 
Q 544 4100 942 4425 
Q 1341 4750 2034 4750 
Q 2731 4750 3128 4425 
Q 3525 4100 3525 3541 
Q 3525 3141 3298 2862 
Q 3072 2584 2669 2484 
Q 3125 2378 3379 2068 
Q 3634 1759 3634 1313 
Q 3634 634 3220 271 
Q 2806 -91 2034 -91 
Q 1263 -91 848 271 
Q 434 634 434 1313 
Q 434 1759 690 2068 
Q 947 2378 1403 2484 
z
M 1172 3481 
Q 1172 3119 1398 2916 
Q 1625 2713 2034 2713 
Q 2441 2713 2670 2916 
Q 2900 3119 2900 3481 
Q 2900 3844 2670 4047 
Q 2441 4250 2034 4250 
Q 1625 4250 1398 4047 
Q 1172 3844 1172 3481 
z
" transform="scale(0.015625)"/>
       </defs>
       <use xlink:href="#DejaVuSans-38"/>
       <use xlink:href="#DejaVuSans-30" transform="translate(63.623047 0)"/>
       <use xlink:href="#DejaVuSans-30" transform="translate(127.246094 0)"/>
       <use xlink:href="#DejaVuSans-30" transform="translate(190.869141 0)"/>
      </g>
     </g>
    </g>
    <g id="text_14">
     <!-- Thời gian chạy (ms) -->
     <g transform="translate(19.000312 212.012344) rotate(-90) scale(0.1 -0.1)">
      <defs>
       <path id="DejaVuSans-54" d="M -19 4666 
L 3928 4666 
L 3928 4134 
L 2272 4134 
L 2272 0 
L 1638 0 
L 1638 4134 
L -19 4134 
L -19 4666 
z
" transform="scale(0.015625)"/>
       <path id="DejaVuSans-68" d="M 3513 2113 
L 3513 0 
L 2938 0 
L 2938 2094 
Q 2938 2591 2744 2837 
Q 2550 3084 2163 3084 
Q 1697 3084 1428 2787 
Q 1159 2491 1159 1978 
L 1159 0 
L 581 0 
L 581 4863 
L 1159 4863 
L 1159 2956 
Q 1366 3272 1645 3428 
Q 1925 3584 2291 3584 
Q 2894 3584 3203 3211 
Q 3513 2838 3513 2113 
z
" transform="scale(0.015625)"/>
       <path id="DejaVuSans-1edd" d="M 1507 5119 
L 2388 3950 
L 1910 3950 
L 891 5119 
L 1507 5119 
z
M 2622 3136 
L 2622 3508 
Q 2813 3367 2950 3300 
Q 3088 3233 3185 3233 
Q 3328 3233 3400 3319 
Q 3472 3405 3472 3573 
Q 3472 3673 3448 3770 
Q 3425 3867 3378 3964 
L 3794 3964 
Q 3825 3845 3840 3739 
Q 3856 3633 3856 3539 
Q 3856 3158 3720 2978 
Q 3585 2798 3294 2798 
Q 3144 2798 2980 2881 
Q 2816 2964 2622 3136 
z
M 1975 3097 
Q 1513 3097 1244 2736 
Q 975 2375 975 1747 
Q 975 1119 1242 758 
Q 1510 397 1975 397 
Q 2435 397 2703 759 
Q 2972 1122 2972 1747 
Q 2972 2369 2703 2733 
Q 2435 3097 1975 3097 
z
M 1975 3584 
Q 2725 3584 3153 3096 
Q 3582 2609 3582 1747 
Q 3582 888 3153 398 
Q 2725 -91 1975 -91 
Q 1222 -91 795 398 
Q 369 888 369 1747 
Q 369 2609 795 3096 
Q 1222 3584 1975 3584 
z
" transform="scale(0.015625)"/>
       <path id="DejaVuSans-69" d="M 603 3500 
L 1178 3500 
L 1178 0 
L 603 0 
L 603 3500 
z
M 603 4863 
L 1178 4863 
L 1178 4134 
L 603 4134 
L 603 4863 
z
" transform="scale(0.015625)"/>
       <path id="DejaVuSans-20" transform="scale(0.015625)"/>
       <path id="DejaVuSans-67" d="M 2906 1791 
Q 2906 2416 2648 2759 
Q 2391 3103 1925 3103 
Q 1463 3103 1205 2759 
Q 947 2416 947 1791 
Q 947 1169 1205 825 
Q 1463 481 1925 481 
Q 2391 481 2648 825 
Q 2906 1169 2906 1791 
z
M 3481 434 
Q 3481 -459 3084 -895 
Q 2688 -1331 1869 -1331 
Q 1566 -1331 1297 -1286 
Q 1028 -1241 775 -1147 
L 775 -588 
Q 1028 -725 1275 -790 
Q 1522 -856 1778 -856 
Q 2344 -856 2625 -561 
Q 2906 -266 2906 331 
L 2906 616 
Q 2728 306 2450 153 
Q 2172 0 1784 0 
Q 1141 0 747 490 
Q 353 981 353 1791 
Q 353 2603 747 3093 
Q 1141 3584 1784 3584 
Q 2172 3584 2450 3431 
Q 2728 3278 2906 2969 
L 2906 3500 
L 3481 3500 
L 3481 434 
z
" transform="scale(0.015625)"/>
       <path id="DejaVuSans-61" d="M 2194 1759 
Q 1497 1759 1228 1600 
Q 959 1441 959 1056 
Q 959 750 1161 570 
Q 1363 391 1709 391 
Q 2188 391 2477 730 
Q 2766 1069 2766 1631 
L 2766 1759 
L 2194 1759 
z
M 3341 1997 
L 3341 0 
L 2766 0 
L 2766 531 
Q 2569 213 2275 61 
Q 1981 -91 1556 -91 
Q 1019 -91 701 211 
Q 384 513 384 1019 
Q 384 1609 779 1909 
Q 1175 2209 1959 2209 
L 2766 2209 
L 2766 2266 
Q 2766 2663 2505 2880 
Q 2244 3097 1772 3097 
Q 1472 3097 1187 3025 
Q 903 2953 641 2809 
L 641 3341 
Q 956 3463 1253 3523 
Q 1550 3584 1831 3584 
Q 2591 3584 2966 3190 
Q 3341 2797 3341 1997 
z
" transform="scale(0.015625)"/>
       <path id="DejaVuSans-6e" d="M 3513 2113 
L 3513 0 
L 2938 0 
L 2938 2094 
Q 2938 2591 2744 2837 
Q 2550 3084 2163 3084 
Q 1697 3084 1428 2787 
Q 1159 2491 1159 1978 
L 1159 0 
L 581 0 
L 581 3500 
L 1159 3500 
L 1159 2956 
Q 1366 3272 1645 3428 
Q 1925 3584 2291 3584 
Q 2894 3584 3203 3211 
Q 3513 2838 3513 2113 
z
" transform="scale(0.015625)"/>
       <path id="DejaVuSans-63" d="M 3122 3366 
L 3122 2828 
Q 2878 2963 2633 3030 
Q 2388 3097 2138 3097 
Q 1578 3097 1268 2742 
Q 959 2388 959 1747 
Q 959 1106 1268 751 
Q 1578 397 2138 397 
Q 2388 397 2633 464 
Q 2878 531 3122 666 
L 3122 134 
Q 2881 22 2623 -34 
Q 2366 -91 2075 -91 
Q 1284 -91 818 406 
Q 353 903 353 1747 
Q 353 2603 823 3093 
Q 1294 3584 2113 3584 
Q 2378 3584 2631 3529 
Q 2884 3475 3122 3366 
z
" transform="scale(0.015625)"/>
       <path id="DejaVuSans-1ea1" d="M 1410 -441 
L 1985 -441 
L 1985 -1172 
L 1410 -1172 
L 1410 -441 
z
M 2194 1759 
Q 1497 1759 1228 1600 
Q 959 1441 959 1056 
Q 959 750 1161 570 
Q 1363 391 1709 391 
Q 2188 391 2477 730 
Q 2766 1069 2766 1631 
L 2766 1759 
L 2194 1759 
z
M 3341 1997 
L 3341 0 
L 2766 0 
L 2766 531 
Q 2569 213 2275 61 
Q 1981 -91 1556 -91 
Q 1019 -91 701 211 
Q 384 513 384 1019 
Q 384 1609 779 1909 
Q 1175 2209 1959 2209 
L 2766 2209 
L 2766 2266 
Q 2766 2663 2505 2880 
Q 2244 3097 1772 3097 
Q 1472 3097 1187 3025 
Q 903 2953 641 2809 
L 641 3341 
Q 956 3463 1253 3523 
Q 1550 3584 1831 3584 
Q 2591 3584 2966 3190 
Q 3341 2797 3341 1997 
z
" transform="scale(0.015625)"/>
       <path id="DejaVuSans-79" d="M 2059 -325 
Q 1816 -950 1584 -1140 
Q 1353 -1331 966 -1331 
L 506 -1331 
L 506 -850 
L 844 -850 
Q 1081 -850 1212 -737 
Q 1344 -625 1503 -206 
L 1606 56 
L 191 3500 
L 800 3500 
L 1894 763 
L 2988 3500 
L 3597 3500 
L 2059 -325 
z
" transform="scale(0.015625)"/>
       <path id="DejaVuSans-28" d="M 1984 4856 
Q 1566 4138 1362 3434 
Q 1159 2731 1159 2009 
Q 1159 1288 1364 580 
Q 1569 -128 1984 -844 
L 1484 -844 
Q 1016 -109 783 600 
Q 550 1309 550 2009 
Q 550 2706 781 3412 
Q 1013 4119 1484 4856 
L 1984 4856 
z
" transform="scale(0.015625)"/>
       <path id="DejaVuSans-6d" d="M 3328 2828 
Q 3544 3216 3844 3400 
Q 4144 3584 4550 3584 
Q 5097 3584 5394 3201 
Q 5691 2819 5691 2113 
L 5691 0 
L 5113 0 
L 5113 2094 
Q 5113 2597 4934 2840 
Q 4756 3084 4391 3084 
Q 3944 3084 3684 2787 
Q 3425 2491 3425 1978 
L 3425 0 
L 2847 0 
L 2847 2094 
Q 2847 2600 2669 2842 
Q 2491 3084 2119 3084 
Q 1678 3084 1418 2786 
Q 1159 2488 1159 1978 
L 1159 0 
L 581 0 
L 581 3500 
L 1159 3500 
L 1159 2956 
Q 1356 3278 1631 3431 
Q 1906 3584 2284 3584 
Q 2666 3584 2933 3390 
Q 3200 3197 3328 2828 
z
" transform="scale(0.015625)"/>
       <path id="DejaVuSans-73" d="M 2834 3397 
L 2834 2853 
Q 2591 2978 2328 3040 
Q 2066 3103 1784 3103 
Q 1356 3103 1142 2972 
Q 928 2841 928 2578 
Q 928 2378 1081 2264 
Q 1234 2150 1697 2047 
L 1894 2003 
Q 2506 1872 2764 1633 
Q 3022 1394 3022 966 
Q 3022 478 2636 193 
Q 2250 -91 1575 -91 
Q 1294 -91 989 -36 
Q 684 19 347 128 
L 347 722 
Q 666 556 975 473 
Q 1284 391 1588 391 
Q 1994 391 2212 530 
Q 2431 669 2431 922 
Q 2431 1156 2273 1281 
Q 2116 1406 1581 1522 
L 1381 1569 
Q 847 1681 609 1914 
Q 372 2147 372 2553 
Q 372 3047 722 3315 
Q 1072 3584 1716 3584 
Q 2034 3584 2315 3537 
Q 2597 3491 2834 3397 
z
" transform="scale(0.015625)"/>
       <path id="DejaVuSans-29" d="M 513 4856 
L 1013 4856 
Q 1481 4119 1714 3412 
Q 1947 2706 1947 2009 
Q 1947 1309 1714 600 
Q 1481 -109 1013 -844 
L 513 -844 
Q 928 -128 1133 580 
Q 1338 1288 1338 2009 
Q 1338 2731 1133 3434 
Q 928 4138 513 4856 
z
" transform="scale(0.015625)"/>
      </defs>
      <use xlink:href="#DejaVuSans-54"/>
      <use xlink:href="#DejaVuSans-68" transform="translate(61.083984 0)"/>
      <use xlink:href="#DejaVuSans-1edd" transform="translate(124.462891 0)"/>
      <use xlink:href="#DejaVuSans-69" transform="translate(185.644531 0)"/>
      <use xlink:href="#DejaVuSans-20" transform="translate(213.427734 0)"/>
      <use xlink:href="#DejaVuSans-67" transform="translate(245.214844 0)"/>
      <use xlink:href="#DejaVuSans-69" transform="translate(308.691406 0)"/>
      <use xlink:href="#DejaVuSans-61" transform="translate(336.474609 0)"/>
      <use xlink:href="#DejaVuSans-6e" transform="translate(397.753906 0)"/>
      <use xlink:href="#DejaVuSans-20" transform="translate(461.132812 0)"/>
      <use xlink:href="#DejaVuSans-63" transform="translate(492.919922 0)"/>
      <use xlink:href="#DejaVuSans-68" transform="translate(547.900391 0)"/>
      <use xlink:href="#DejaVuSans-1ea1" transform="translate(611.279297 0)"/>
      <use xlink:href="#DejaVuSans-79" transform="translate(672.558594 0)"/>
      <use xlink:href="#DejaVuSans-20" transform="translate(731.738281 0)"/>
      <use xlink:href="#DejaVuSans-28" transform="translate(763.525391 0)"/>
      <use xlink:href="#DejaVuSans-6d" transform="translate(802.539062 0)"/>
      <use xlink:href="#DejaVuSans-73" transform="translate(899.951172 0)"/>
      <use xlink:href="#DejaVuSans-29" transform="translate(952.050781 0)"/>
     </g>
    </g>
   </g>
   <g id="patch_18">
    <path d="M 57.53 314.12 
L 57.53 10.8 
" style="fill: none; stroke: #000000; stroke-width: 0.8; stroke-linejoin: miter; stroke-linecap: square"/>
   </g>
   <g id="patch_19">
    <path d="M 637.2 314.12 
L 637.2 10.8 
" style="fill: none; stroke: #000000; stroke-width: 0.8; stroke-linejoin: miter; stroke-linecap: square"/>
   </g>
   <g id="patch_20">
    <path d="M 57.53 314.12 
L 637.2 314.12 
" style="fill: none; stroke: #000000; stroke-width: 0.8; stroke-linejoin: miter; stroke-linecap: square"/>
   </g>
   <g id="patch_21">
    <path d="M 57.53 10.8 
L 637.2 10.8 
" style="fill: none; stroke: #000000; stroke-width: 0.8; stroke-linejoin: miter; stroke-linecap: square"/>
   </g>
  </g>
  <g id="text_15">
   <!-- Song song hóa phân chia tác vụ, giảm thời gian xử lý đáng kể và cải thiện thông lượng. "Song song" bars are simulated (45% of measured runtime) when using CSV-derived data. -->
   <g transform="translate(12.96 350.928281) scale(0.09 -0.09)">
    <defs>
     <path id="DejaVuSans-53" d="M 3425 4513 
L 3425 3897 
Q 3066 4069 2747 4153 
Q 2428 4238 2131 4238 
Q 1616 4238 1336 4038 
Q 1056 3838 1056 3469 
Q 1056 3159 1242 3001 
Q 1428 2844 1947 2747 
L 2328 2669 
Q 3034 2534 3370 2195 
Q 3706 1856 3706 1288 
Q 3706 609 3251 259 
Q 2797 -91 1919 -91 
Q 1588 -91 1214 -16 
Q 841 59 441 206 
L 441 856 
Q 825 641 1194 531 
Q 1563 422 1919 422 
Q 2459 422 2753 634 
Q 3047 847 3047 1241 
Q 3047 1584 2836 1778 
Q 2625 1972 2144 2069 
L 1759 2144 
Q 1053 2284 737 2584 
Q 422 2884 422 3419 
Q 422 4038 858 4394 
Q 1294 4750 2059 4750 
Q 2388 4750 2728 4690 
Q 3069 4631 3425 4513 
z
" transform="scale(0.015625)"/>
     <path id="DejaVuSans-6f" d="M 1959 3097 
Q 1497 3097 1228 2736 
Q 959 2375 959 1747 
Q 959 1119 1226 758 
Q 1494 397 1959 397 
Q 2419 397 2687 759 
Q 2956 1122 2956 1747 
Q 2956 2369 2687 2733 
Q 2419 3097 1959 3097 
z
M 1959 3584 
Q 2709 3584 3137 3096 
Q 3566 2609 3566 1747 
Q 3566 888 3137 398 
Q 2709 -91 1959 -91 
Q 1206 -91 779 398 
Q 353 888 353 1747 
Q 353 2609 779 3096 
Q 1206 3584 1959 3584 
z
" transform="scale(0.015625)"/>
     <path id="DejaVuSans-f3" d="M 1959 3097 
Q 1497 3097 1228 2736 
Q 959 2375 959 1747 
Q 959 1119 1226 758 
Q 1494 397 1959 397 
Q 2419 397 2687 759 
Q 2956 1122 2956 1747 
Q 2956 2369 2687 2733 
Q 2419 3097 1959 3097 
z
M 1959 3584 
Q 2709 3584 3137 3096 
Q 3566 2609 3566 1747 
Q 3566 888 3137 398 
Q 2709 -91 1959 -91 
Q 1206 -91 779 398 
Q 353 888 353 1747 
Q 353 2609 779 3096 
Q 1206 3584 1959 3584 
z
M 2394 5119 
L 3016 5119 
L 1998 3944 
L 1519 3944 
L 2394 5119 
z
" transform="scale(0.015625)"/>
     <path id="DejaVuSans-70" d="M 1159 525 
L 1159 -1331 
L 581 -1331 
L 581 3500 
L 1159 3500 
L 1159 2969 
Q 1341 3281 1617 3432 
Q 1894 3584 2278 3584 
Q 2916 3584 3314 3078 
Q 3713 2572 3713 1747 
Q 3713 922 3314 415 
Q 2916 -91 2278 -91 
Q 1894 -91 1617 61 
Q 1341 213 1159 525 
z
M 3116 1747 
Q 3116 2381 2855 2742 
Q 2594 3103 2138 3103 
Q 1681 3103 1420 2742 
Q 1159 2381 1159 1747 
Q 1159 1113 1420 752 
Q 1681 391 2138 391 
Q 2594 391 2855 752 
Q 3116 1113 3116 1747 
z
" transform="scale(0.015625)"/>
     <path id="DejaVuSans-e2" d="M 2194 1759 
Q 1497 1759 1228 1600 
Q 959 1441 959 1056 
Q 959 750 1161 570 
Q 1363 391 1709 391 
Q 2188 391 2477 730 
Q 2766 1069 2766 1631 
L 2766 1759 
L 2194 1759 
z
M 3341 1997 
L 3341 0 
L 2766 0 
L 2766 531 
Q 2569 213 2275 61 
Q 1981 -91 1556 -91 
Q 1019 -91 701 211 
Q 384 513 384 1019 
Q 384 1609 779 1909 
Q 1175 2209 1959 2209 
L 2766 2209 
L 2766 2266 
Q 2766 2663 2505 2880 
Q 2244 3097 1772 3097 
Q 1472 3097 1187 3025 
Q 903 2953 641 2809 
L 641 3341 
Q 956 3463 1253 3523 
Q 1550 3584 1831 3584 
Q 2591 3584 2966 3190 
Q 3341 2797 3341 1997 
z
M 1625 5119 
L 2087 5119 
L 2853 3944 
L 2419 3944 
L 1856 4709 
L 1294 3944 
L 859 3944 
L 1625 5119 
z
" transform="scale(0.015625)"/>
     <path id="DejaVuSans-74" d="M 1172 4494 
L 1172 3500 
L 2356 3500 
L 2356 3053 
L 1172 3053 
L 1172 1153 
Q 1172 725 1289 603 
Q 1406 481 1766 481 
L 2356 481 
L 2356 0 
L 1766 0 
Q 1100 0 847 248 
Q 594 497 594 1153 
L 594 3053 
L 172 3053 
L 172 3500 
L 594 3500 
L 594 4494 
L 1172 4494 
z
" transform="scale(0.015625)"/>
     <path id="DejaVuSans-e1" d="M 2194 1759 
Q 1497 1759 1228 1600 
Q 959 1441 959 1056 
Q 959 750 1161 570 
Q 1363 391 1709 391 
Q 2188 391 2477 730 
Q 2766 1069 2766 1631 
L 2766 1759 
L 2194 1759 
z
M 3341 1997 
L 3341 0 
L 2766 0 
L 2766 531 
Q 2569 213 2275 61 
Q 1981 -91 1556 -91 
Q 1019 -91 701 211 
Q 384 513 384 1019 
Q 384 1609 779 1909 
Q 1175 2209 1959 2209 
L 2766 2209 
L 2766 2266 
Q 2766 2663 2505 2880 
Q 2244 3097 1772 3097 
Q 1472 3097 1187 3025 
Q 903 2953 641 2809 
L 641 3341 
Q 956 3463 1253 3523 
Q 1550 3584 1831 3584 
Q 2591 3584 2966 3190 
Q 3341 2797 3341 1997 
z
M 2290 5119 
L 2912 5119 
L 1894 3944 
L 1415 3944 
L 2290 5119 
z
" transform="scale(0.015625)"/>
     <path id="DejaVuSans-76" d="M 191 3500 
L 800 3500 
L 1894 563 
L 2988 3500 
L 3597 3500 
L 2284 0 
L 1503 0 
L 191 3500 
z
" transform="scale(0.015625)"/>
     <path id="DejaVuSans-1ee5" d="M 544 1381 
L 544 3500 
L 1119 3500 
L 1119 1403 
Q 1119 906 1312 657 
Q 1506 409 1894 409 
Q 2359 409 2629 706 
Q 2900 1003 2900 1516 
L 2900 3500 
L 3475 3500 
L 3475 0 
L 2900 0 
L 2900 538 
Q 2691 219 2414 64 
Q 2138 -91 1772 -91 
Q 1169 -91 856 284 
Q 544 659 544 1381 
z
M 1991 3584 
L 1991 3584 
z
M 1690 -441 
L 2265 -441 
L 2265 -1172 
L 1690 -1172 
L 1690 -441 
z
" transform="scale(0.015625)"/>
     <path id="DejaVuSans-2c" d="M 750 794 
L 1409 794 
L 1409 256 
L 897 -744 
L 494 -744 
L 750 256 
L 750 794 
z
" transform="scale(0.015625)"/>
     <path id="DejaVuSans-1ea3" d="M 2194 1759 
Q 1497 1759 1228 1600 
Q 959 1441 959 1056 
Q 959 750 1161 570 
Q 1363 391 1709 391 
Q 2188 391 2477 730 
Q 2766 1069 2766 1631 
L 2766 1759 
L 2194 1759 
z
M 3341 1997 
L 3341 0 
L 2766 0 
L 2766 531 
Q 2569 213 2275 61 
Q 1981 -91 1556 -91 
Q 1019 -91 701 211 
Q 384 513 384 1019 
Q 384 1609 779 1909 
Q 1175 2209 1959 2209 
L 2766 2209 
L 2766 2266 
Q 2766 2663 2505 2880 
Q 2244 3097 1772 3097 
Q 1472 3097 1187 3025 
Q 903 2953 641 2809 
L 641 3341 
Q 956 3463 1253 3523 
Q 1550 3584 1831 3584 
Q 2591 3584 2966 3190 
Q 3341 2797 3341 1997 
z
M 1236 5025 
Q 1586 5184 1914 5184 
Q 2239 5184 2437 5051 
Q 2636 4919 2636 4709 
Q 2636 4519 2361 4316 
L 2223 4216 
Q 2114 4134 2102 4106 
Q 2080 4056 2080 3956 
L 1708 3956 
L 1708 3994 
Q 1708 4119 1755 4203 
Q 1802 4288 1961 4403 
L 2102 4509 
Q 2245 4616 2245 4741 
Q 2245 4806 2148 4862 
Q 2052 4919 1830 4919 
Q 1548 4919 1236 4756 
L 1236 5025 
z
" transform="scale(0.015625)"/>
     <path id="DejaVuSans-78" d="M 3513 3500 
L 2247 1797 
L 3578 0 
L 2900 0 
L 1881 1375 
L 863 0 
L 184 0 
L 1544 1831 
L 300 3500 
L 978 3500 
L 1906 2253 
L 2834 3500 
L 3513 3500 
z
" transform="scale(0.015625)"/>
     <path id="DejaVuSans-1eed" d="M 3094 3136 
L 3094 3508 
Q 3285 3367 3422 3300 
Q 3560 3233 3657 3233 
Q 3800 3233 3872 3319 
Q 3944 3405 3944 3573 
Q 3944 3673 3920 3770 
Q 3897 3867 3850 3964 
L 4266 3964 
Q 4297 3845 4312 3739 
Q 4328 3633 4328 3539 
Q 4328 3158 4192 2978 
Q 4057 2798 3766 2798 
Q 3616 2798 3452 2881 
Q 3288 2964 3094 3136 
z
M 552 1381 
L 552 3500 
L 1127 3500 
L 1127 1403 
Q 1127 906 1320 657 
Q 1514 409 1902 409 
Q 2367 409 2637 706 
Q 2908 1003 2908 1516 
L 2908 3500 
L 3483 3500 
L 3483 0 
L 2908 0 
L 2908 538 
Q 2699 219 2422 64 
Q 2146 -91 1780 -91 
Q 1177 -91 864 284 
Q 552 659 552 1381 
z
M 1999 3584 
L 1999 3584 
z
M 1364 5025 
Q 1714 5184 2042 5184 
Q 2367 5184 2565 5051 
Q 2764 4919 2764 4709 
Q 2764 4519 2489 4316 
L 2351 4216 
Q 2242 4134 2230 4106 
Q 2208 4056 2208 3956 
L 1836 3956 
L 1836 3994 
Q 1836 4119 1883 4203 
Q 1930 4288 2089 4403 
L 2230 4509 
Q 2373 4616 2373 4741 
Q 2373 4806 2276 4862 
Q 2180 4919 1958 4919 
Q 1676 4919 1364 4756 
L 1364 5025 
z
" transform="scale(0.015625)"/>
     <path id="DejaVuSans-6c" d="M 603 4863 
L 1178 4863 
L 1178 0 
L 603 0 
L 603 4863 
z
" transform="scale(0.015625)"/>
     <path id="DejaVuSans-fd" d="M 2059 -325 
Q 1816 -950 1584 -1140 
Q 1353 -1331 966 -1331 
L 506 -1331 
L 506 -850 
L 844 -850 
Q 1081 -850 1212 -737 
Q 1344 -625 1503 -206 
L 1606 56 
L 191 3500 
L 800 3500 
L 1894 763 
L 2988 3500 
L 3597 3500 
L 2059 -325 
z
M 2330 5119 
L 2952 5119 
L 1934 3944 
L 1455 3944 
L 2330 5119 
z
" transform="scale(0.015625)"/>
     <path id="DejaVuSans-111" d="M 2906 2969 
L 2906 4013 
L 1888 4013 
L 1888 4403 
L 2906 4403 
L 2906 4863 
L 3481 4863 
L 3481 4403 
L 3963 4403 
L 3963 4013 
L 3481 4013 
L 3481 0 
L 2906 0 
L 2906 525 
Q 2725 213 2448 61 
Q 2172 -91 1784 -91 
Q 1150 -91 751 415 
Q 353 922 353 1747 
Q 353 2572 751 3078 
Q 1150 3584 1784 3584 
Q 2172 3584 2448 3432 
Q 2725 3281 2906 2969 
z
M 947 1747 
Q 947 1113 1208 752 
Q 1469 391 1925 391 
Q 2381 391 2643 752 
Q 2906 1113 2906 1747 
Q 2906 2381 2643 2742 
Q 2381 3103 1925 3103 
Q 1469 3103 1208 2742 
Q 947 2381 947 1747 
z
" transform="scale(0.015625)"/>
     <path id="DejaVuSans-6b" d="M 581 4863 
L 1159 4863 
L 1159 1991 
L 2875 3500 
L 3609 3500 
L 1753 1863 
L 3688 0 
L 2938 0 
L 1159 1709 
L 1159 0 
L 581 0 
L 581 4863 
z
" transform="scale(0.015625)"/>
     <path id="DejaVuSans-1ec3" d="M 3597 1894 
L 3597 1613 
L 953 1613 
Q 991 1019 1311 708 
Q 1631 397 2203 397 
Q 2534 397 2845 478 
Q 3156 559 3463 722 
L 3463 178 
Q 3153 47 2828 -22 
Q 2503 -91 2169 -91 
Q 1331 -91 842 396 
Q 353 884 353 1716 
Q 353 2575 817 3079 
Q 1281 3584 2069 3584 
Q 2775 3584 3186 3129 
Q 3597 2675 3597 1894 
z
M 3022 2063 
Q 3016 2534 2758 2815 
Q 2500 3097 2075 3097 
Q 1594 3097 1305 2825 
Q 1016 2553 972 2059 
L 3022 2063 
z
M 2468 5345 
Q 2818 5504 3146 5504 
Q 3471 5504 3669 5371 
Q 3868 5239 3868 5029 
Q 3868 4839 3593 4636 
L 3455 4536 
Q 3346 4454 3334 4426 
Q 3312 4376 3312 4276 
L 2940 4276 
L 2940 4314 
Q 2940 4439 2987 4523 
Q 3034 4608 3193 4723 
L 3334 4829 
Q 3477 4936 3477 5061 
Q 3477 5126 3380 5182 
Q 3284 5239 3062 5239 
Q 2780 5239 2468 5076 
L 2468 5345 
z
M 1738 4775 
L 2326 4775 
L 2985 3944 
L 2551 3944 
L 2032 4500 
L 1513 3944 
L 1079 3944 
L 1738 4775 
z
" transform="scale(0.015625)"/>
     <path id="DejaVuSans-e0" d="M 2194 1759 
Q 1497 1759 1228 1600 
Q 959 1441 959 1056 
Q 959 750 1161 570 
Q 1363 391 1709 391 
Q 2188 391 2477 730 
Q 2766 1069 2766 1631 
L 2766 1759 
L 2194 1759 
z
M 3341 1997 
L 3341 0 
L 2766 0 
L 2766 531 
Q 2569 213 2275 61 
Q 1981 -91 1556 -91 
Q 1019 -91 701 211 
Q 384 513 384 1019 
Q 384 1609 779 1909 
Q 1175 2209 1959 2209 
L 2766 2209 
L 2766 2266 
Q 2766 2663 2505 2880 
Q 2244 3097 1772 3097 
Q 1472 3097 1187 3025 
Q 903 2953 641 2809 
L 641 3341 
Q 956 3463 1253 3523 
Q 1550 3584 1831 3584 
Q 2591 3584 2966 3190 
Q 3341 2797 3341 1997 
z
M 1403 5119 
L 2284 3950 
L 1806 3950 
L 787 5119 
L 1403 5119 
z
" transform="scale(0.015625)"/>
     <path id="DejaVuSans-1ec7" d="M 1738 -441 
L 2313 -441 
L 2313 -1172 
L 1738 -1172 
L 1738 -441 
z
M 3597 1894 
L 3597 1613 
L 953 1613 
Q 991 1019 1311 708 
Q 1631 397 2203 397 
Q 2534 397 2845 478 
Q 3156 559 3463 722 
L 3463 178 
Q 3153 47 2828 -22 
Q 2503 -91 2169 -91 
Q 1331 -91 842 396 
Q 353 884 353 1716 
Q 353 2575 817 3079 
Q 1281 3584 2069 3584 
Q 2775 3584 3186 3129 
Q 3597 2675 3597 1894 
z
M 3022 2063 
Q 3016 2534 2758 2815 
Q 2500 3097 2075 3097 
Q 1594 3097 1305 2825 
Q 1016 2553 972 2059 
L 3022 2063 
z
M 1738 -441 
L 2313 -441 
L 2313 -1172 
L 1738 -1172 
L 1738 -441 
z
M 1801 5119 
L 2263 5119 
L 3029 3944 
L 2595 3944 
L 2032 4709 
L 1470 3944 
L 1035 3944 
L 1801 5119 
z
" transform="scale(0.015625)"/>
     <path id="DejaVuSans-f4" d="M 1959 3097 
Q 1497 3097 1228 2736 
Q 959 2375 959 1747 
Q 959 1119 1226 758 
Q 1494 397 1959 397 
Q 2419 397 2687 759 
Q 2956 1122 2956 1747 
Q 2956 2369 2687 2733 
Q 2419 3097 1959 3097 
z
M 1959 3584 
Q 2709 3584 3137 3096 
Q 3566 2609 3566 1747 
Q 3566 888 3137 398 
Q 2709 -91 1959 -91 
Q 1206 -91 779 398 
Q 353 888 353 1747 
Q 353 2609 779 3096 
Q 1206 3584 1959 3584 
z
M 1729 5119 
L 2191 5119 
L 2957 3944 
L 2523 3944 
L 1960 4709 
L 1398 3944 
L 963 3944 
L 1729 5119 
z
" transform="scale(0.015625)"/>
     <path id="DejaVuSans-1b0" d="M 3094 3136 
L 3094 3508 
Q 3285 3367 3422 3300 
Q 3560 3233 3657 3233 
Q 3800 3233 3872 3319 
Q 3944 3405 3944 3573 
Q 3944 3673 3920 3770 
Q 3897 3867 3850 3964 
L 4266 3964 
Q 4297 3845 4312 3739 
Q 4328 3633 4328 3539 
Q 4328 3158 4192 2978 
Q 4057 2798 3766 2798 
Q 3616 2798 3452 2881 
Q 3288 2964 3094 3136 
z
M 552 1381 
L 552 3500 
L 1127 3500 
L 1127 1403 
Q 1127 906 1320 657 
Q 1514 409 1902 409 
Q 2367 409 2637 706 
Q 2908 1003 2908 1516 
L 2908 3500 
L 3483 3500 
L 3483 0 
L 2908 0 
L 2908 538 
Q 2699 219 2422 64 
Q 2146 -91 1780 -91 
Q 1177 -91 864 284 
Q 552 659 552 1381 
z
M 1999 3584 
L 1999 3584 
z
" transform="scale(0.015625)"/>
     <path id="DejaVuSans-1ee3" d="M 2622 3136 
L 2622 3508 
Q 2813 3367 2950 3300 
Q 3088 3233 3185 3233 
Q 3328 3233 3400 3319 
Q 3472 3405 3472 3573 
Q 3472 3673 3448 3770 
Q 3425 3867 3378 3964 
L 3794 3964 
Q 3825 3845 3840 3739 
Q 3856 3633 3856 3539 
Q 3856 3158 3720 2978 
Q 3585 2798 3294 2798 
Q 3144 2798 2980 2881 
Q 2816 2964 2622 3136 
z
M 1975 3097 
Q 1513 3097 1244 2736 
Q 975 2375 975 1747 
Q 975 1119 1242 758 
Q 1510 397 1975 397 
Q 2435 397 2703 759 
Q 2972 1122 2972 1747 
Q 2972 2369 2703 2733 
Q 2435 3097 1975 3097 
z
M 1975 3584 
Q 2725 3584 3153 3096 
Q 3582 2609 3582 1747 
Q 3582 888 3153 398 
Q 2725 -91 1975 -91 
Q 1222 -91 795 398 
Q 369 888 369 1747 
Q 369 2609 795 3096 
Q 1222 3584 1975 3584 
z
M 1666 -441 
L 2241 -441 
L 2241 -1172 
L 1666 -1172 
L 1666 -441 
z
" transform="scale(0.015625)"/>
     <path id="DejaVuSans-22" d="M 1147 4666 
L 1147 2931 
L 616 2931 
L 616 4666 
L 1147 4666 
z
M 2328 4666 
L 2328 2931 
L 1797 2931 
L 1797 4666 
L 2328 4666 
z
" transform="scale(0.015625)"/>
     <path id="DejaVuSans-62" d="M 3116 1747 
Q 3116 2381 2855 2742 
Q 2594 3103 2138 3103 
Q 1681 3103 1420 2742 
Q 1159 2381 1159 1747 
Q 1159 1113 1420 752 
Q 1681 391 2138 391 
Q 2594 391 2855 752 
Q 3116 1113 3116 1747 
z
M 1159 2969 
Q 1341 3281 1617 3432 
Q 1894 3584 2278 3584 
Q 2916 3584 3314 3078 
Q 3713 2572 3713 1747 
Q 3713 922 3314 415 
Q 2916 -91 2278 -91 
Q 1894 -91 1617 61 
Q 1341 213 1159 525 
L 1159 0 
L 581 0 
L 581 4863 
L 1159 4863 
L 1159 2969 
z
" transform="scale(0.015625)"/>
     <path id="DejaVuSans-72" d="M 2631 2963 
Q 2534 3019 2420 3045 
Q 2306 3072 2169 3072 
Q 1681 3072 1420 2755 
Q 1159 2438 1159 1844 
L 1159 0 
L 581 0 
L 581 3500 
L 1159 3500 
L 1159 2956 
Q 1341 3275 1631 3429 
Q 1922 3584 2338 3584 
Q 2397 3584 2469 3576 
Q 2541 3569 2628 3553 
L 2631 2963 
z
" transform="scale(0.015625)"/>
     <path id="DejaVuSans-65" d="M 3597 1894 
L 3597 1613 
L 953 1613 
Q 991 1019 1311 708 
Q 1631 397 2203 397 
Q 2534 397 2845 478 
Q 3156 559 3463 722 
L 3463 178 
Q 3153 47 2828 -22 
Q 2503 -91 2169 -91 
Q 1331 -91 842 396 
Q 353 884 353 1716 
Q 353 2575 817 3079 
Q 1281 3584 2069 3584 
Q 2775 3584 3186 3129 
Q 3597 2675 3597 1894 
z
M 3022 2063 
Q 3016 2534 2758 2815 
Q 2500 3097 2075 3097 
Q 1594 3097 1305 2825 
Q 1016 2553 972 2059 
L 3022 2063 
z
" transform="scale(0.015625)"/>
     <path id="DejaVuSans-75" d="M 544 1381 
L 544 3500 
L 1119 3500 
L 1119 1403 
Q 1119 906 1312 657 
Q 1506 409 1894 409 
Q 2359 409 2629 706 
Q 2900 1003 2900 1516 
L 2900 3500 
L 3475 3500 
L 3475 0 
L 2900 0 
L 2900 538 
Q 2691 219 2414 64 
Q 2138 -91 1772 -91 
Q 1169 -91 856 284 
Q 544 659 544 1381 
z
M 1991 3584 
L 1991 3584 
z
" transform="scale(0.015625)"/>
     <path id="DejaVuSans-64" d="M 2906 2969 
L 2906 4863 
L 3481 4863 
L 3481 0 
L 2906 0 
L 2906 525 
Q 2725 213 2448 61 
Q 2172 -91 1784 -91 
Q 1150 -91 751 415 
Q 353 922 353 1747 
Q 353 2572 751 3078 
Q 1150 3584 1784 3584 
Q 2172 3584 2448 3432 
Q 2725 3281 2906 2969 
z
M 947 1747 
Q 947 1113 1208 752 
Q 1469 391 1925 391 
Q 2381 391 2643 752 
Q 2906 1113 2906 1747 
Q 2906 2381 2643 2742 
Q 2381 3103 1925 3103 
Q 1469 3103 1208 2742 
Q 947 2381 947 1747 
z
" transform="scale(0.015625)"/>
     <path id="DejaVuSans-25" d="M 4653 2053 
Q 4381 2053 4226 1822 
Q 4072 1591 4072 1178 
Q 4072 772 4226 539 
Q 4381 306 4653 306 
Q 4919 306 5073 539 
Q 5228 772 5228 1178 
Q 5228 1588 5073 1820 
Q 4919 2053 4653 2053 
z
M 4653 2450 
Q 5147 2450 5437 2106 
Q 5728 1763 5728 1178 
Q 5728 594 5436 251 
Q 5144 -91 4653 -91 
Q 4153 -91 3862 251 
Q 3572 594 3572 1178 
Q 3572 1766 3864 2108 
Q 4156 2450 4653 2450 
z
M 1428 4353 
Q 1159 4353 1004 4120 
Q 850 3888 850 3481 
Q 850 3069 1003 2837 
Q 1156 2606 1428 2606 
Q 1700 2606 1854 2837 
Q 2009 3069 2009 3481 
Q 2009 3884 1853 4118 
Q 1697 4353 1428 4353 
z
M 4250 4750 
L 4750 4750 
L 1831 -91 
L 1331 -91 
L 4250 4750 
z
M 1428 4750 
Q 1922 4750 2215 4408 
Q 2509 4066 2509 3481 
Q 2509 2891 2217 2550 
Q 1925 2209 1428 2209 
Q 931 2209 642 2551 
Q 353 2894 353 3481 
Q 353 4063 643 4406 
Q 934 4750 1428 4750 
z
" transform="scale(0.015625)"/>
     <path id="DejaVuSans-66" d="M 2375 4863 
L 2375 4384 
L 1825 4384 
Q 1516 4384 1395 4259 
Q 1275 4134 1275 3809 
L 1275 3500 
L 2222 3500 
L 2222 3053 
L 1275 3053 
L 1275 0 
L 697 0 
L 697 3053 
L 147 3053 
L 147 3500 
L 697 3500 
L 697 3744 
Q 697 4328 969 4595 
Q 1241 4863 1831 4863 
L 2375 4863 
z
" transform="scale(0.015625)"/>
     <path id="DejaVuSans-77" d="M 269 3500 
L 844 3500 
L 1563 769 
L 2278 3500 
L 2956 3500 
L 3675 769 
L 4391 3500 
L 4966 3500 
L 4050 0 
L 3372 0 
L 2619 2869 
L 1863 0 
L 1184 0 
L 269 3500 
z
" transform="scale(0.015625)"/>
     <path id="DejaVuSans-43" d="M 4122 4306 
L 4122 3641 
Q 3803 3938 3442 4084 
Q 3081 4231 2675 4231 
Q 1875 4231 1450 3742 
Q 1025 3253 1025 2328 
Q 1025 1406 1450 917 
Q 1875 428 2675 428 
Q 3081 428 3442 575 
Q 3803 722 4122 1019 
L 4122 359 
Q 3791 134 3420 21 
Q 3050 -91 2638 -91 
Q 1578 -91 968 557 
Q 359 1206 359 2328 
Q 359 3453 968 4101 
Q 1578 4750 2638 4750 
Q 3056 4750 3426 4639 
Q 3797 4528 4122 4306 
z
" transform="scale(0.015625)"/>
     <path id="DejaVuSans-56" d="M 1831 0 
L 50 4666 
L 709 4666 
L 2188 738 
L 3669 4666 
L 4325 4666 
L 2547 0 
L 1831 0 
z
" transform="scale(0.015625)"/>
     <path id="DejaVuSans-2d" d="M 313 2009 
L 1997 2009 
L 1997 1497 
L 313 1497 
L 313 2009 
z
" transform="scale(0.015625)"/>
    </defs>
    <use xlink:href="#DejaVuSans-53"/>
    <use xlink:href="#DejaVuSans-6f" transform="translate(63.476562 0)"/>
    <use xlink:href="#DejaVuSans-6e" transform="translate(124.658203 0)"/>
    <use xlink:href="#DejaVuSans-67" transform="translate(188.037109 0)"/>
    <use xlink:href="#DejaVuSans-20" transform="translate(251.513672 0)"/>
    <use xlink:href="#DejaVuSans-73" transform="translate(283.300781 0)"/>
    <use xlink:href="#DejaVuSans-6f" transform="translate(335.400391 0)"/>
    <use xlink:href="#DejaVuSans-6e" transform="translate(396.582031 0)"/>
    <use xlink:href="#DejaVuSans-67" transform="translate(459.960938 0)"/>
    <use xlink:href="#DejaVuSans-20" transform="translate(523.4375 0)"/>
    <use xlink:href="#DejaVuSans-68" transform="translate(555.224609 0)"/>
    <use xlink:href="#DejaVuSans-f3" transform="translate(618.603516 0)"/>
    <use xlink:href="#DejaVuSans-61" transform="translate(679.785156 0)"/>
    <use xlink:href="#DejaVuSans-20" transform="translate(741.064453 0)"/>
    <use xlink:href="#DejaVuSans-70" transform="translate(772.851562 0)"/>
    <use xlink:href="#DejaVuSans-68" transform="translate(836.328125 0)"/>
    <use xlink:href="#DejaVuSans-e2" transform="translate(899.707031 0)"/>
    <use xlink:href="#DejaVuSans-6e" transform="translate(960.986328 0)"/>
    <use xlink:href="#DejaVuSans-20" transform="translate(1024.365234 0)"/>
    <use xlink:href="#DejaVuSans-63" transform="translate(1056.152344 0)"/>
    <use xlink:href="#DejaVuSans-68" transform="translate(1111.132812 0)"/>
    <use xlink:href="#DejaVuSans-69" transform="translate(1174.511719 0)"/>
    <use xlink:href="#DejaVuSans-61" transform="translate(1202.294922 0)"/>
    <use xlink:href="#DejaVuSans-20" transform="translate(1263.574219 0)"/>
    <use xlink:href="#DejaVuSans-74" transform="translate(1295.361328 0)"/>
    <use xlink:href="#DejaVuSans-e1" transform="translate(1334.570312 0)"/>
    <use xlink:href="#DejaVuSans-63" transform="translate(1395.849609 0)"/>
    <use xlink:href="#DejaVuSans-20" transform="translate(1450.830078 0)"/>
    <use xlink:href="#DejaVuSans-76" transform="translate(1482.617188 0)"/>
    <use xlink:href="#DejaVuSans-1ee5" transform="translate(1541.796875 0)"/>
    <use xlink:href="#DejaVuSans-2c" transform="translate(1605.175781 0)"/>
    <use xlink:href="#DejaVuSans-20" transform="translate(1636.962891 0)"/>
    <use xlink:href="#DejaVuSans-67" transform="translate(1668.75 0)"/>
    <use xlink:href="#DejaVuSans-69" transform="translate(1732.226562 0)"/>
    <use xlink:href="#DejaVuSans-1ea3" transform="translate(1760.009766 0)"/>
    <use xlink:href="#DejaVuSans-6d" transform="translate(1821.289062 0)"/>
    <use xlink:href="#DejaVuSans-20" transform="translate(1918.701172 0)"/>
    <use xlink:href="#DejaVuSans-74" transform="translate(1950.488281 0)"/>
    <use xlink:href="#DejaVuSans-68" transform="translate(1989.697266 0)"/>
    <use xlink:href="#DejaVuSans-1edd" transform="translate(2053.076172 0)"/>
    <use xlink:href="#DejaVuSans-69" transform="translate(2114.257812 0)"/>
    <use xlink:href="#DejaVuSans-20" transform="translate(2142.041016 0)"/>
    <use xlink:href="#DejaVuSans-67" transform="translate(2173.828125 0)"/>
    <use xlink:href="#DejaVuSans-69" transform="translate(2237.304688 0)"/>
    <use xlink:href="#DejaVuSans-61" transform="translate(2265.087891 0)"/>
    <use xlink:href="#DejaVuSans-6e" transform="translate(2326.367188 0)"/>
    <use xlink:href="#DejaVuSans-20" transform="translate(2389.746094 0)"/>
    <use xlink:href="#DejaVuSans-78" transform="translate(2421.533203 0)"/>
    <use xlink:href="#DejaVuSans-1eed" transform="translate(2480.712891 0)"/>
    <use xlink:href="#DejaVuSans-20" transform="translate(2544.091797 0)"/>
    <use xlink:href="#DejaVuSans-6c" transform="translate(2575.878906 0)"/>
    <use xlink:href="#DejaVuSans-fd" transform="translate(2603.662109 0)"/>
    <use xlink:href="#DejaVuSans-20" transform="translate(2662.841797 0)"/>
    <use xlink:href="#DejaVuSans-111" transform="translate(2694.628906 0)"/>
    <use xlink:href="#DejaVuSans-e1" transform="translate(2758.105469 0)"/>
    <use xlink:href="#DejaVuSans-6e" transform="translate(2819.384766 0)"/>
    <use xlink:href="#DejaVuSans-67" transform="translate(2882.763672 0)"/>
    <use xlink:href="#DejaVuSans-20" transform="translate(2946.240234 0)"/>
    <use xlink:href="#DejaVuSans-6b" transform="translate(2978.027344 0)"/>
    <use xlink:href="#DejaVuSans-1ec3" transform="translate(3035.9375 0)"/>
    <use xlink:href="#DejaVuSans-20" transform="translate(3097.460938 0)"/>
    <use xlink:href="#DejaVuSans-76" transform="translate(3129.248047 0)"/>
    <use xlink:href="#DejaVuSans-e0" transform="translate(3188.427734 0)"/>
    <use xlink:href="#DejaVuSans-20" transform="translate(3249.707031 0)"/>
    <use xlink:href="#DejaVuSans-63" transform="translate(3281.494141 0)"/>
    <use xlink:href="#DejaVuSans-1ea3" transform="translate(3336.474609 0)"/>
    <use xlink:href="#DejaVuSans-69" transform="translate(3397.753906 0)"/>
    <use xlink:href="#DejaVuSans-20" transform="translate(3425.537109 0)"/>
    <use xlink:href="#DejaVuSans-74" transform="translate(3457.324219 0)"/>
    <use xlink:href="#DejaVuSans-68" transform="translate(3496.533203 0)"/>
    <use xlink:href="#DejaVuSans-69" transform="translate(3559.912109 0)"/>
    <use xlink:href="#DejaVuSans-1ec7" transform="translate(3587.695312 0)"/>
    <use xlink:href="#DejaVuSans-6e" transform="translate(3649.21875 0)"/>
    <use xlink:href="#DejaVuSans-20" transform="translate(3712.597656 0)"/>
    <use xlink:href="#DejaVuSans-74" transform="translate(3744.384766 0)"/>
    <use xlink:href="#DejaVuSans-68" transform="translate(3783.59375 0)"/>
    <use xlink:href="#DejaVuSans-f4" transform="translate(3846.972656 0)"/>
    <use xlink:href="#DejaVuSans-6e" transform="translate(3908.154297 0)"/>
    <use xlink:href="#DejaVuSans-67" transform="translate(3971.533203 0)"/>
    <use xlink:href="#DejaVuSans-20" transform="translate(4035.009766 0)"/>
    <use xlink:href="#DejaVuSans-6c" transform="translate(4066.796875 0)"/>
    <use xlink:href="#DejaVuSans-1b0" transform="translate(4094.580078 0)"/>
    <use xlink:href="#DejaVuSans-1ee3" transform="translate(4157.958984 0)"/>
    <use xlink:href="#DejaVuSans-6e" transform="translate(4219.140625 0)"/>
    <use xlink:href="#DejaVuSans-67" transform="translate(4282.519531 0)"/>
    <use xlink:href="#DejaVuSans-2e" transform="translate(4345.996094 0)"/>
    <use xlink:href="#DejaVuSans-20" transform="translate(4377.783203 0)"/>
    <use xlink:href="#DejaVuSans-22" transform="translate(4409.570312 0)"/>
    <use xlink:href="#DejaVuSans-53" transform="translate(4455.566406 0)"/>
    <use xlink:href="#DejaVuSans-6f" transform="translate(4519.042969 0)"/>
    <use xlink:href="#DejaVuSans-6e" transform="translate(4580.224609 0)"/>
    <use xlink:href="#DejaVuSans-67" transform="translate(4643.603516 0)"/>
    <use xlink:href="#DejaVuSans-20" transform="translate(4707.080078 0)"/>
    <use xlink:href="#DejaVuSans-73" transform="translate(4738.867188 0)"/>
    <use xlink:href="#DejaVuSans-6f" transform="translate(4790.966797 0)"/>
    <use xlink:href="#DejaVuSans-6e" transform="translate(4852.148438 0)"/>
    <use xlink:href="#DejaVuSans-67" transform="translate(4915.527344 0)"/>
    <use xlink:href="#DejaVuSans-22" transform="translate(4979.003906 0)"/>
    <use xlink:href="#DejaVuSans-20" transform="translate(5025 0)"/>
    <use xlink:href="#DejaVuSans-62" transform="translate(5056.787109 0)"/>
    <use xlink:href="#DejaVuSans-61" transform="translate(5120.263672 0)"/>
    <use xlink:href="#DejaVuSans-72" transform="translate(5181.542969 0)"/>
    <use xlink:href="#DejaVuSans-73" transform="translate(5222.65625 0)"/>
    <use xlink:href="#DejaVuSans-20" transform="translate(5274.755859 0)"/>
    <use xlink:href="#DejaVuSans-61" transform="translate(5306.542969 0)"/>
    <use xlink:href="#DejaVuSans-72" transform="translate(5367.822266 0)"/>
    <use xlink:href="#DejaVuSans-65" transform="translate(5406.685547 0)"/>
    <use xlink:href="#DejaVuSans-20" transform="translate(5468.208984 0)"/>
    <use xlink:href="#DejaVuSans-73" transform="translate(5499.996094 0)"/>
    <use xlink:href="#DejaVuSans-69" transform="translate(5552.095703 0)"/>
    <use xlink:href="#DejaVuSans-6d" transform="translate(5579.878906 0)"/>
    <use xlink:href="#DejaVuSans-75" transform="translate(5677.291016 0)"/>
    <use xlink:href="#DejaVuSans-6c" transform="translate(5740.669922 0)"/>
    <use xlink:href="#DejaVuSans-61" transform="translate(5768.453125 0)"/>
    <use xlink:href="#DejaVuSans-74" transform="translate(5829.732422 0)"/>
    <use xlink:href="#DejaVuSans-65" transform="translate(5868.941406 0)"/>
    <use xlink:href="#DejaVuSans-64" transform="translate(5930.464844 0)"/>
    <use xlink:href="#DejaVuSans-20" transform="translate(5993.941406 0)"/>
    <use xlink:href="#DejaVuSans-28" transform="translate(6025.728516 0)"/>
    <use xlink:href="#DejaVuSans-34" transform="translate(6064.742188 0)"/>
    <use xlink:href="#DejaVuSans-35" transform="translate(6128.365234 0)"/>
    <use xlink:href="#DejaVuSans-25" transform="translate(6191.988281 0)"/>
    <use xlink:href="#DejaVuSans-20" transform="translate(6287.007812 0)"/>
    <use xlink:href="#DejaVuSans-6f" transform="translate(6318.794922 0)"/>
    <use xlink:href="#DejaVuSans-66" transform="translate(6379.976562 0)"/>
    <use xlink:href="#DejaVuSans-20" transform="translate(6415.181641 0)"/>
    <use xlink:href="#DejaVuSans-6d" transform="translate(6446.96875 0)"/>
    <use xlink:href="#DejaVuSans-65" transform="translate(6544.380859 0)"/>
    <use xlink:href="#DejaVuSans-61" transform="translate(6605.904297 0)"/>
    <use xlink:href="#DejaVuSans-73" transform="translate(6667.183594 0)"/>
    <use xlink:href="#DejaVuSans-75" transform="translate(6719.283203 0)"/>
    <use xlink:href="#DejaVuSans-72" transform="translate(6782.662109 0)"/>
    <use xlink:href="#DejaVuSans-65" transform="translate(6821.525391 0)"/>
    <use xlink:href="#DejaVuSans-64" transform="translate(6883.048828 0)"/>
    <use xlink:href="#DejaVuSans-20" transform="translate(6946.525391 0)"/>
    <use xlink:href="#DejaVuSans-72" transform="translate(6978.3125 0)"/>
    <use xlink:href="#DejaVuSans-75" transform="translate(7019.425781 0)"/>
    <use xlink:href="#DejaVuSans-6e" transform="translate(7082.804688 0)"/>
    <use xlink:href="#DejaVuSans-74" transform="translate(7146.183594 0)"/>
    <use xlink:href="#DejaVuSans-69" transform="translate(7185.392578 0)"/>
    <use xlink:href="#DejaVuSans-6d" transform="translate(7213.175781 0)"/>
    <use xlink:href="#DejaVuSans-65" transform="translate(7310.587891 0)"/>
    <use xlink:href="#DejaVuSans-29" transform="translate(7372.111328 0)"/>
    <use xlink:href="#DejaVuSans-20" transform="translate(7411.125 0)"/>
    <use xlink:href="#DejaVuSans-77" transform="translate(7442.912109 0)"/>
    <use xlink:href="#DejaVuSans-68" transform="translate(7524.699219 0)"/>
    <use xlink:href="#DejaVuSans-65" transform="translate(7588.078125 0)"/>
    <use xlink:href="#DejaVuSans-6e" transform="translate(7649.601562 0)"/>
    <use xlink:href="#DejaVuSans-20" transform="translate(7712.980469 0)"/>
    <use xlink:href="#DejaVuSans-75" transform="translate(7744.767578 0)"/>
    <use xlink:href="#DejaVuSans-73" transform="translate(7808.146484 0)"/>
    <use xlink:href="#DejaVuSans-69" transform="translate(7860.246094 0)"/>
    <use xlink:href="#DejaVuSans-6e" transform="translate(7888.029297 0)"/>
    <use xlink:href="#DejaVuSans-67" transform="translate(7951.408203 0)"/>
    <use xlink:href="#DejaVuSans-20" transform="translate(8014.884766 0)"/>
    <use xlink:href="#DejaVuSans-43" transform="translate(8046.671875 0)"/>
    <use xlink:href="#DejaVuSans-53" transform="translate(8116.496094 0)"/>
    <use xlink:href="#DejaVuSans-56" transform="translate(8179.972656 0)"/>
    <use xlink:href="#DejaVuSans-2d" transform="translate(8242.505859 0)"/>
    <use xlink:href="#DejaVuSans-64" transform="translate(8278.589844 0)"/>
    <use xlink:href="#DejaVuSans-65" transform="translate(8342.066406 0)"/>
    <use xlink:href="#DejaVuSans-72" transform="translate(8403.589844 0)"/>
    <use xlink:href="#DejaVuSans-69" transform="translate(8444.703125 0)"/>
    <use xlink:href="#DejaVuSans-76" transform="translate(8472.486328 0)"/>
    <use xlink:href="#DejaVuSans-65" transform="translate(8531.666016 0)"/>
    <use xlink:href="#DejaVuSans-64" transform="translate(8593.189453 0)"/>
    <use xlink:href="#DejaVuSans-20" transform="translate(8656.666016 0)"/>
    <use xlink:href="#DejaVuSans-64" transform="translate(8688.453125 0)"/>
    <use xlink:href="#DejaVuSans-61" transform="translate(8751.929688 0)"/>
    <use xlink:href="#DejaVuSans-74" transform="translate(8813.208984 0)"/>
    <use xlink:href="#DejaVuSans-61" transform="translate(8852.417969 0)"/>
    <use xlink:href="#DejaVuSans-2e" transform="translate(8913.697266 0)"/>
   </g>
  </g>
  <g id="text_16">
   <!-- Song song hóa phân chia tác vụ, giảm thời gian xử lý đáng kể và cải thiện thông lượng. -->
   <g transform="translate(12.96 350.928281) scale(0.09 -0.09)">
    <use xlink:href="#DejaVuSans-53"/>
    <use xlink:href="#DejaVuSans-6f" transform="translate(63.476562 0)"/>
    <use xlink:href="#DejaVuSans-6e" transform="translate(124.658203 0)"/>
    <use xlink:href="#DejaVuSans-67" transform="translate(188.037109 0)"/>
    <use xlink:href="#DejaVuSans-20" transform="translate(251.513672 0)"/>
    <use xlink:href="#DejaVuSans-73" transform="translate(283.300781 0)"/>
    <use xlink:href="#DejaVuSans-6f" transform="translate(335.400391 0)"/>
    <use xlink:href="#DejaVuSans-6e" transform="translate(396.582031 0)"/>
    <use xlink:href="#DejaVuSans-67" transform="translate(459.960938 0)"/>
    <use xlink:href="#DejaVuSans-20" transform="translate(523.4375 0)"/>
    <use xlink:href="#DejaVuSans-68" transform="translate(555.224609 0)"/>
    <use xlink:href="#DejaVuSans-f3" transform="translate(618.603516 0)"/>
    <use xlink:href="#DejaVuSans-61" transform="translate(679.785156 0)"/>
    <use xlink:href="#DejaVuSans-20" transform="translate(741.064453 0)"/>
    <use xlink:href="#DejaVuSans-70" transform="translate(772.851562 0)"/>
    <use xlink:href="#DejaVuSans-68" transform="translate(836.328125 0)"/>
    <use xlink:href="#DejaVuSans-e2" transform="translate(899.707031 0)"/>
    <use xlink:href="#DejaVuSans-6e" transform="translate(960.986328 0)"/>
    <use xlink:href="#DejaVuSans-20" transform="translate(1024.365234 0)"/>
    <use xlink:href="#DejaVuSans-63" transform="translate(1056.152344 0)"/>
    <use xlink:href="#DejaVuSans-68" transform="translate(1111.132812 0)"/>
    <use xlink:href="#DejaVuSans-69" transform="translate(1174.511719 0)"/>
    <use xlink:href="#DejaVuSans-61" transform="translate(1202.294922 0)"/>
    <use xlink:href="#DejaVuSans-20" transform="translate(1263.574219 0)"/>
    <use xlink:href="#DejaVuSans-74" transform="translate(1295.361328 0)"/>
    <use xlink:href="#DejaVuSans-e1" transform="translate(1334.570312 0)"/>
    <use xlink:href="#DejaVuSans-63" transform="translate(1395.849609 0)"/>
    <use xlink:href="#DejaVuSans-20" transform="translate(1450.830078 0)"/>
    <use xlink:href="#DejaVuSans-76" transform="translate(1482.617188 0)"/>
    <use xlink:href="#DejaVuSans-1ee5" transform="translate(1541.796875 0)"/>
    <use xlink:href="#DejaVuSans-2c" transform="translate(1605.175781 0)"/>
    <use xlink:href="#DejaVuSans-20" transform="translate(1636.962891 0)"/>
    <use xlink:href="#DejaVuSans-67" transform="translate(1668.75 0)"/>
    <use xlink:href="#DejaVuSans-69" transform="translate(1732.226562 0)"/>
    <use xlink:href="#DejaVuSans-1ea3" transform="translate(1760.009766 0)"/>
    <use xlink:href="#DejaVuSans-6d" transform="translate(1821.289062 0)"/>
    <use xlink:href="#DejaVuSans-20" transform="translate(1918.701172 0)"/>
    <use xlink:href="#DejaVuSans-74" transform="translate(1950.488281 0)"/>
    <use xlink:href="#DejaVuSans-68" transform="translate(1989.697266 0)"/>
    <use xlink:href="#DejaVuSans-1edd" transform="translate(2053.076172 0)"/>
    <use xlink:href="#DejaVuSans-69" transform="translate(2114.257812 0)"/>
    <use xlink:href="#DejaVuSans-20" transform="translate(2142.041016 0)"/>
    <use xlink:href="#DejaVuSans-67" transform="translate(2173.828125 0)"/>
    <use xlink:href="#DejaVuSans-69" transform="translate(2237.304688 0)"/>
    <use xlink:href="#DejaVuSans-61" transform="translate(2265.087891 0)"/>
    <use xlink:href="#DejaVuSans-6e" transform="translate(2326.367188 0)"/>
    <use xlink:href="#DejaVuSans-20" transform="translate(2389.746094 0)"/>
    <use xlink:href="#DejaVuSans-78" transform="translate(2421.533203 0)"/>
    <use xlink:href="#DejaVuSans-1eed" transform="translate(2480.712891 0)"/>
    <use xlink:href="#DejaVuSans-20" transform="translate(2544.091797 0)"/>
    <use xlink:href="#DejaVuSans-6c" transform="translate(2575.878906 0)"/>
    <use xlink:href="#DejaVuSans-fd" transform="translate(2603.662109 0)"/>
    <use xlink:href="#DejaVuSans-20" transform="translate(2662.841797 0)"/>
    <use xlink:href="#DejaVuSans-111" transform="translate(2694.628906 0)"/>
    <use xlink:href="#DejaVuSans-e1" transform="translate(2758.105469 0)"/>
    <use xlink:href="#DejaVuSans-6e" transform="translate(2819.384766 0)"/>
    <use xlink:href="#DejaVuSans-67" transform="translate(2882.763672 0)"/>
    <use xlink:href="#DejaVuSans-20" transform="translate(2946.240234 0)"/>
    <use xlink:href="#DejaVuSans-6b" transform="translate(2978.027344 0)"/>
    <use xlink:href="#DejaVuSans-1ec3" transform="translate(3035.9375 0)"/>
    <use xlink:href="#DejaVuSans-20" transform="translate(3097.460938 0)"/>
    <use xlink:href="#DejaVuSans-76" transform="translate(3129.248047 0)"/>
    <use xlink:href="#DejaVuSans-e0" transform="translate(3188.427734 0)"/>
    <use xlink:href="#DejaVuSans-20" transform="translate(3249.707031 0)"/>
    <use xlink:href="#DejaVuSans-63" transform="translate(3281.494141 0)"/>
    <use xlink:href="#DejaVuSans-1ea3" transform="translate(3336.474609 0)"/>
    <use xlink:href="#DejaVuSans-69" transform="translate(3397.753906 0)"/>
    <use xlink:href="#DejaVuSans-20" transform="translate(3425.537109 0)"/>
    <use xlink:href="#DejaVuSans-74" transform="translate(3457.324219 0)"/>
    <use xlink:href="#DejaVuSans-68" transform="translate(3496.533203 0)"/>
    <use xlink:href="#DejaVuSans-69" transform="translate(3559.912109 0)"/>
    <use xlink:href="#DejaVuSans-1ec7" transform="translate(3587.695312 0)"/>
    <use xlink:href="#DejaVuSans-6e" transform="translate(3649.21875 0)"/>
    <use xlink:href="#DejaVuSans-20" transform="translate(3712.597656 0)"/>
    <use xlink:href="#DejaVuSans-74" transform="translate(3744.384766 0)"/>
    <use xlink:href="#DejaVuSans-68" transform="translate(3783.59375 0)"/>
    <use xlink:href="#DejaVuSans-f4" transform="translate(3846.972656 0)"/>
    <use xlink:href="#DejaVuSans-6e" transform="translate(3908.154297 0)"/>
    <use xlink:href="#DejaVuSans-67" transform="translate(3971.533203 0)"/>
    <use xlink:href="#DejaVuSans-20" transform="translate(4035.009766 0)"/>
    <use xlink:href="#DejaVuSans-6c" transform="translate(4066.796875 0)"/>
    <use xlink:href="#DejaVuSans-1b0" transform="translate(4094.580078 0)"/>
    <use xlink:href="#DejaVuSans-1ee3" transform="translate(4157.958984 0)"/>
    <use xlink:href="#DejaVuSans-6e" transform="translate(4219.140625 0)"/>
    <use xlink:href="#DejaVuSans-67" transform="translate(4282.519531 0)"/>
    <use xlink:href="#DejaVuSans-2e" transform="translate(4345.996094 0)"/>
   </g>
  </g>
 </g>
 <defs>
  <clipPath id="pf93331f6c8">
   <rect x="57.53" y="10.8" width="579.67" height="303.32"/>
  </clipPath>
 </defs>
</svg>
