<?xml version="1.0" encoding="utf-8" standalone="no"?>
<!DOCTYPE svg PUBLIC "-//W3C//DTD SVG 1.1//EN"
  "http://www.w3.org/Graphics/SVG/1.1/DTD/svg11.dtd">
<svg xmlns:xlink="http://www.w3.org/1999/xlink" width="468pt" height="201.6pt" viewBox="0 0 468 201.6" xmlns="http://www.w3.org/2000/svg" version="1.1">
 <metadata>
  <rdf:RDF xmlns:dc="http://purl.org/dc/elements/1.1/" xmlns:cc="http://creativecommons.org/ns#" xmlns:rdf="http://www.w3.org/1999/02/22-rdf-syntax-ns#">
   <cc:Work>
    <dc:type rdf:resource="http://purl.org/dc/dcmitype/StillImage"/>
    <dc:date>2025-11-21T04:03:11.162405</dc:date>
    <dc:format>image/svg+xml</dc:format>
    <dc:creator>
     <cc:Agent>
      <dc:title>Matplotlib v3.10.6, https://matplotlib.org/</dc:title>
     </cc:Agent>
    </dc:creator>
   </cc:Work>
  </rdf:RDF>
 </metadata>
 <defs>
  <style type="text/css">*{stroke-linejoin: round; stroke-linecap: butt}</style>
 </defs>
 <g id="figure_1">
  <g id="patch_1">
   <path d="M 0 201.6 
L 468 201.6 
L 468 0 
L 0 0 
z
" style="fill: #ffffff"/>
  </g>
  <g id="axes_1">
   <g id="patch_2">
    <path d="M 39.208 182.018667 
L 443.1245 182.018667 
L 443.1245 12.544 
L 39.208 12.544 
z
" style="fill: #ffffff"/>
   </g>
   <g id="matplotlib.axis_1">
    <g id="xtick_1">
     <g id="line2d_1">
      <path d="M 57.567841 182.018667 
L 57.567841 12.544 
" clip-path="url(#p7abd04d037)" style="fill: none; stroke: #b0b0b0; stroke-opacity: 0.25; stroke-width: 0.8; stroke-linecap: square"/>
     </g>
     <g id="line2d_2">
      <defs>
       <path id="m63faf4dc3d" d="M 0 0 
L 0 3.5 
" style="stroke: #000000; stroke-width: 0.8"/>
      </defs>
      <g>
       <use xlink:href="#m63faf4dc3d" x="57.567841" y="182.018667" style="stroke: #000000; stroke-width: 0.8"/>
      </g>
     </g>
     <g id="text_1">
      <!-- 0 -->
      <g transform="translate(55.022841 195.097417) scale(0.08 -0.08)">
       <defs>
        <path id="DejaVuSans-30" d="M 2034 4250 
Q 1547 4250 1301 3770 
Q 1056 3291 1056 2328 
Q 1056 1369 1301 889 
Q 1547 409 2034 409 
Q 2525 409 2770 889 
Q 3016 1369 3016 2328 
Q 3016 3291 2770 3770 
Q 2525 4250 2034 4250 
z
M 2034 4750 
Q 2819 4750 3233 4129 
Q 3647 3509 3647 2328 
Q 3647 1150 3233 529 
Q 2819 -91 2034 -91 
Q 1250 -91 836 529 
Q 422 1150 422 2328 
Q 422 3509 836 4129 
Q 1250 4750 2034 4750 
z
" transform="scale(0.015625)"/>
       </defs>
       <use xlink:href="#DejaVuSans-30"/>
      </g>
     </g>
    </g>
    <g id="xtick_2">
     <g id="line2d_3">
      <path d="M 119.281592 182.018667 
L 119.281592 12.544 
" clip-path="url(#p7abd04d037)" style="fill: none; stroke: #b0b0b0; stroke-opacity: 0.25; stroke-width: 0.8; stroke-linecap: square"/>
     </g>
     <g id="line2d_4">
      <g>
       <use xlink:href="#m63faf4dc3d" x="119.281592" y="182.018667" style="stroke: #000000; stroke-width: 0.8"/>
      </g>
     </g>
     <g id="text_2">
      <!-- 20 -->
      <g transform="translate(114.191592 195.097417) scale(0.08 -0.08)">
       <defs>
        <path id="DejaVuSans-32" d="M 1228 531 
L 3431 531 
L 3431 0 
L 469 0 
L 469 531 
Q 828 903 1448 1529 
Q 2069 2156 2228 2338 
Q 2531 2678 2651 2914 
Q 2772 3150 2772 3378 
Q 2772 3750 2511 3984 
Q 2250 4219 1831 4219 
Q 1534 4219 1204 4116 
Q 875 4013 500 3803 
L 500 4441 
Q 881 4594 1212 4672 
Q 1544 4750 1819 4750 
Q 2544 4750 2975 4387 
Q 3406 4025 3406 3419 
Q 3406 3131 3298 2873 
Q 3191 2616 2906 2266 
Q 2828 2175 2409 1742 
Q 1991 1309 1228 531 
z
" transform="scale(0.015625)"/>
       </defs>
       <use xlink:href="#DejaVuSans-32"/>
       <use xlink:href="#DejaVuSans-30" transform="translate(63.623047 0)"/>
      </g>
     </g>
    </g>
    <g id="xtick_3">
     <g id="line2d_5">
      <path d="M 180.995343 182.018667 
L 180.995343 12.544 
" clip-path="url(#p7abd04d037)" style="fill: none; stroke: #b0b0b0; stroke-opacity: 0.25; stroke-width: 0.8; stroke-linecap: square"/>
     </g>
     <g id="line2d_6">
      <g>
       <use xlink:href="#m63faf4dc3d" x="180.995343" y="182.018667" style="stroke: #000000; stroke-width: 0.8"/>
      </g>
     </g>
     <g id="text_3">
      <!-- 40 -->
      <g transform="translate(175.905343 195.097417) scale(0.08 -0.08)">
       <defs>
        <path id="DejaVuSans-34" d="M 2419 4116 
L 825 1625 
L 2419 1625 
L 2419 4116 
z
M 2253 4666 
L 3047 4666 
L 3047 1625 
L 3713 1625 
L 3713 1100 
L 3047 1100 
L 3047 0 
L 2419 0 
L 2419 1100 
L 313 1100 
L 313 1709 
L 2253 4666 
z
" transform="scale(0.015625)"/>
       </defs>
       <use xlink:href="#DejaVuSans-34"/>
       <use xlink:href="#DejaVuSans-30" transform="translate(63.623047 0)"/>
      </g>
     </g>
    </g>
    <g id="xtick_4">
     <g id="line2d_7">
      <path d="M 242.709094 182.018667 
L 242.709094 12.544 
" clip-path="url(#p7abd04d037)" style="fill: none; stroke: #b0b0b0; stroke-opacity: 0.25; stroke-width: 0.8; stroke-linecap: square"/>
     </g>
     <g id="line2d_8">
      <g>
       <use xlink:href="#m63faf4dc3d" x="242.709094" y="182.018667" style="stroke: #000000; stroke-width: 0.8"/>
      </g>
     </g>
     <g id="text_4">
      <!-- 60 -->
      <g transform="translate(237.619094 195.097417) scale(0.08 -0.08)">
       <defs>
        <path id="DejaVuSans-36" d="M 2113 2584 
Q 1688 2584 1439 2293 
Q 1191 2003 1191 1497 
Q 1191 994 1439 701 
Q 1688 409 2113 409 
Q 2538 409 2786 701 
Q 3034 994 3034 1497 
Q 3034 2003 2786 2293 
Q 2538 2584 2113 2584 
z
M 3366 4563 
L 3366 3988 
Q 3128 4100 2886 4159 
Q 2644 4219 2406 4219 
Q 1781 4219 1451 3797 
Q 1122 3375 1075 2522 
Q 1259 2794 1537 2939 
Q 1816 3084 2150 3084 
Q 2853 3084 3261 2657 
Q 3669 2231 3669 1497 
Q 3669 778 3244 343 
Q 2819 -91 2113 -91 
Q 1303 -91 875 529 
Q 447 1150 447 2328 
Q 447 3434 972 4092 
Q 1497 4750 2381 4750 
Q 2619 4750 2861 4703 
Q 3103 4656 3366 4563 
z
" transform="scale(0.015625)"/>
       </defs>
       <use xlink:href="#DejaVuSans-36"/>
       <use xlink:href="#DejaVuSans-30" transform="translate(63.623047 0)"/>
      </g>
     </g>
    </g>
    <g id="xtick_5">
     <g id="line2d_9">
      <path d="M 304.422845 182.018667 
L 304.422845 12.544 
" clip-path="url(#p7abd04d037)" style="fill: none; stroke: #b0b0b0; stroke-opacity: 0.25; stroke-width: 0.8; stroke-linecap: square"/>
     </g>
     <g id="line2d_10">
      <g>
       <use xlink:href="#m63faf4dc3d" x="304.422845" y="182.018667" style="stroke: #000000; stroke-width: 0.8"/>
      </g>
     </g>
     <g id="text_5">
      <!-- 80 -->
      <g transform="translate(299.332845 195.097417) scale(0.08 -0.08)">
       <defs>
        <path id="DejaVuSans-38" d="M 2034 2216 
Q 1584 2216 1326 1975 
Q 1069 1734 1069 1313 
Q 1069 891 1326 650 
Q 1584 409 2034 409 
Q 2484 409 2743 651 
Q 3003 894 3003 1313 
Q 3003 1734 2745 1975 
Q 2488 2216 2034 2216 
z
M 1403 2484 
Q 997 2584 770 2862 
Q 544 3141 544 3541 
Q 544 4100 942 4425 
Q 1341 4750 2034 4750 
Q 2731 4750 3128 4425 
Q 3525 4100 3525 3541 
Q 3525 3141 3298 2862 
Q 3072 2584 2669 2484 
Q 3125 2378 3379 2068 
Q 3634 1759 3634 1313 
Q 3634 634 3220 271 
Q 2806 -91 2034 -91 
Q 1263 -91 848 271 
Q 434 634 434 1313 
Q 434 1759 690 2068 
Q 947 2378 1403 2484 
z
M 1172 3481 
Q 1172 3119 1398 2916 
Q 1625 2713 2034 2713 
Q 2441 2713 2670 2916 
Q 2900 3119 2900 3481 
Q 2900 3844 2670 4047 
Q 2441 4250 2034 4250 
Q 1625 4250 1398 4047 
Q 1172 3844 1172 3481 
z
" transform="scale(0.015625)"/>
       </defs>
       <use xlink:href="#DejaVuSans-38"/>
       <use xlink:href="#DejaVuSans-30" transform="translate(63.623047 0)"/>
      </g>
     </g>
    </g>
    <g id="xtick_6">
     <g id="line2d_11">
      <path d="M 366.136596 182.018667 
L 366.136596 12.544 
" clip-path="url(#p7abd04d037)" style="fill: none; stroke: #b0b0b0; stroke-opacity: 0.25; stroke-width: 0.8; stroke-linecap: square"/>
     </g>
     <g id="line2d_12">
      <g>
       <use xlink:href="#m63faf4dc3d" x="366.136596" y="182.018667" style="stroke: #000000; stroke-width: 0.8"/>
      </g>
     </g>
     <g id="text_6">
      <!-- 100 -->
      <g transform="translate(358.501596 195.097417) scale(0.08 -0.08)">
       <defs>
        <path id="DejaVuSans-31" d="M 794 531 
L 1825 531 
L 1825 4091 
L 703 3866 
L 703 4441 
L 1819 4666 
L 2450 4666 
L 2450 531 
L 3481 531 
L 3481 0 
L 794 0 
L 794 531 
z
" transform="scale(0.015625)"/>
       </defs>
       <use xlink:href="#DejaVuSans-31"/>
       <use xlink:href="#DejaVuSans-30" transform="translate(63.623047 0)"/>
       <use xlink:href="#DejaVuSans-30" transform="translate(127.246094 0)"/>
      </g>
     </g>
    </g>
    <g id="xtick_7">
     <g id="line2d_13">
      <path d="M 427.850347 182.018667 
L 427.850347 12.544 
" clip-path="url(#p7abd04d037)" style="fill: none; stroke: #b0b0b0; stroke-opacity: 0.25; stroke-width: 0.8; stroke-linecap: square"/>
     </g>
     <g id="line2d_14">
      <g>
       <use xlink:href="#m63faf4dc3d" x="427.850347" y="182.018667" style="stroke: #000000; stroke-width: 0.8"/>
      </g>
     </g>
     <g id="text_7">
      <!-- 120 -->
      <g transform="translate(420.215347 195.097417) scale(0.08 -0.08)">
       <use xlink:href="#DejaVuSans-31"/>
       <use xlink:href="#DejaVuSans-32" transform="translate(63.623047 0)"/>
       <use xlink:href="#DejaVuSans-30" transform="translate(127.246094 0)"/>
      </g>
     </g>
    </g>
    <g id="text_8">
     <!-- Generation -->
     <g transform="translate(216.062578 207.59976) scale(0.09 -0.09)">
      <defs>
       <path id="DejaVuSans-47" d="M 3809 666 
L 3809 1919 
L 2778 1919 
L 2778 2438 
L 4434 2438 
L 4434 434 
Q 4069 175 3628 42 
Q 3188 -91 2688 -91 
Q 1594 -91 976 548 
Q 359 1188 359 2328 
Q 359 3472 976 4111 
Q 1594 4750 2688 4750 
Q 3144 4750 3555 4637 
Q 3966 4525 4313 4306 
L 4313 3634 
Q 3963 3931 3569 4081 
Q 3175 4231 2741 4231 
Q 1884 4231 1454 3753 
Q 1025 3275 1025 2328 
Q 1025 1384 1454 906 
Q 1884 428 2741 428 
Q 3075 428 3337 486 
Q 3600 544 3809 666 
z
" transform="scale(0.015625)"/>
       <path id="DejaVuSans-65" d="M 3597 1894 
L 3597 1613 
L 953 1613 
Q 991 1019 1311 708 
Q 1631 397 2203 397 
Q 2534 397 2845 478 
Q 3156 559 3463 722 
L 3463 178 
Q 3153 47 2828 -22 
Q 2503 -91 2169 -91 
Q 1331 -91 842 396 
Q 353 884 353 1716 
Q 353 2575 817 3079 
Q 1281 3584 2069 3584 
Q 2775 3584 3186 3129 
Q 3597 2675 3597 1894 
z
M 3022 2063 
Q 3016 2534 2758 2815 
Q 2500 3097 2075 3097 
Q 1594 3097 1305 2825 
Q 1016 2553 972 2059 
L 3022 2063 
z
" transform="scale(0.015625)"/>
       <path id="DejaVuSans-6e" d="M 3513 2113 
L 3513 0 
L 2938 0 
L 2938 2094 
Q 2938 2591 2744 2837 
Q 2550 3084 2163 3084 
Q 1697 3084 1428 2787 
Q 1159 2491 1159 1978 
L 1159 0 
L 581 0 
L 581 3500 
L 1159 3500 
L 1159 2956 
Q 1366 3272 1645 3428 
Q 1925 3584 2291 3584 
Q 2894 3584 3203 3211 
Q 3513 2838 3513 2113 
z
" transform="scale(0.015625)"/>
       <path id="DejaVuSans-72" d="M 2631 2963 
Q 2534 3019 2420 3045 
Q 2306 3072 2169 3072 
Q 1681 3072 1420 2755 
Q 1159 2438 1159 1844 
L 1159 0 
L 581 0 
L 581 3500 
L 1159 3500 
L 1159 2956 
Q 1341 3275 1631 3429 
Q 1922 3584 2338 3584 
Q 2397 3584 2469 3576 
Q 2541 3569 2628 3553 
L 2631 2963 
z
" transform="scale(0.015625)"/>
       <path id="DejaVuSans-61" d="M 2194 1759 
Q 1497 1759 1228 1600 
Q 959 1441 959 1056 
Q 959 750 1161 570 
Q 1363 391 1709 391 
Q 2188 391 2477 730 
Q 2766 1069 2766 1631 
L 2766 1759 
L 2194 1759 
z
M 3341 1997 
L 3341 0 
L 2766 0 
L 2766 531 
Q 2569 213 2275 61 
Q 1981 -91 1556 -91 
Q 1019 -91 701 211 
Q 384 513 384 1019 
Q 384 1609 779 1909 
Q 1175 2209 1959 2209 
L 2766 2209 
L 2766 2266 
Q 2766 2663 2505 2880 
Q 2244 3097 1772 3097 
Q 1472 3097 1187 3025 
Q 903 2953 641 2809 
L 641 3341 
Q 956 3463 1253 3523 
Q 1550 3584 1831 3584 
Q 2591 3584 2966 3190 
Q 3341 2797 3341 1997 
z
" transform="scale(0.015625)"/>
       <path id="DejaVuSans-74" d="M 1172 4494 
L 1172 3500 
L 2356 3500 
L 2356 3053 
L 1172 3053 
L 1172 1153 
Q 1172 725 1289 603 
Q 1406 481 1766 481 
L 2356 481 
L 2356 0 
L 1766 0 
Q 1100 0 847 248 
Q 594 497 594 1153 
L 594 3053 
L 172 3053 
L 172 3500 
L 594 3500 
L 594 4494 
L 1172 4494 
z
" transform="scale(0.015625)"/>
       <path id="DejaVuSans-69" d="M 603 3500 
L 1178 3500 
L 1178 0 
L 603 0 
L 603 3500 
z
M 603 4863 
L 1178 4863 
L 1178 4134 
L 603 4134 
L 603 4863 
z
" transform="scale(0.015625)"/>
       <path id="DejaVuSans-6f" d="M 1959 3097 
Q 1497 3097 1228 2736 
Q 959 2375 959 1747 
Q 959 1119 1226 758 
Q 1494 397 1959 397 
Q 2419 397 2687 759 
Q 2956 1122 2956 1747 
Q 2956 2369 2687 2733 
Q 2419 3097 1959 3097 
z
M 1959 3584 
Q 2709 3584 3137 3096 
Q 3566 2609 3566 1747 
Q 3566 888 3137 398 
Q 2709 -91 1959 -91 
Q 1206 -91 779 398 
Q 353 888 353 1747 
Q 353 2609 779 3096 
Q 1206 3584 1959 3584 
z
" transform="scale(0.015625)"/>
      </defs>
      <use xlink:href="#DejaVuSans-47"/>
      <use xlink:href="#DejaVuSans-65" transform="translate(77.490234 0)"/>
      <use xlink:href="#DejaVuSans-6e" transform="translate(139.013672 0)"/>
      <use xlink:href="#DejaVuSans-65" transform="translate(202.392578 0)"/>
      <use xlink:href="#DejaVuSans-72" transform="translate(263.916016 0)"/>
      <use xlink:href="#DejaVuSans-61" transform="translate(305.029297 0)"/>
      <use xlink:href="#DejaVuSans-74" transform="translate(366.308594 0)"/>
      <use xlink:href="#DejaVuSans-69" transform="translate(405.517578 0)"/>
      <use xlink:href="#DejaVuSans-6f" transform="translate(433.300781 0)"/>
      <use xlink:href="#DejaVuSans-6e" transform="translate(494.482422 0)"/>
     </g>
    </g>
   </g>
   <g id="matplotlib.axis_2">
    <g id="ytick_1">
     <g id="line2d_15">
      <path d="M 39.208 179.808379 
L 443.1245 179.808379 
" clip-path="url(#p7abd04d037)" style="fill: none; stroke: #b0b0b0; stroke-opacity: 0.25; stroke-width: 0.8; stroke-linecap: square"/>
     </g>
     <g id="line2d_16">
      <defs>
       <path id="m42a531d9f3" d="M 0 0 
L -3.5 0 
" style="stroke: #000000; stroke-width: 0.8"/>
      </defs>
      <g>
       <use xlink:href="#m42a531d9f3" x="39.208" y="179.808379" style="stroke: #000000; stroke-width: 0.8"/>
      </g>
     </g>
     <g id="text_9">
      <!-- 0.765 -->
      <g style="fill: #003f5c" transform="translate(9.3055 182.847754) scale(0.08 -0.08)">
       <defs>
        <path id="DejaVuSans-2e" d="M 684 794 
L 1344 794 
L 1344 0 
L 684 0 
L 684 794 
z
" transform="scale(0.015625)"/>
        <path id="DejaVuSans-37" d="M 525 4666 
L 3525 4666 
L 3525 4397 
L 1831 0 
L 1172 0 
L 2766 4134 
L 525 4134 
L 525 4666 
z
" transform="scale(0.015625)"/>
        <path id="DejaVuSans-35" d="M 691 4666 
L 3169 4666 
L 3169 4134 
L 1269 4134 
L 1269 2991 
Q 1406 3038 1543 3061 
Q 1681 3084 1819 3084 
Q 2600 3084 3056 2656 
Q 3513 2228 3513 1497 
Q 3513 744 3044 326 
Q 2575 -91 1722 -91 
Q 1428 -91 1123 -41 
Q 819 9 494 109 
L 494 744 
Q 775 591 1075 516 
Q 1375 441 1709 441 
Q 2250 441 2565 725 
Q 2881 1009 2881 1497 
Q 2881 1984 2565 2268 
Q 2250 2553 1709 2553 
Q 1456 2553 1204 2497 
Q 953 2441 691 2322 
L 691 4666 
z
" transform="scale(0.015625)"/>
       </defs>
       <use xlink:href="#DejaVuSans-30"/>
       <use xlink:href="#DejaVuSans-2e" transform="translate(63.623047 0)"/>
       <use xlink:href="#DejaVuSans-37" transform="translate(95.410156 0)"/>
       <use xlink:href="#DejaVuSans-36" transform="translate(159.033203 0)"/>
       <use xlink:href="#DejaVuSans-35" transform="translate(222.65625 0)"/>
      </g>
     </g>
    </g>
    <g id="ytick_2">
     <g id="line2d_17">
      <path d="M 39.208 156.174731 
L 443.1245 156.174731 
" clip-path="url(#p7abd04d037)" style="fill: none; stroke: #b0b0b0; stroke-opacity: 0.25; stroke-width: 0.8; stroke-linecap: square"/>
     </g>
     <g id="line2d_18">
      <g>
       <use xlink:href="#m42a531d9f3" x="39.208" y="156.174731" style="stroke: #000000; stroke-width: 0.8"/>
      </g>
     </g>
     <g id="text_10">
      <!-- 0.770 -->
      <g style="fill: #003f5c" transform="translate(9.3055 159.214106) scale(0.08 -0.08)">
       <use xlink:href="#DejaVuSans-30"/>
       <use xlink:href="#DejaVuSans-2e" transform="translate(63.623047 0)"/>
       <use xlink:href="#DejaVuSans-37" transform="translate(95.410156 0)"/>
       <use xlink:href="#DejaVuSans-37" transform="translate(159.033203 0)"/>
       <use xlink:href="#DejaVuSans-30" transform="translate(222.65625 0)"/>
      </g>
     </g>
    </g>
    <g id="ytick_3">
     <g id="line2d_19">
      <path d="M 39.208 132.541082 
L 443.1245 132.541082 
" clip-path="url(#p7abd04d037)" style="fill: none; stroke: #b0b0b0; stroke-opacity: 0.25; stroke-width: 0.8; stroke-linecap: square"/>
     </g>
     <g id="line2d_20">
      <g>
       <use xlink:href="#m42a531d9f3" x="39.208" y="132.541082" style="stroke: #000000; stroke-width: 0.8"/>
      </g>
     </g>
     <g id="text_11">
      <!-- 0.775 -->
      <g style="fill: #003f5c" transform="translate(9.3055 135.580457) scale(0.08 -0.08)">
       <use xlink:href="#DejaVuSans-30"/>
       <use xlink:href="#DejaVuSans-2e" transform="translate(63.623047 0)"/>
       <use xlink:href="#DejaVuSans-37" transform="translate(95.410156 0)"/>
       <use xlink:href="#DejaVuSans-37" transform="translate(159.033203 0)"/>
       <use xlink:href="#DejaVuSans-35" transform="translate(222.65625 0)"/>
      </g>
     </g>
    </g>
    <g id="ytick_4">
     <g id="line2d_21">
      <path d="M 39.208 108.907434 
L 443.1245 108.907434 
" clip-path="url(#p7abd04d037)" style="fill: none; stroke: #b0b0b0; stroke-opacity: 0.25; stroke-width: 0.8; stroke-linecap: square"/>
     </g>
     <g id="line2d_22">
      <g>
       <use xlink:href="#m42a531d9f3" x="39.208" y="108.907434" style="stroke: #000000; stroke-width: 0.8"/>
      </g>
     </g>
     <g id="text_12">
      <!-- 0.780 -->
      <g style="fill: #003f5c" transform="translate(9.3055 111.946809) scale(0.08 -0.08)">
       <use xlink:href="#DejaVuSans-30"/>
       <use xlink:href="#DejaVuSans-2e" transform="translate(63.623047 0)"/>
       <use xlink:href="#DejaVuSans-37" transform="translate(95.410156 0)"/>
       <use xlink:href="#DejaVuSans-38" transform="translate(159.033203 0)"/>
       <use xlink:href="#DejaVuSans-30" transform="translate(222.65625 0)"/>
      </g>
     </g>
    </g>
    <g id="ytick_5">
     <g id="line2d_23">
      <path d="M 39.208 85.273785 
L 443.1245 85.273785 
" clip-path="url(#p7abd04d037)" style="fill: none; stroke: #b0b0b0; stroke-opacity: 0.25; stroke-width: 0.8; stroke-linecap: square"/>
     </g>
     <g id="line2d_24">
      <g>
       <use xlink:href="#m42a531d9f3" x="39.208" y="85.273785" style="stroke: #000000; stroke-width: 0.8"/>
      </g>
     </g>
     <g id="text_13">
      <!-- 0.785 -->
      <g style="fill: #003f5c" transform="translate(9.3055 88.31316) scale(0.08 -0.08)">
       <use xlink:href="#DejaVuSans-30"/>
       <use xlink:href="#DejaVuSans-2e" transform="translate(63.623047 0)"/>
       <use xlink:href="#DejaVuSans-37" transform="translate(95.410156 0)"/>
       <use xlink:href="#DejaVuSans-38" transform="translate(159.033203 0)"/>
       <use xlink:href="#DejaVuSans-35" transform="translate(222.65625 0)"/>
      </g>
     </g>
    </g>
    <g id="ytick_6">
     <g id="line2d_25">
      <path d="M 39.208 61.640137 
L 443.1245 61.640137 
" clip-path="url(#p7abd04d037)" style="fill: none; stroke: #b0b0b0; stroke-opacity: 0.25; stroke-width: 0.8; stroke-linecap: square"/>
     </g>
     <g id="line2d_26">
      <g>
       <use xlink:href="#m42a531d9f3" x="39.208" y="61.640137" style="stroke: #000000; stroke-width: 0.8"/>
      </g>
     </g>
     <g id="text_14">
      <!-- 0.790 -->
      <g style="fill: #003f5c" transform="translate(9.3055 64.679512) scale(0.08 -0.08)">
       <defs>
        <path id="DejaVuSans-39" d="M 703 97 
L 703 672 
Q 941 559 1184 500 
Q 1428 441 1663 441 
Q 2288 441 2617 861 
Q 2947 1281 2994 2138 
Q 2813 1869 2534 1725 
Q 2256 1581 1919 1581 
Q 1219 1581 811 2004 
Q 403 2428 403 3163 
Q 403 3881 828 4315 
Q 1253 4750 1959 4750 
Q 2769 4750 3195 4129 
Q 3622 3509 3622 2328 
Q 3622 1225 3098 567 
Q 2575 -91 1691 -91 
Q 1453 -91 1209 -44 
Q 966 3 703 97 
z
M 1959 2075 
Q 2384 2075 2632 2365 
Q 2881 2656 2881 3163 
Q 2881 3666 2632 3958 
Q 2384 4250 1959 4250 
Q 1534 4250 1286 3958 
Q 1038 3666 1038 3163 
Q 1038 2656 1286 2365 
Q 1534 2075 1959 2075 
z
" transform="scale(0.015625)"/>
       </defs>
       <use xlink:href="#DejaVuSans-30"/>
       <use xlink:href="#DejaVuSans-2e" transform="translate(63.623047 0)"/>
       <use xlink:href="#DejaVuSans-37" transform="translate(95.410156 0)"/>
       <use xlink:href="#DejaVuSans-39" transform="translate(159.033203 0)"/>
       <use xlink:href="#DejaVuSans-30" transform="translate(222.65625 0)"/>
      </g>
     </g>
    </g>
    <g id="ytick_7">
     <g id="line2d_27">
      <path d="M 39.208 38.006489 
L 443.1245 38.006489 
" clip-path="url(#p7abd04d037)" style="fill: none; stroke: #b0b0b0; stroke-opacity: 0.25; stroke-width: 0.8; stroke-linecap: square"/>
     </g>
     <g id="line2d_28">
      <g>
       <use xlink:href="#m42a531d9f3" x="39.208" y="38.006489" style="stroke: #000000; stroke-width: 0.8"/>
      </g>
     </g>
     <g id="text_15">
      <!-- 0.795 -->
      <g style="fill: #003f5c" transform="translate(9.3055 41.045864) scale(0.08 -0.08)">
       <use xlink:href="#DejaVuSans-30"/>
       <use xlink:href="#DejaVuSans-2e" transform="translate(63.623047 0)"/>
       <use xlink:href="#DejaVuSans-37" transform="translate(95.410156 0)"/>
       <use xlink:href="#DejaVuSans-39" transform="translate(159.033203 0)"/>
       <use xlink:href="#DejaVuSans-35" transform="translate(222.65625 0)"/>
      </g>
     </g>
    </g>
    <g id="ytick_8">
     <g id="line2d_29">
      <path d="M 39.208 14.37284 
L 443.1245 14.37284 
" clip-path="url(#p7abd04d037)" style="fill: none; stroke: #b0b0b0; stroke-opacity: 0.25; stroke-width: 0.8; stroke-linecap: square"/>
     </g>
     <g id="line2d_30">
      <g>
       <use xlink:href="#m42a531d9f3" x="39.208" y="14.37284" style="stroke: #000000; stroke-width: 0.8"/>
      </g>
     </g>
     <g id="text_16">
      <!-- 0.800 -->
      <g style="fill: #003f5c" transform="translate(9.3055 17.412215) scale(0.08 -0.08)">
       <use xlink:href="#DejaVuSans-30"/>
       <use xlink:href="#DejaVuSans-2e" transform="translate(63.623047 0)"/>
       <use xlink:href="#DejaVuSans-38" transform="translate(95.410156 0)"/>
       <use xlink:href="#DejaVuSans-30" transform="translate(159.033203 0)"/>
       <use xlink:href="#DejaVuSans-30" transform="translate(222.65625 0)"/>
      </g>
     </g>
    </g>
    <g id="text_17">
     <!-- Best Fitness -->
     <g style="fill: #003f5c" transform="translate(3.433781 124.261646) rotate(-90) scale(0.09 -0.09)">
      <defs>
       <path id="DejaVuSans-42" d="M 1259 2228 
L 1259 519 
L 2272 519 
Q 2781 519 3026 730 
Q 3272 941 3272 1375 
Q 3272 1813 3026 2020 
Q 2781 2228 2272 2228 
L 1259 2228 
z
M 1259 4147 
L 1259 2741 
L 2194 2741 
Q 2656 2741 2882 2914 
Q 3109 3088 3109 3444 
Q 3109 3797 2882 3972 
Q 2656 4147 2194 4147 
L 1259 4147 
z
M 628 4666 
L 2241 4666 
Q 2963 4666 3353 4366 
Q 3744 4066 3744 3513 
Q 3744 3084 3544 2831 
Q 3344 2578 2956 2516 
Q 3422 2416 3680 2098 
Q 3938 1781 3938 1306 
Q 3938 681 3513 340 
Q 3088 0 2303 0 
L 628 0 
L 628 4666 
z
" transform="scale(0.015625)"/>
       <path id="DejaVuSans-73" d="M 2834 3397 
L 2834 2853 
Q 2591 2978 2328 3040 
Q 2066 3103 1784 3103 
Q 1356 3103 1142 2972 
Q 928 2841 928 2578 
Q 928 2378 1081 2264 
Q 1234 2150 1697 2047 
L 1894 2003 
Q 2506 1872 2764 1633 
Q 3022 1394 3022 966 
Q 3022 478 2636 193 
Q 2250 -91 1575 -91 
Q 1294 -91 989 -36 
Q 684 19 347 128 
L 347 722 
Q 666 556 975 473 
Q 1284 391 1588 391 
Q 1994 391 2212 530 
Q 2431 669 2431 922 
Q 2431 1156 2273 1281 
Q 2116 1406 1581 1522 
L 1381 1569 
Q 847 1681 609 1914 
Q 372 2147 372 2553 
Q 372 3047 722 3315 
Q 1072 3584 1716 3584 
Q 2034 3584 2315 3537 
Q 2597 3491 2834 3397 
z
" transform="scale(0.015625)"/>
       <path id="DejaVuSans-20" transform="scale(0.015625)"/>
       <path id="DejaVuSans-46" d="M 628 4666 
L 3309 4666 
L 3309 4134 
L 1259 4134 
L 1259 2759 
L 3109 2759 
L 3109 2228 
L 1259 2228 
L 1259 0 
L 628 0 
L 628 4666 
z
" transform="scale(0.015625)"/>
      </defs>
      <use xlink:href="#DejaVuSans-42"/>
      <use xlink:href="#DejaVuSans-65" transform="translate(68.603516 0)"/>
      <use xlink:href="#DejaVuSans-73" transform="translate(130.126953 0)"/>
      <use xlink:href="#DejaVuSans-74" transform="translate(182.226562 0)"/>
      <use xlink:href="#DejaVuSans-20" transform="translate(221.435547 0)"/>
      <use xlink:href="#DejaVuSans-46" transform="translate(253.222656 0)"/>
      <use xlink:href="#DejaVuSans-69" transform="translate(303.492188 0)"/>
      <use xlink:href="#DejaVuSans-74" transform="translate(331.275391 0)"/>
      <use xlink:href="#DejaVuSans-6e" transform="translate(370.484375 0)"/>
      <use xlink:href="#DejaVuSans-65" transform="translate(433.863281 0)"/>
      <use xlink:href="#DejaVuSans-73" transform="translate(495.386719 0)"/>
      <use xlink:href="#DejaVuSans-73" transform="translate(547.486328 0)"/>
     </g>
    </g>
   </g>
   <g id="line2d_31">
    <path d="M 57.567841 174.315273 
L 60.653528 121.258511 
L 63.739216 89.157163 
L 66.824904 77.93044 
L 69.910591 89.194563 
L 72.996279 83.232293 
L 76.081966 65.449245 
L 79.167654 88.908688 
L 82.253341 48.984993 
L 85.339029 53.008628 
L 88.424716 58.798149 
L 91.510404 50.867639 
L 94.596091 56.679664 
L 97.681779 89.256421 
L 100.767467 52.55975 
L 103.853154 43.575404 
L 106.938842 35.935378 
L 110.024529 34.69583 
L 113.110217 36.355792 
L 116.195904 37.197941 
L 119.281592 29.539237 
L 122.367279 38.577072 
L 125.452967 35.913197 
L 128.538655 30.741714 
L 131.624342 27.66834 
L 134.71003 30.549519 
L 137.795717 40.505925 
L 140.881405 27.944958 
L 143.967092 34.279019 
L 147.05278 28.498669 
L 150.138467 27.931873 
L 153.224155 30.351407 
L 156.309842 40.930728 
L 159.39553 28.61873 
L 162.481218 33.831425 
L 165.566905 25.945852 
L 168.652593 29.559165 
L 171.73828 27.524707 
L 174.823968 30.420336 
L 177.909655 29.356476 
L 180.995343 31.463184 
L 184.08103 27.866815 
L 187.166718 27.72437 
L 190.252405 27.853263 
L 193.338093 31.09498 
L 196.423781 24.416678 
L 199.509468 36.953717 
L 202.595156 29.298266 
L 205.680843 30.608192 
L 208.766531 25.550096 
L 211.852218 24.690706 
L 214.937906 29.466594 
L 218.023593 25.252545 
L 221.109281 30.771653 
L 224.194968 27.337219 
L 227.280656 25.713414 
L 230.366344 26.343645 
L 233.452031 24.416678 
L 236.537719 28.559886 
L 239.623406 24.358752 
L 242.709094 24.110503 
L 245.794781 28.803553 
L 248.880469 25.088731 
L 251.966156 24.890246 
L 255.051844 24.921541 
L 258.137532 26.906127 
L 261.223219 31.523937 
L 264.308907 31.371645 
L 267.394594 30.417162 
L 270.480282 29.412594 
L 273.565969 31.102151 
L 276.651657 27.466178 
L 279.737344 28.235151 
L 282.823032 27.960627 
L 285.908719 25.286171 
L 288.994407 26.901939 
L 292.080095 32.713034 
L 295.165782 30.131034 
L 298.25147 25.433649 
L 301.337157 29.373785 
L 304.422845 27.298157 
L 307.508532 29.662157 
L 310.59422 29.381015 
L 313.679907 26.337443 
L 316.765595 32.669811 
L 319.851282 29.483281 
L 322.93697 31.101136 
L 326.022658 28.10091 
L 329.108345 28.662182 
L 332.194033 28.566155 
L 335.27972 32.18529 
L 338.365408 29.374416 
L 341.451095 34.040075 
L 344.536783 31.123888 
L 347.62247 29.799874 
L 350.708158 31.156938 
L 353.793845 20.25233 
L 356.879533 20.247394 
L 359.965221 24.418493 
L 363.050908 26.687252 
L 366.136596 24.193593 
L 369.222283 23.528302 
L 372.307971 21.677441 
L 375.393658 22.484711 
L 378.479346 28.863976 
L 381.565033 21.033884 
L 384.650721 21.190527 
L 387.736409 28.152052 
L 390.822096 26.298729 
L 393.907784 23.88946 
L 396.993471 25.155007 
L 400.079159 24.142668 
L 403.164846 29.614455 
L 406.250534 26.00688 
L 409.336221 23.817447 
L 412.421909 26.94689 
L 415.507596 22.829054 
L 418.593284 23.225093 
L 421.678972 23.661363 
L 424.764659 24.718783 
" clip-path="url(#p7abd04d037)" style="fill: none; stroke: #003f5c; stroke-width: 2; stroke-linecap: square"/>
   </g>
   <g id="line2d_32">
    <defs>
     <path id="m10e179f91c" d="M 0 2.5 
C 0.663008 2.5 1.29895 2.236584 1.767767 1.767767 
C 2.236584 1.29895 2.5 0.663008 2.5 0 
C 2.5 -0.663008 2.236584 -1.29895 1.767767 -1.767767 
C 1.29895 -2.236584 0.663008 -2.5 0 -2.5 
C -0.663008 -2.5 -1.29895 -2.236584 -1.767767 -1.767767 
C -2.236584 -1.29895 -2.5 -0.663008 -2.5 0 
C -2.5 0.663008 -2.236584 1.29895 -1.767767 1.767767 
C -1.29895 2.236584 -0.663008 2.5 0 2.5 
z
" style="stroke: #003f5c"/>
    </defs>
    <g clip-path="url(#p7abd04d037)">
     <use xlink:href="#m10e179f91c" x="57.567841" y="174.315273" style="fill: #003f5c; stroke: #003f5c"/>
     <use xlink:href="#m10e179f91c" x="69.910591" y="89.194563" style="fill: #003f5c; stroke: #003f5c"/>
     <use xlink:href="#m10e179f91c" x="82.253341" y="48.984993" style="fill: #003f5c; stroke: #003f5c"/>
     <use xlink:href="#m10e179f91c" x="94.596091" y="56.679664" style="fill: #003f5c; stroke: #003f5c"/>
     <use xlink:href="#m10e179f91c" x="106.938842" y="35.935378" style="fill: #003f5c; stroke: #003f5c"/>
     <use xlink:href="#m10e179f91c" x="119.281592" y="29.539237" style="fill: #003f5c; stroke: #003f5c"/>
     <use xlink:href="#m10e179f91c" x="131.624342" y="27.66834" style="fill: #003f5c; stroke: #003f5c"/>
     <use xlink:href="#m10e179f91c" x="143.967092" y="34.279019" style="fill: #003f5c; stroke: #003f5c"/>
     <use xlink:href="#m10e179f91c" x="156.309842" y="40.930728" style="fill: #003f5c; stroke: #003f5c"/>
     <use xlink:href="#m10e179f91c" x="168.652593" y="29.559165" style="fill: #003f5c; stroke: #003f5c"/>
     <use xlink:href="#m10e179f91c" x="180.995343" y="31.463184" style="fill: #003f5c; stroke: #003f5c"/>
     <use xlink:href="#m10e179f91c" x="193.338093" y="31.09498" style="fill: #003f5c; stroke: #003f5c"/>
     <use xlink:href="#m10e179f91c" x="205.680843" y="30.608192" style="fill: #003f5c; stroke: #003f5c"/>
     <use xlink:href="#m10e179f91c" x="218.023593" y="25.252545" style="fill: #003f5c; stroke: #003f5c"/>
     <use xlink:href="#m10e179f91c" x="230.366344" y="26.343645" style="fill: #003f5c; stroke: #003f5c"/>
     <use xlink:href="#m10e179f91c" x="242.709094" y="24.110503" style="fill: #003f5c; stroke: #003f5c"/>
     <use xlink:href="#m10e179f91c" x="255.051844" y="24.921541" style="fill: #003f5c; stroke: #003f5c"/>
     <use xlink:href="#m10e179f91c" x="267.394594" y="30.417162" style="fill: #003f5c; stroke: #003f5c"/>
     <use xlink:href="#m10e179f91c" x="279.737344" y="28.235151" style="fill: #003f5c; stroke: #003f5c"/>
     <use xlink:href="#m10e179f91c" x="292.080095" y="32.713034" style="fill: #003f5c; stroke: #003f5c"/>
     <use xlink:href="#m10e179f91c" x="304.422845" y="27.298157" style="fill: #003f5c; stroke: #003f5c"/>
     <use xlink:href="#m10e179f91c" x="316.765595" y="32.669811" style="fill: #003f5c; stroke: #003f5c"/>
     <use xlink:href="#m10e179f91c" x="329.108345" y="28.662182" style="fill: #003f5c; stroke: #003f5c"/>
     <use xlink:href="#m10e179f91c" x="341.451095" y="34.040075" style="fill: #003f5c; stroke: #003f5c"/>
     <use xlink:href="#m10e179f91c" x="353.793845" y="20.25233" style="fill: #003f5c; stroke: #003f5c"/>
     <use xlink:href="#m10e179f91c" x="366.136596" y="24.193593" style="fill: #003f5c; stroke: #003f5c"/>
     <use xlink:href="#m10e179f91c" x="378.479346" y="28.863976" style="fill: #003f5c; stroke: #003f5c"/>
     <use xlink:href="#m10e179f91c" x="390.822096" y="26.298729" style="fill: #003f5c; stroke: #003f5c"/>
     <use xlink:href="#m10e179f91c" x="403.164846" y="29.614455" style="fill: #003f5c; stroke: #003f5c"/>
     <use xlink:href="#m10e179f91c" x="415.507596" y="22.829054" style="fill: #003f5c; stroke: #003f5c"/>
    </g>
   </g>
   <g id="patch_3">
    <path d="M 39.208 182.018667 
L 39.208 12.544 
" style="fill: none; stroke: #000000; stroke-width: 0.8; stroke-linejoin: miter; stroke-linecap: square"/>
   </g>
   <g id="patch_4">
    <path d="M 443.1245 182.018667 
L 443.1245 12.544 
" style="fill: none; stroke: #000000; stroke-width: 0.8; stroke-linejoin: miter; stroke-linecap: square"/>
   </g>
   <g id="patch_5">
    <path d="M 39.208 182.018667 
L 443.1245 182.018667 
" style="fill: none; stroke: #000000; stroke-width: 0.8; stroke-linejoin: miter; stroke-linecap: square"/>
   </g>
   <g id="patch_6">
    <path d="M 39.208 12.544 
L 443.1245 12.544 
" style="fill: none; stroke: #000000; stroke-width: 0.8; stroke-linejoin: miter; stroke-linecap: square"/>
   </g>
   <g id="legend_1">
    <g id="patch_7">
     <path d="M 45.508 46.164625 
L 159.418469 46.164625 
Q 161.218469 46.164625 161.218469 44.364625 
L 161.218469 18.844 
Q 161.218469 17.044 159.418469 17.044 
L 45.508 17.044 
Q 43.708 17.044 43.708 18.844 
L 43.708 44.364625 
Q 43.708 46.164625 45.508 46.164625 
z
" style="fill: #ffffff; opacity: 0.8; stroke: #cccccc; stroke-linejoin: miter"/>
    </g>
    <g id="line2d_33">
     <path d="M 47.308 24.332594 
L 56.308 24.332594 
L 65.308 24.332594 
" style="fill: none; stroke: #003f5c; stroke-width: 2; stroke-linecap: square"/>
    </g>
    <g id="text_18">
     <!-- Best Fitness -->
     <g transform="translate(72.508 27.482594) scale(0.09 -0.09)">
      <use xlink:href="#DejaVuSans-42"/>
      <use xlink:href="#DejaVuSans-65" transform="translate(68.603516 0)"/>
      <use xlink:href="#DejaVuSans-73" transform="translate(130.126953 0)"/>
      <use xlink:href="#DejaVuSans-74" transform="translate(182.226562 0)"/>
      <use xlink:href="#DejaVuSans-20" transform="translate(221.435547 0)"/>
      <use xlink:href="#DejaVuSans-46" transform="translate(253.222656 0)"/>
      <use xlink:href="#DejaVuSans-69" transform="translate(303.492188 0)"/>
      <use xlink:href="#DejaVuSans-74" transform="translate(331.275391 0)"/>
      <use xlink:href="#DejaVuSans-6e" transform="translate(370.484375 0)"/>
      <use xlink:href="#DejaVuSans-65" transform="translate(433.863281 0)"/>
      <use xlink:href="#DejaVuSans-73" transform="translate(495.386719 0)"/>
      <use xlink:href="#DejaVuSans-73" transform="translate(547.486328 0)"/>
     </g>
    </g>
    <g id="line2d_34">
     <path d="M 47.308 37.542906 
L 56.308 37.542906 
L 65.308 37.542906 
" style="fill: none; stroke-dasharray: 7.4,3.2; stroke-dashoffset: 0; stroke: #bc5090; stroke-width: 2"/>
     <defs>
      <path id="m7b3014c1ba" d="M -2.5 2.5 
L 2.5 2.5 
L 2.5 -2.5 
L -2.5 -2.5 
z
" style="stroke: #bc5090; stroke-linejoin: miter"/>
     </defs>
     <g>
      <use xlink:href="#m7b3014c1ba" x="56.308" y="37.542906" style="fill: #bc5090; stroke: #bc5090; stroke-linejoin: miter"/>
     </g>
    </g>
    <g id="text_19">
     <!-- Total Soft Penalties -->
     <g transform="translate(72.508 40.692906) scale(0.09 -0.09)">
      <defs>
       <path id="DejaVuSans-54" d="M -19 4666 
L 3928 4666 
L 3928 4134 
L 2272 4134 
L 2272 0 
L 1638 0 
L 1638 4134 
L -19 4134 
L -19 4666 
z
" transform="scale(0.015625)"/>
       <path id="DejaVuSans-6c" d="M 603 4863 
L 1178 4863 
L 1178 0 
L 603 0 
L 603 4863 
z
" transform="scale(0.015625)"/>
       <path id="DejaVuSans-53" d="M 3425 4513 
L 3425 3897 
Q 3066 4069 2747 4153 
Q 2428 4238 2131 4238 
Q 1616 4238 1336 4038 
Q 1056 3838 1056 3469 
Q 1056 3159 1242 3001 
Q 1428 2844 1947 2747 
L 2328 2669 
Q 3034 2534 3370 2195 
Q 3706 1856 3706 1288 
Q 3706 609 3251 259 
Q 2797 -91 1919 -91 
Q 1588 -91 1214 -16 
Q 841 59 441 206 
L 441 856 
Q 825 641 1194 531 
Q 1563 422 1919 422 
Q 2459 422 2753 634 
Q 3047 847 3047 1241 
Q 3047 1584 2836 1778 
Q 2625 1972 2144 2069 
L 1759 2144 
Q 1053 2284 737 2584 
Q 422 2884 422 3419 
Q 422 4038 858 4394 
Q 1294 4750 2059 4750 
Q 2388 4750 2728 4690 
Q 3069 4631 3425 4513 
z
" transform="scale(0.015625)"/>
       <path id="DejaVuSans-66" d="M 2375 4863 
L 2375 4384 
L 1825 4384 
Q 1516 4384 1395 4259 
Q 1275 4134 1275 3809 
L 1275 3500 
L 2222 3500 
L 2222 3053 
L 1275 3053 
L 1275 0 
L 697 0 
L 697 3053 
L 147 3053 
L 147 3500 
L 697 3500 
L 697 3744 
Q 697 4328 969 4595 
Q 1241 4863 1831 4863 
L 2375 4863 
z
" transform="scale(0.015625)"/>
       <path id="DejaVuSans-50" d="M 1259 4147 
L 1259 2394 
L 2053 2394 
Q 2494 2394 2734 2622 
Q 2975 2850 2975 3272 
Q 2975 3691 2734 3919 
Q 2494 4147 2053 4147 
L 1259 4147 
z
M 628 4666 
L 2053 4666 
Q 2838 4666 3239 4311 
Q 3641 3956 3641 3272 
Q 3641 2581 3239 2228 
Q 2838 1875 2053 1875 
L 1259 1875 
L 1259 0 
L 628 0 
L 628 4666 
z
" transform="scale(0.015625)"/>
      </defs>
      <use xlink:href="#DejaVuSans-54"/>
      <use xlink:href="#DejaVuSans-6f" transform="translate(44.083984 0)"/>
      <use xlink:href="#DejaVuSans-74" transform="translate(105.265625 0)"/>
      <use xlink:href="#DejaVuSans-61" transform="translate(144.474609 0)"/>
      <use xlink:href="#DejaVuSans-6c" transform="translate(205.753906 0)"/>
      <use xlink:href="#DejaVuSans-20" transform="translate(233.537109 0)"/>
      <use xlink:href="#DejaVuSans-53" transform="translate(265.324219 0)"/>
      <use xlink:href="#DejaVuSans-6f" transform="translate(328.800781 0)"/>
      <use xlink:href="#DejaVuSans-66" transform="translate(389.982422 0)"/>
      <use xlink:href="#DejaVuSans-74" transform="translate(423.4375 0)"/>
      <use xlink:href="#DejaVuSans-20" transform="translate(462.646484 0)"/>
      <use xlink:href="#DejaVuSans-50" transform="translate(494.433594 0)"/>
      <use xlink:href="#DejaVuSans-65" transform="translate(551.111328 0)"/>
      <use xlink:href="#DejaVuSans-6e" transform="translate(612.634766 0)"/>
      <use xlink:href="#DejaVuSans-61" transform="translate(676.013672 0)"/>
      <use xlink:href="#DejaVuSans-6c" transform="translate(737.292969 0)"/>
      <use xlink:href="#DejaVuSans-74" transform="translate(765.076172 0)"/>
      <use xlink:href="#DejaVuSans-69" transform="translate(804.285156 0)"/>
      <use xlink:href="#DejaVuSans-65" transform="translate(832.068359 0)"/>
      <use xlink:href="#DejaVuSans-73" transform="translate(893.591797 0)"/>
     </g>
    </g>
   </g>
  </g>
  <g id="axes_2">
   <g id="matplotlib.axis_3">
    <g id="ytick_9">
     <g id="line2d_35">
      <defs>
       <path id="m3886b2f4e8" d="M 0 0 
L 3.5 0 
" style="stroke: #000000; stroke-width: 0.8"/>
      </defs>
      <g>
       <use xlink:href="#m3886b2f4e8" x="443.1245" y="182.018667" style="stroke: #000000; stroke-width: 0.8"/>
      </g>
     </g>
     <g id="text_20">
      <!-- 0 -->
      <g style="fill: #bc5090" transform="translate(450.1245 185.058042) scale(0.08 -0.08)">
       <use xlink:href="#DejaVuSans-30"/>
      </g>
     </g>
    </g>
    <g id="ytick_10">
     <g id="line2d_36">
      <g>
       <use xlink:href="#m3886b2f4e8" x="443.1245" y="12.544" style="stroke: #000000; stroke-width: 0.8"/>
      </g>
     </g>
     <g id="text_21">
      <!-- 1 -->
      <g style="fill: #bc5090" transform="translate(450.1245 15.583375) scale(0.08 -0.08)">
       <use xlink:href="#DejaVuSans-31"/>
      </g>
     </g>
    </g>
    <g id="text_22">
     <!-- Total Soft Penalties (count) -->
     <g style="fill: #bc5090" transform="translate(466.053094 157.473755) rotate(-90) scale(0.09 -0.09)">
      <defs>
       <path id="DejaVuSans-28" d="M 1984 4856 
Q 1566 4138 1362 3434 
Q 1159 2731 1159 2009 
Q 1159 1288 1364 580 
Q 1569 -128 1984 -844 
L 1484 -844 
Q 1016 -109 783 600 
Q 550 1309 550 2009 
Q 550 2706 781 3412 
Q 1013 4119 1484 4856 
L 1984 4856 
z
" transform="scale(0.015625)"/>
       <path id="DejaVuSans-63" d="M 3122 3366 
L 3122 2828 
Q 2878 2963 2633 3030 
Q 2388 3097 2138 3097 
Q 1578 3097 1268 2742 
Q 959 2388 959 1747 
Q 959 1106 1268 751 
Q 1578 397 2138 397 
Q 2388 397 2633 464 
Q 2878 531 3122 666 
L 3122 134 
Q 2881 22 2623 -34 
Q 2366 -91 2075 -91 
Q 1284 -91 818 406 
Q 353 903 353 1747 
Q 353 2603 823 3093 
Q 1294 3584 2113 3584 
Q 2378 3584 2631 3529 
Q 2884 3475 3122 3366 
z
" transform="scale(0.015625)"/>
       <path id="DejaVuSans-75" d="M 544 1381 
L 544 3500 
L 1119 3500 
L 1119 1403 
Q 1119 906 1312 657 
Q 1506 409 1894 409 
Q 2359 409 2629 706 
Q 2900 1003 2900 1516 
L 2900 3500 
L 3475 3500 
L 3475 0 
L 2900 0 
L 2900 538 
Q 2691 219 2414 64 
Q 2138 -91 1772 -91 
Q 1169 -91 856 284 
Q 544 659 544 1381 
z
M 1991 3584 
L 1991 3584 
z
" transform="scale(0.015625)"/>
       <path id="DejaVuSans-29" d="M 513 4856 
L 1013 4856 
Q 1481 4119 1714 3412 
Q 1947 2706 1947 2009 
Q 1947 1309 1714 600 
Q 1481 -109 1013 -844 
L 513 -844 
Q 928 -128 1133 580 
Q 1338 1288 1338 2009 
Q 1338 2731 1133 3434 
Q 928 4138 513 4856 
z
" transform="scale(0.015625)"/>
      </defs>
      <use xlink:href="#DejaVuSans-54"/>
      <use xlink:href="#DejaVuSans-6f" transform="translate(44.083984 0)"/>
      <use xlink:href="#DejaVuSans-74" transform="translate(105.265625 0)"/>
      <use xlink:href="#DejaVuSans-61" transform="translate(144.474609 0)"/>
      <use xlink:href="#DejaVuSans-6c" transform="translate(205.753906 0)"/>
      <use xlink:href="#DejaVuSans-20" transform="translate(233.537109 0)"/>
      <use xlink:href="#DejaVuSans-53" transform="translate(265.324219 0)"/>
      <use xlink:href="#DejaVuSans-6f" transform="translate(328.800781 0)"/>
      <use xlink:href="#DejaVuSans-66" transform="translate(389.982422 0)"/>
      <use xlink:href="#DejaVuSans-74" transform="translate(423.4375 0)"/>
      <use xlink:href="#DejaVuSans-20" transform="translate(462.646484 0)"/>
      <use xlink:href="#DejaVuSans-50" transform="translate(494.433594 0)"/>
      <use xlink:href="#DejaVuSans-65" transform="translate(551.111328 0)"/>
      <use xlink:href="#DejaVuSans-6e" transform="translate(612.634766 0)"/>
      <use xlink:href="#DejaVuSans-61" transform="translate(676.013672 0)"/>
      <use xlink:href="#DejaVuSans-6c" transform="translate(737.292969 0)"/>
      <use xlink:href="#DejaVuSans-74" transform="translate(765.076172 0)"/>
      <use xlink:href="#DejaVuSans-69" transform="translate(804.285156 0)"/>
      <use xlink:href="#DejaVuSans-65" transform="translate(832.068359 0)"/>
      <use xlink:href="#DejaVuSans-73" transform="translate(893.591797 0)"/>
      <use xlink:href="#DejaVuSans-20" transform="translate(945.691406 0)"/>
      <use xlink:href="#DejaVuSans-28" transform="translate(977.478516 0)"/>
      <use xlink:href="#DejaVuSans-63" transform="translate(1016.492188 0)"/>
      <use xlink:href="#DejaVuSans-6f" transform="translate(1071.472656 0)"/>
      <use xlink:href="#DejaVuSans-75" transform="translate(1132.654297 0)"/>
      <use xlink:href="#DejaVuSans-6e" transform="translate(1196.033203 0)"/>
      <use xlink:href="#DejaVuSans-74" transform="translate(1259.412109 0)"/>
      <use xlink:href="#DejaVuSans-29" transform="translate(1298.621094 0)"/>
     </g>
    </g>
   </g>
   <g id="line2d_37">
    <path d="M 57.567841 182.018667 
L 60.653528 182.018667 
L 63.739216 182.018667 
L 66.824904 182.018667 
L 69.910591 182.018667 
L 72.996279 182.018667 
L 76.081966 182.018667 
L 79.167654 182.018667 
L 82.253341 182.018667 
L 85.339029 182.018667 
L 88.424716 182.018667 
L 91.510404 182.018667 
L 94.596091 182.018667 
L 97.681779 182.018667 
L 100.767467 182.018667 
L 103.853154 182.018667 
L 106.938842 182.018667 
L 110.024529 182.018667 
L 113.110217 182.018667 
L 116.195904 182.018667 
L 119.281592 182.018667 
L 122.367279 182.018667 
L 125.452967 182.018667 
L 128.538655 182.018667 
L 131.624342 182.018667 
L 134.71003 182.018667 
L 137.795717 182.018667 
L 140.881405 182.018667 
L 143.967092 182.018667 
L 147.05278 182.018667 
L 150.138467 182.018667 
L 153.224155 182.018667 
L 156.309842 182.018667 
L 159.39553 182.018667 
L 162.481218 182.018667 
L 165.566905 182.018667 
L 168.652593 182.018667 
L 171.73828 182.018667 
L 174.823968 182.018667 
L 177.909655 182.018667 
L 180.995343 182.018667 
L 184.08103 182.018667 
L 187.166718 182.018667 
L 190.252405 182.018667 
L 193.338093 182.018667 
L 196.423781 182.018667 
L 199.509468 182.018667 
L 202.595156 182.018667 
L 205.680843 182.018667 
L 208.766531 182.018667 
L 211.852218 182.018667 
L 214.937906 182.018667 
L 218.023593 182.018667 
L 221.109281 182.018667 
L 224.194968 182.018667 
L 227.280656 182.018667 
L 230.366344 182.018667 
L 233.452031 182.018667 
L 236.537719 182.018667 
L 239.623406 182.018667 
L 242.709094 182.018667 
L 245.794781 182.018667 
L 248.880469 182.018667 
L 251.966156 182.018667 
L 255.051844 182.018667 
L 258.137532 182.018667 
L 261.223219 182.018667 
L 264.308907 182.018667 
L 267.394594 182.018667 
L 270.480282 182.018667 
L 273.565969 182.018667 
L 276.651657 182.018667 
L 279.737344 182.018667 
L 282.823032 182.018667 
L 285.908719 182.018667 
L 288.994407 182.018667 
L 292.080095 182.018667 
L 295.165782 182.018667 
L 298.25147 182.018667 
L 301.337157 182.018667 
L 304.422845 182.018667 
L 307.508532 182.018667 
L 310.59422 182.018667 
L 313.679907 182.018667 
L 316.765595 182.018667 
L 319.851282 182.018667 
L 322.93697 182.018667 
L 326.022658 182.018667 
L 329.108345 182.018667 
L 332.194033 182.018667 
L 335.27972 182.018667 
L 338.365408 182.018667 
L 341.451095 182.018667 
L 344.536783 182.018667 
L 347.62247 182.018667 
L 350.708158 182.018667 
L 353.793845 182.018667 
L 356.879533 182.018667 
L 359.965221 182.018667 
L 363.050908 182.018667 
L 366.136596 182.018667 
L 369.222283 182.018667 
L 372.307971 182.018667 
L 375.393658 182.018667 
L 378.479346 182.018667 
L 381.565033 182.018667 
L 384.650721 182.018667 
L 387.736409 182.018667 
L 390.822096 182.018667 
L 393.907784 182.018667 
L 396.993471 182.018667 
L 400.079159 182.018667 
L 403.164846 182.018667 
L 406.250534 182.018667 
L 409.336221 182.018667 
L 412.421909 182.018667 
L 415.507596 182.018667 
L 418.593284 182.018667 
L 421.678972 182.018667 
L 424.764659 182.018667 
" clip-path="url(#p7abd04d037)" style="fill: none; stroke-dasharray: 7.4,3.2; stroke-dashoffset: 0; stroke: #bc5090; stroke-width: 2"/>
    <g clip-path="url(#p7abd04d037)">
     <use xlink:href="#m7b3014c1ba" x="57.567841" y="182.018667" style="fill: #bc5090; stroke: #bc5090; stroke-linejoin: miter"/>
     <use xlink:href="#m7b3014c1ba" x="60.653528" y="182.018667" style="fill: #bc5090; stroke: #bc5090; stroke-linejoin: miter"/>
     <use xlink:href="#m7b3014c1ba" x="63.739216" y="182.018667" style="fill: #bc5090; stroke: #bc5090; stroke-linejoin: miter"/>
     <use xlink:href="#m7b3014c1ba" x="66.824904" y="182.018667" style="fill: #bc5090; stroke: #bc5090; stroke-linejoin: miter"/>
     <use xlink:href="#m7b3014c1ba" x="69.910591" y="182.018667" style="fill: #bc5090; stroke: #bc5090; stroke-linejoin: miter"/>
     <use xlink:href="#m7b3014c1ba" x="72.996279" y="182.018667" style="fill: #bc5090; stroke: #bc5090; stroke-linejoin: miter"/>
     <use xlink:href="#m7b3014c1ba" x="76.081966" y="182.018667" style="fill: #bc5090; stroke: #bc5090; stroke-linejoin: miter"/>
     <use xlink:href="#m7b3014c1ba" x="79.167654" y="182.018667" style="fill: #bc5090; stroke: #bc5090; stroke-linejoin: miter"/>
     <use xlink:href="#m7b3014c1ba" x="82.253341" y="182.018667" style="fill: #bc5090; stroke: #bc5090; stroke-linejoin: miter"/>
     <use xlink:href="#m7b3014c1ba" x="85.339029" y="182.018667" style="fill: #bc5090; stroke: #bc5090; stroke-linejoin: miter"/>
     <use xlink:href="#m7b3014c1ba" x="88.424716" y="182.018667" style="fill: #bc5090; stroke: #bc5090; stroke-linejoin: miter"/>
     <use xlink:href="#m7b3014c1ba" x="91.510404" y="182.018667" style="fill: #bc5090; stroke: #bc5090; stroke-linejoin: miter"/>
     <use xlink:href="#m7b3014c1ba" x="94.596091" y="182.018667" style="fill: #bc5090; stroke: #bc5090; stroke-linejoin: miter"/>
     <use xlink:href="#m7b3014c1ba" x="97.681779" y="182.018667" style="fill: #bc5090; stroke: #bc5090; stroke-linejoin: miter"/>
     <use xlink:href="#m7b3014c1ba" x="100.767467" y="182.018667" style="fill: #bc5090; stroke: #bc5090; stroke-linejoin: miter"/>
     <use xlink:href="#m7b3014c1ba" x="103.853154" y="182.018667" style="fill: #bc5090; stroke: #bc5090; stroke-linejoin: miter"/>
     <use xlink:href="#m7b3014c1ba" x="106.938842" y="182.018667" style="fill: #bc5090; stroke: #bc5090; stroke-linejoin: miter"/>
     <use xlink:href="#m7b3014c1ba" x="110.024529" y="182.018667" style="fill: #bc5090; stroke: #bc5090; stroke-linejoin: miter"/>
     <use xlink:href="#m7b3014c1ba" x="113.110217" y="182.018667" style="fill: #bc5090; stroke: #bc5090; stroke-linejoin: miter"/>
     <use xlink:href="#m7b3014c1ba" x="116.195904" y="182.018667" style="fill: #bc5090; stroke: #bc5090; stroke-linejoin: miter"/>
     <use xlink:href="#m7b3014c1ba" x="119.281592" y="182.018667" style="fill: #bc5090; stroke: #bc5090; stroke-linejoin: miter"/>
     <use xlink:href="#m7b3014c1ba" x="122.367279" y="182.018667" style="fill: #bc5090; stroke: #bc5090; stroke-linejoin: miter"/>
     <use xlink:href="#m7b3014c1ba" x="125.452967" y="182.018667" style="fill: #bc5090; stroke: #bc5090; stroke-linejoin: miter"/>
     <use xlink:href="#m7b3014c1ba" x="128.538655" y="182.018667" style="fill: #bc5090; stroke: #bc5090; stroke-linejoin: miter"/>
     <use xlink:href="#m7b3014c1ba" x="131.624342" y="182.018667" style="fill: #bc5090; stroke: #bc5090; stroke-linejoin: miter"/>
     <use xlink:href="#m7b3014c1ba" x="134.71003" y="182.018667" style="fill: #bc5090; stroke: #bc5090; stroke-linejoin: miter"/>
     <use xlink:href="#m7b3014c1ba" x="137.795717" y="182.018667" style="fill: #bc5090; stroke: #bc5090; stroke-linejoin: miter"/>
     <use xlink:href="#m7b3014c1ba" x="140.881405" y="182.018667" style="fill: #bc5090; stroke: #bc5090; stroke-linejoin: miter"/>
     <use xlink:href="#m7b3014c1ba" x="143.967092" y="182.018667" style="fill: #bc5090; stroke: #bc5090; stroke-linejoin: miter"/>
     <use xlink:href="#m7b3014c1ba" x="147.05278" y="182.018667" style="fill: #bc5090; stroke: #bc5090; stroke-linejoin: miter"/>
     <use xlink:href="#m7b3014c1ba" x="150.138467" y="182.018667" style="fill: #bc5090; stroke: #bc5090; stroke-linejoin: miter"/>
     <use xlink:href="#m7b3014c1ba" x="153.224155" y="182.018667" style="fill: #bc5090; stroke: #bc5090; stroke-linejoin: miter"/>
     <use xlink:href="#m7b3014c1ba" x="156.309842" y="182.018667" style="fill: #bc5090; stroke: #bc5090; stroke-linejoin: miter"/>
     <use xlink:href="#m7b3014c1ba" x="159.39553" y="182.018667" style="fill: #bc5090; stroke: #bc5090; stroke-linejoin: miter"/>
     <use xlink:href="#m7b3014c1ba" x="162.481218" y="182.018667" style="fill: #bc5090; stroke: #bc5090; stroke-linejoin: miter"/>
     <use xlink:href="#m7b3014c1ba" x="165.566905" y="182.018667" style="fill: #bc5090; stroke: #bc5090; stroke-linejoin: miter"/>
     <use xlink:href="#m7b3014c1ba" x="168.652593" y="182.018667" style="fill: #bc5090; stroke: #bc5090; stroke-linejoin: miter"/>
     <use xlink:href="#m7b3014c1ba" x="171.73828" y="182.018667" style="fill: #bc5090; stroke: #bc5090; stroke-linejoin: miter"/>
     <use xlink:href="#m7b3014c1ba" x="174.823968" y="182.018667" style="fill: #bc5090; stroke: #bc5090; stroke-linejoin: miter"/>
     <use xlink:href="#m7b3014c1ba" x="177.909655" y="182.018667" style="fill: #bc5090; stroke: #bc5090; stroke-linejoin: miter"/>
     <use xlink:href="#m7b3014c1ba" x="180.995343" y="182.018667" style="fill: #bc5090; stroke: #bc5090; stroke-linejoin: miter"/>
     <use xlink:href="#m7b3014c1ba" x="184.08103" y="182.018667" style="fill: #bc5090; stroke: #bc5090; stroke-linejoin: miter"/>
     <use xlink:href="#m7b3014c1ba" x="187.166718" y="182.018667" style="fill: #bc5090; stroke: #bc5090; stroke-linejoin: miter"/>
     <use xlink:href="#m7b3014c1ba" x="190.252405" y="182.018667" style="fill: #bc5090; stroke: #bc5090; stroke-linejoin: miter"/>
     <use xlink:href="#m7b3014c1ba" x="193.338093" y="182.018667" style="fill: #bc5090; stroke: #bc5090; stroke-linejoin: miter"/>
     <use xlink:href="#m7b3014c1ba" x="196.423781" y="182.018667" style="fill: #bc5090; stroke: #bc5090; stroke-linejoin: miter"/>
     <use xlink:href="#m7b3014c1ba" x="199.509468" y="182.018667" style="fill: #bc5090; stroke: #bc5090; stroke-linejoin: miter"/>
     <use xlink:href="#m7b3014c1ba" x="202.595156" y="182.018667" style="fill: #bc5090; stroke: #bc5090; stroke-linejoin: miter"/>
     <use xlink:href="#m7b3014c1ba" x="205.680843" y="182.018667" style="fill: #bc5090; stroke: #bc5090; stroke-linejoin: miter"/>
     <use xlink:href="#m7b3014c1ba" x="208.766531" y="182.018667" style="fill: #bc5090; stroke: #bc5090; stroke-linejoin: miter"/>
     <use xlink:href="#m7b3014c1ba" x="211.852218" y="182.018667" style="fill: #bc5090; stroke: #bc5090; stroke-linejoin: miter"/>
     <use xlink:href="#m7b3014c1ba" x="214.937906" y="182.018667" style="fill: #bc5090; stroke: #bc5090; stroke-linejoin: miter"/>
     <use xlink:href="#m7b3014c1ba" x="218.023593" y="182.018667" style="fill: #bc5090; stroke: #bc5090; stroke-linejoin: miter"/>
     <use xlink:href="#m7b3014c1ba" x="221.109281" y="182.018667" style="fill: #bc5090; stroke: #bc5090; stroke-linejoin: miter"/>
     <use xlink:href="#m7b3014c1ba" x="224.194968" y="182.018667" style="fill: #bc5090; stroke: #bc5090; stroke-linejoin: miter"/>
     <use xlink:href="#m7b3014c1ba" x="227.280656" y="182.018667" style="fill: #bc5090; stroke: #bc5090; stroke-linejoin: miter"/>
     <use xlink:href="#m7b3014c1ba" x="230.366344" y="182.018667" style="fill: #bc5090; stroke: #bc5090; stroke-linejoin: miter"/>
     <use xlink:href="#m7b3014c1ba" x="233.452031" y="182.018667" style="fill: #bc5090; stroke: #bc5090; stroke-linejoin: miter"/>
     <use xlink:href="#m7b3014c1ba" x="236.537719" y="182.018667" style="fill: #bc5090; stroke: #bc5090; stroke-linejoin: miter"/>
     <use xlink:href="#m7b3014c1ba" x="239.623406" y="182.018667" style="fill: #bc5090; stroke: #bc5090; stroke-linejoin: miter"/>
     <use xlink:href="#m7b3014c1ba" x="242.709094" y="182.018667" style="fill: #bc5090; stroke: #bc5090; stroke-linejoin: miter"/>
     <use xlink:href="#m7b3014c1ba" x="245.794781" y="182.018667" style="fill: #bc5090; stroke: #bc5090; stroke-linejoin: miter"/>
     <use xlink:href="#m7b3014c1ba" x="248.880469" y="182.018667" style="fill: #bc5090; stroke: #bc5090; stroke-linejoin: miter"/>
     <use xlink:href="#m7b3014c1ba" x="251.966156" y="182.018667" style="fill: #bc5090; stroke: #bc5090; stroke-linejoin: miter"/>
     <use xlink:href="#m7b3014c1ba" x="255.051844" y="182.018667" style="fill: #bc5090; stroke: #bc5090; stroke-linejoin: miter"/>
     <use xlink:href="#m7b3014c1ba" x="258.137532" y="182.018667" style="fill: #bc5090; stroke: #bc5090; stroke-linejoin: miter"/>
     <use xlink:href="#m7b3014c1ba" x="261.223219" y="182.018667" style="fill: #bc5090; stroke: #bc5090; stroke-linejoin: miter"/>
     <use xlink:href="#m7b3014c1ba" x="264.308907" y="182.018667" style="fill: #bc5090; stroke: #bc5090; stroke-linejoin: miter"/>
     <use xlink:href="#m7b3014c1ba" x="267.394594" y="182.018667" style="fill: #bc5090; stroke: #bc5090; stroke-linejoin: miter"/>
     <use xlink:href="#m7b3014c1ba" x="270.480282" y="182.018667" style="fill: #bc5090; stroke: #bc5090; stroke-linejoin: miter"/>
     <use xlink:href="#m7b3014c1ba" x="273.565969" y="182.018667" style="fill: #bc5090; stroke: #bc5090; stroke-linejoin: miter"/>
     <use xlink:href="#m7b3014c1ba" x="276.651657" y="182.018667" style="fill: #bc5090; stroke: #bc5090; stroke-linejoin: miter"/>
     <use xlink:href="#m7b3014c1ba" x="279.737344" y="182.018667" style="fill: #bc5090; stroke: #bc5090; stroke-linejoin: miter"/>
     <use xlink:href="#m7b3014c1ba" x="282.823032" y="182.018667" style="fill: #bc5090; stroke: #bc5090; stroke-linejoin: miter"/>
     <use xlink:href="#m7b3014c1ba" x="285.908719" y="182.018667" style="fill: #bc5090; stroke: #bc5090; stroke-linejoin: miter"/>
     <use xlink:href="#m7b3014c1ba" x="288.994407" y="182.018667" style="fill: #bc5090; stroke: #bc5090; stroke-linejoin: miter"/>
     <use xlink:href="#m7b3014c1ba" x="292.080095" y="182.018667" style="fill: #bc5090; stroke: #bc5090; stroke-linejoin: miter"/>
     <use xlink:href="#m7b3014c1ba" x="295.165782" y="182.018667" style="fill: #bc5090; stroke: #bc5090; stroke-linejoin: miter"/>
     <use xlink:href="#m7b3014c1ba" x="298.25147" y="182.018667" style="fill: #bc5090; stroke: #bc5090; stroke-linejoin: miter"/>
     <use xlink:href="#m7b3014c1ba" x="301.337157" y="182.018667" style="fill: #bc5090; stroke: #bc5090; stroke-linejoin: miter"/>
     <use xlink:href="#m7b3014c1ba" x="304.422845" y="182.018667" style="fill: #bc5090; stroke: #bc5090; stroke-linejoin: miter"/>
     <use xlink:href="#m7b3014c1ba" x="307.508532" y="182.018667" style="fill: #bc5090; stroke: #bc5090; stroke-linejoin: miter"/>
     <use xlink:href="#m7b3014c1ba" x="310.59422" y="182.018667" style="fill: #bc5090; stroke: #bc5090; stroke-linejoin: miter"/>
     <use xlink:href="#m7b3014c1ba" x="313.679907" y="182.018667" style="fill: #bc5090; stroke: #bc5090; stroke-linejoin: miter"/>
     <use xlink:href="#m7b3014c1ba" x="316.765595" y="182.018667" style="fill: #bc5090; stroke: #bc5090; stroke-linejoin: miter"/>
     <use xlink:href="#m7b3014c1ba" x="319.851282" y="182.018667" style="fill: #bc5090; stroke: #bc5090; stroke-linejoin: miter"/>
     <use xlink:href="#m7b3014c1ba" x="322.93697" y="182.018667" style="fill: #bc5090; stroke: #bc5090; stroke-linejoin: miter"/>
     <use xlink:href="#m7b3014c1ba" x="326.022658" y="182.018667" style="fill: #bc5090; stroke: #bc5090; stroke-linejoin: miter"/>
     <use xlink:href="#m7b3014c1ba" x="329.108345" y="182.018667" style="fill: #bc5090; stroke: #bc5090; stroke-linejoin: miter"/>
     <use xlink:href="#m7b3014c1ba" x="332.194033" y="182.018667" style="fill: #bc5090; stroke: #bc5090; stroke-linejoin: miter"/>
     <use xlink:href="#m7b3014c1ba" x="335.27972" y="182.018667" style="fill: #bc5090; stroke: #bc5090; stroke-linejoin: miter"/>
     <use xlink:href="#m7b3014c1ba" x="338.365408" y="182.018667" style="fill: #bc5090; stroke: #bc5090; stroke-linejoin: miter"/>
     <use xlink:href="#m7b3014c1ba" x="341.451095" y="182.018667" style="fill: #bc5090; stroke: #bc5090; stroke-linejoin: miter"/>
     <use xlink:href="#m7b3014c1ba" x="344.536783" y="182.018667" style="fill: #bc5090; stroke: #bc5090; stroke-linejoin: miter"/>
     <use xlink:href="#m7b3014c1ba" x="347.62247" y="182.018667" style="fill: #bc5090; stroke: #bc5090; stroke-linejoin: miter"/>
     <use xlink:href="#m7b3014c1ba" x="350.708158" y="182.018667" style="fill: #bc5090; stroke: #bc5090; stroke-linejoin: miter"/>
     <use xlink:href="#m7b3014c1ba" x="353.793845" y="182.018667" style="fill: #bc5090; stroke: #bc5090; stroke-linejoin: miter"/>
     <use xlink:href="#m7b3014c1ba" x="356.879533" y="182.018667" style="fill: #bc5090; stroke: #bc5090; stroke-linejoin: miter"/>
     <use xlink:href="#m7b3014c1ba" x="359.965221" y="182.018667" style="fill: #bc5090; stroke: #bc5090; stroke-linejoin: miter"/>
     <use xlink:href="#m7b3014c1ba" x="363.050908" y="182.018667" style="fill: #bc5090; stroke: #bc5090; stroke-linejoin: miter"/>
     <use xlink:href="#m7b3014c1ba" x="366.136596" y="182.018667" style="fill: #bc5090; stroke: #bc5090; stroke-linejoin: miter"/>
     <use xlink:href="#m7b3014c1ba" x="369.222283" y="182.018667" style="fill: #bc5090; stroke: #bc5090; stroke-linejoin: miter"/>
     <use xlink:href="#m7b3014c1ba" x="372.307971" y="182.018667" style="fill: #bc5090; stroke: #bc5090; stroke-linejoin: miter"/>
     <use xlink:href="#m7b3014c1ba" x="375.393658" y="182.018667" style="fill: #bc5090; stroke: #bc5090; stroke-linejoin: miter"/>
     <use xlink:href="#m7b3014c1ba" x="378.479346" y="182.018667" style="fill: #bc5090; stroke: #bc5090; stroke-linejoin: miter"/>
     <use xlink:href="#m7b3014c1ba" x="381.565033" y="182.018667" style="fill: #bc5090; stroke: #bc5090; stroke-linejoin: miter"/>
     <use xlink:href="#m7b3014c1ba" x="384.650721" y="182.018667" style="fill: #bc5090; stroke: #bc5090; stroke-linejoin: miter"/>
     <use xlink:href="#m7b3014c1ba" x="387.736409" y="182.018667" style="fill: #bc5090; stroke: #bc5090; stroke-linejoin: miter"/>
     <use xlink:href="#m7b3014c1ba" x="390.822096" y="182.018667" style="fill: #bc5090; stroke: #bc5090; stroke-linejoin: miter"/>
     <use xlink:href="#m7b3014c1ba" x="393.907784" y="182.018667" style="fill: #bc5090; stroke: #bc5090; stroke-linejoin: miter"/>
     <use xlink:href="#m7b3014c1ba" x="396.993471" y="182.018667" style="fill: #bc5090; stroke: #bc5090; stroke-linejoin: miter"/>
     <use xlink:href="#m7b3014c1ba" x="400.079159" y="182.018667" style="fill: #bc5090; stroke: #bc5090; stroke-linejoin: miter"/>
     <use xlink:href="#m7b3014c1ba" x="403.164846" y="182.018667" style="fill: #bc5090; stroke: #bc5090; stroke-linejoin: miter"/>
     <use xlink:href="#m7b3014c1ba" x="406.250534" y="182.018667" style="fill: #bc5090; stroke: #bc5090; stroke-linejoin: miter"/>
     <use xlink:href="#m7b3014c1ba" x="409.336221" y="182.018667" style="fill: #bc5090; stroke: #bc5090; stroke-linejoin: miter"/>
     <use xlink:href="#m7b3014c1ba" x="412.421909" y="182.018667" style="fill: #bc5090; stroke: #bc5090; stroke-linejoin: miter"/>
     <use xlink:href="#m7b3014c1ba" x="415.507596" y="182.018667" style="fill: #bc5090; stroke: #bc5090; stroke-linejoin: miter"/>
     <use xlink:href="#m7b3014c1ba" x="418.593284" y="182.018667" style="fill: #bc5090; stroke: #bc5090; stroke-linejoin: miter"/>
     <use xlink:href="#m7b3014c1ba" x="421.678972" y="182.018667" style="fill: #bc5090; stroke: #bc5090; stroke-linejoin: miter"/>
     <use xlink:href="#m7b3014c1ba" x="424.764659" y="182.018667" style="fill: #bc5090; stroke: #bc5090; stroke-linejoin: miter"/>
    </g>
   </g>
   <g id="patch_8">
    <path d="M 39.208 182.018667 
L 39.208 12.544 
" style="fill: none; stroke: #000000; stroke-width: 0.8; stroke-linejoin: miter; stroke-linecap: square"/>
   </g>
   <g id="patch_9">
    <path d="M 443.1245 182.018667 
L 443.1245 12.544 
" style="fill: none; stroke: #000000; stroke-width: 0.8; stroke-linejoin: miter; stroke-linecap: square"/>
   </g>
   <g id="patch_10">
    <path d="M 39.208 182.018667 
L 443.1245 182.018667 
" style="fill: none; stroke: #000000; stroke-width: 0.8; stroke-linejoin: miter; stroke-linecap: square"/>
   </g>
   <g id="patch_11">
    <path d="M 39.208 12.544 
L 443.1245 12.544 
" style="fill: none; stroke: #000000; stroke-width: 0.8; stroke-linejoin: miter; stroke-linecap: square"/>
   </g>
   <g id="text_23">
    <!-- Convergence Dynamics: Optimization vs. Constraints -->
    <g transform="translate(81.171562 6.544) scale(0.12 -0.12)">
     <defs>
      <path id="DejaVuSans-43" d="M 4122 4306 
L 4122 3641 
Q 3803 3938 3442 4084 
Q 3081 4231 2675 4231 
Q 1875 4231 1450 3742 
Q 1025 3253 1025 2328 
Q 1025 1406 1450 917 
Q 1875 428 2675 428 
Q 3081 428 3442 575 
Q 3803 722 4122 1019 
L 4122 359 
Q 3791 134 3420 21 
Q 3050 -91 2638 -91 
Q 1578 -91 968 557 
Q 359 1206 359 2328 
Q 359 3453 968 4101 
Q 1578 4750 2638 4750 
Q 3056 4750 3426 4639 
Q 3797 4528 4122 4306 
z
" transform="scale(0.015625)"/>
      <path id="DejaVuSans-76" d="M 191 3500 
L 800 3500 
L 1894 563 
L 2988 3500 
L 3597 3500 
L 2284 0 
L 1503 0 
L 191 3500 
z
" transform="scale(0.015625)"/>
      <path id="DejaVuSans-67" d="M 2906 1791 
Q 2906 2416 2648 2759 
Q 2391 3103 1925 3103 
Q 1463 3103 1205 2759 
Q 947 2416 947 1791 
Q 947 1169 1205 825 
Q 1463 481 1925 481 
Q 2391 481 2648 825 
Q 2906 1169 2906 1791 
z
M 3481 434 
Q 3481 -459 3084 -895 
Q 2688 -1331 1869 -1331 
Q 1566 -1331 1297 -1286 
Q 1028 -1241 775 -1147 
L 775 -588 
Q 1028 -725 1275 -790 
Q 1522 -856 1778 -856 
Q 2344 -856 2625 -561 
Q 2906 -266 2906 331 
L 2906 616 
Q 2728 306 2450 153 
Q 2172 0 1784 0 
Q 1141 0 747 490 
Q 353 981 353 1791 
Q 353 2603 747 3093 
Q 1141 3584 1784 3584 
Q 2172 3584 2450 3431 
Q 2728 3278 2906 2969 
L 2906 3500 
L 3481 3500 
L 3481 434 
z
" transform="scale(0.015625)"/>
      <path id="DejaVuSans-44" d="M 1259 4147 
L 1259 519 
L 2022 519 
Q 2988 519 3436 956 
Q 3884 1394 3884 2338 
Q 3884 3275 3436 3711 
Q 2988 4147 2022 4147 
L 1259 4147 
z
M 628 4666 
L 1925 4666 
Q 3281 4666 3915 4102 
Q 4550 3538 4550 2338 
Q 4550 1131 3912 565 
Q 3275 0 1925 0 
L 628 0 
L 628 4666 
z
" transform="scale(0.015625)"/>
      <path id="DejaVuSans-79" d="M 2059 -325 
Q 1816 -950 1584 -1140 
Q 1353 -1331 966 -1331 
L 506 -1331 
L 506 -850 
L 844 -850 
Q 1081 -850 1212 -737 
Q 1344 -625 1503 -206 
L 1606 56 
L 191 3500 
L 800 3500 
L 1894 763 
L 2988 3500 
L 3597 3500 
L 2059 -325 
z
" transform="scale(0.015625)"/>
      <path id="DejaVuSans-6d" d="M 3328 2828 
Q 3544 3216 3844 3400 
Q 4144 3584 4550 3584 
Q 5097 3584 5394 3201 
Q 5691 2819 5691 2113 
L 5691 0 
L 5113 0 
L 5113 2094 
Q 5113 2597 4934 2840 
Q 4756 3084 4391 3084 
Q 3944 3084 3684 2787 
Q 3425 2491 3425 1978 
L 3425 0 
L 2847 0 
L 2847 2094 
Q 2847 2600 2669 2842 
Q 2491 3084 2119 3084 
Q 1678 3084 1418 2786 
Q 1159 2488 1159 1978 
L 1159 0 
L 581 0 
L 581 3500 
L 1159 3500 
L 1159 2956 
Q 1356 3278 1631 3431 
Q 1906 3584 2284 3584 
Q 2666 3584 2933 3390 
Q 3200 3197 3328 2828 
z
" transform="scale(0.015625)"/>
      <path id="DejaVuSans-3a" d="M 750 794 
L 1409 794 
L 1409 0 
L 750 0 
L 750 794 
z
M 750 3309 
L 1409 3309 
L 1409 2516 
L 750 2516 
L 750 3309 
z
" transform="scale(0.015625)"/>
      <path id="DejaVuSans-4f" d="M 2522 4238 
Q 1834 4238 1429 3725 
Q 1025 3213 1025 2328 
Q 1025 1447 1429 934 
Q 1834 422 2522 422 
Q 3209 422 3611 934 
Q 4013 1447 4013 2328 
Q 4013 3213 3611 3725 
Q 3209 4238 2522 4238 
z
M 2522 4750 
Q 3503 4750 4090 4092 
Q 4678 3434 4678 2328 
Q 4678 1225 4090 567 
Q 3503 -91 2522 -91 
Q 1538 -91 948 565 
Q 359 1222 359 2328 
Q 359 3434 948 4092 
Q 1538 4750 2522 4750 
z
" transform="scale(0.015625)"/>
      <path id="DejaVuSans-70" d="M 1159 525 
L 1159 -1331 
L 581 -1331 
L 581 3500 
L 1159 3500 
L 1159 2969 
Q 1341 3281 1617 3432 
Q 1894 3584 2278 3584 
Q 2916 3584 3314 3078 
Q 3713 2572 3713 1747 
Q 3713 922 3314 415 
Q 2916 -91 2278 -91 
Q 1894 -91 1617 61 
Q 1341 213 1159 525 
z
M 3116 1747 
Q 3116 2381 2855 2742 
Q 2594 3103 2138 3103 
Q 1681 3103 1420 2742 
Q 1159 2381 1159 1747 
Q 1159 1113 1420 752 
Q 1681 391 2138 391 
Q 2594 391 2855 752 
Q 3116 1113 3116 1747 
z
" transform="scale(0.015625)"/>
      <path id="DejaVuSans-7a" d="M 353 3500 
L 3084 3500 
L 3084 2975 
L 922 459 
L 3084 459 
L 3084 0 
L 275 0 
L 275 525 
L 2438 3041 
L 353 3041 
L 353 3500 
z
" transform="scale(0.015625)"/>
     </defs>
     <use xlink:href="#DejaVuSans-43"/>
     <use xlink:href="#DejaVuSans-6f" transform="translate(69.824219 0)"/>
     <use xlink:href="#DejaVuSans-6e" transform="translate(131.005859 0)"/>
     <use xlink:href="#DejaVuSans-76" transform="translate(194.384766 0)"/>
     <use xlink:href="#DejaVuSans-65" transform="translate(253.564453 0)"/>
     <use xlink:href="#DejaVuSans-72" transform="translate(315.087891 0)"/>
     <use xlink:href="#DejaVuSans-67" transform="translate(354.451172 0)"/>
     <use xlink:href="#DejaVuSans-65" transform="translate(417.927734 0)"/>
     <use xlink:href="#DejaVuSans-6e" transform="translate(479.451172 0)"/>
     <use xlink:href="#DejaVuSans-63" transform="translate(542.830078 0)"/>
     <use xlink:href="#DejaVuSans-65" transform="translate(597.810547 0)"/>
     <use xlink:href="#DejaVuSans-20" transform="translate(659.333984 0)"/>
     <use xlink:href="#DejaVuSans-44" transform="translate(691.121094 0)"/>
     <use xlink:href="#DejaVuSans-79" transform="translate(768.123047 0)"/>
     <use xlink:href="#DejaVuSans-6e" transform="translate(827.302734 0)"/>
     <use xlink:href="#DejaVuSans-61" transform="translate(890.681641 0)"/>
     <use xlink:href="#DejaVuSans-6d" transform="translate(951.960938 0)"/>
     <use xlink:href="#DejaVuSans-69" transform="translate(1049.373047 0)"/>
     <use xlink:href="#DejaVuSans-63" transform="translate(1077.15625 0)"/>
     <use xlink:href="#DejaVuSans-73" transform="translate(1132.136719 0)"/>
     <use xlink:href="#DejaVuSans-3a" transform="translate(1184.236328 0)"/>
     <use xlink:href="#DejaVuSans-20" transform="translate(1217.927734 0)"/>
     <use xlink:href="#DejaVuSans-4f" transform="translate(1249.714844 0)"/>
     <use xlink:href="#DejaVuSans-70" transform="translate(1328.425781 0)"/>
     <use xlink:href="#DejaVuSans-74" transform="translate(1391.902344 0)"/>
     <use xlink:href="#DejaVuSans-69" transform="translate(1431.111328 0)"/>
     <use xlink:href="#DejaVuSans-6d" transform="translate(1458.894531 0)"/>
     <use xlink:href="#DejaVuSans-69" transform="translate(1556.306641 0)"/>
     <use xlink:href="#DejaVuSans-7a" transform="translate(1584.089844 0)"/>
     <use xlink:href="#DejaVuSans-61" transform="translate(1636.580078 0)"/>
     <use xlink:href="#DejaVuSans-74" transform="translate(1697.859375 0)"/>
     <use xlink:href="#DejaVuSans-69" transform="translate(1737.068359 0)"/>
     <use xlink:href="#DejaVuSans-6f" transform="translate(1764.851562 0)"/>
     <use xlink:href="#DejaVuSans-6e" transform="translate(1826.033203 0)"/>
     <use xlink:href="#DejaVuSans-20" transform="translate(1889.412109 0)"/>
     <use xlink:href="#DejaVuSans-76" transform="translate(1921.199219 0)"/>
     <use xlink:href="#DejaVuSans-73" transform="translate(1980.378906 0)"/>
     <use xlink:href="#DejaVuSans-2e" transform="translate(2032.478516 0)"/>
     <use xlink:href="#DejaVuSans-20" transform="translate(2064.265625 0)"/>
     <use xlink:href="#DejaVuSans-43" transform="translate(2096.052734 0)"/>
     <use xlink:href="#DejaVuSans-6f" transform="translate(2165.876953 0)"/>
     <use xlink:href="#DejaVuSans-6e" transform="translate(2227.058594 0)"/>
     <use xlink:href="#DejaVuSans-73" transform="translate(2290.4375 0)"/>
     <use xlink:href="#DejaVuSans-74" transform="translate(2342.537109 0)"/>
     <use xlink:href="#DejaVuSans-72" transform="translate(2381.746094 0)"/>
     <use xlink:href="#DejaVuSans-61" transform="translate(2422.859375 0)"/>
     <use xlink:href="#DejaVuSans-69" transform="translate(2484.138672 0)"/>
     <use xlink:href="#DejaVuSans-6e" transform="translate(2511.921875 0)"/>
     <use xlink:href="#DejaVuSans-74" transform="translate(2575.300781 0)"/>
     <use xlink:href="#DejaVuSans-73" transform="translate(2614.509766 0)"/>
    </g>
   </g>
  </g>
 </g>
 <defs>
  <clipPath id="p7abd04d037">
   <rect x="39.208" y="12.544" width="403.9165" height="169.474667"/>
  </clipPath>
 </defs>
</svg>
