<?xml version="1.0" encoding="utf-8" standalone="no"?>
<!DOCTYPE svg PUBLIC "-//W3C//DTD SVG 1.1//EN"
  "http://www.w3.org/Graphics/SVG/1.1/DTD/svg11.dtd">
<svg xmlns:xlink="http://www.w3.org/1999/xlink" width="648pt" height="360pt" viewBox="0 0 648 360" xmlns="http://www.w3.org/2000/svg" version="1.1">
 <metadata>
  <rdf:RDF xmlns:dc="http://purl.org/dc/elements/1.1/" xmlns:cc="http://creativecommons.org/ns#" xmlns:rdf="http://www.w3.org/1999/02/22-rdf-syntax-ns#">
   <cc:Work>
    <dc:type rdf:resource="http://purl.org/dc/dcmitype/StillImage"/>
    <dc:date>2025-11-21T00:32:37.930547</dc:date>
    <dc:format>image/svg+xml</dc:format>
    <dc:creator>
     <cc:Agent>
      <dc:title>Matplotlib v3.10.6, https://matplotlib.org/</dc:title>
     </cc:Agent>
    </dc:creator>
   </cc:Work>
  </rdf:RDF>
 </metadata>
 <defs>
  <style type="text/css">*{stroke-linejoin: round; stroke-linecap: butt}</style>
 </defs>
 <g id="figure_1">
  <g id="patch_1">
   <path d="M 0 360 
L 648 360 
L 648 0 
L 0 0 
z
" style="fill: #ffffff"/>
  </g>
  <g id="axes_1">
   <g id="patch_2">
    <path d="M 49.12625 300.04 
L 637.2 300.04 
L 637.2 27.96 
L 49.12625 27.96 
z
" style="fill: #ffffff"/>
   </g>
   <g id="matplotlib.axis_1">
    <g id="xtick_1">
     <g id="line2d_1">
      <path d="M 135.258264 300.04 
L 135.258264 27.96 
" clip-path="url(#pe28ee78c95)" style="fill: none; stroke: #b0b0b0; stroke-opacity: 0.25; stroke-width: 0.8; stroke-linecap: square"/>
     </g>
     <g id="line2d_2">
      <defs>
       <path id="mef4846e951" d="M 0 0 
L 0 3.5 
" style="stroke: #000000; stroke-width: 0.8"/>
      </defs>
      <g>
       <use xlink:href="#mef4846e951" x="135.258264" y="300.04" style="stroke: #000000; stroke-width: 0.8"/>
      </g>
     </g>
     <g id="text_1">
      <!-- 100 -->
      <g transform="translate(125.714514 314.638438) scale(0.1 -0.1)">
       <defs>
        <path id="DejaVuSans-31" d="M 794 531 
L 1825 531 
L 1825 4091 
L 703 3866 
L 703 4441 
L 1819 4666 
L 2450 4666 
L 2450 531 
L 3481 531 
L 3481 0 
L 794 0 
L 794 531 
z
" transform="scale(0.015625)"/>
        <path id="DejaVuSans-30" d="M 2034 4250 
Q 1547 4250 1301 3770 
Q 1056 3291 1056 2328 
Q 1056 1369 1301 889 
Q 1547 409 2034 409 
Q 2525 409 2770 889 
Q 3016 1369 3016 2328 
Q 3016 3291 2770 3770 
Q 2525 4250 2034 4250 
z
M 2034 4750 
Q 2819 4750 3233 4129 
Q 3647 3509 3647 2328 
Q 3647 1150 3233 529 
Q 2819 -91 2034 -91 
Q 1250 -91 836 529 
Q 422 1150 422 2328 
Q 422 3509 836 4129 
Q 1250 4750 2034 4750 
z
" transform="scale(0.015625)"/>
       </defs>
       <use xlink:href="#DejaVuSans-31"/>
       <use xlink:href="#DejaVuSans-30" transform="translate(63.623047 0)"/>
       <use xlink:href="#DejaVuSans-30" transform="translate(127.246094 0)"/>
      </g>
     </g>
    </g>
    <g id="xtick_2">
     <g id="line2d_3">
      <path d="M 254.061042 300.04 
L 254.061042 27.96 
" clip-path="url(#pe28ee78c95)" style="fill: none; stroke: #b0b0b0; stroke-opacity: 0.25; stroke-width: 0.8; stroke-linecap: square"/>
     </g>
     <g id="line2d_4">
      <g>
       <use xlink:href="#mef4846e951" x="254.061042" y="300.04" style="stroke: #000000; stroke-width: 0.8"/>
      </g>
     </g>
     <g id="text_2">
      <!-- 200 -->
      <g transform="translate(244.517292 314.638438) scale(0.1 -0.1)">
       <defs>
        <path id="DejaVuSans-32" d="M 1228 531 
L 3431 531 
L 3431 0 
L 469 0 
L 469 531 
Q 828 903 1448 1529 
Q 2069 2156 2228 2338 
Q 2531 2678 2651 2914 
Q 2772 3150 2772 3378 
Q 2772 3750 2511 3984 
Q 2250 4219 1831 4219 
Q 1534 4219 1204 4116 
Q 875 4013 500 3803 
L 500 4441 
Q 881 4594 1212 4672 
Q 1544 4750 1819 4750 
Q 2544 4750 2975 4387 
Q 3406 4025 3406 3419 
Q 3406 3131 3298 2873 
Q 3191 2616 2906 2266 
Q 2828 2175 2409 1742 
Q 1991 1309 1228 531 
z
" transform="scale(0.015625)"/>
       </defs>
       <use xlink:href="#DejaVuSans-32"/>
       <use xlink:href="#DejaVuSans-30" transform="translate(63.623047 0)"/>
       <use xlink:href="#DejaVuSans-30" transform="translate(127.246094 0)"/>
      </g>
     </g>
    </g>
    <g id="xtick_3">
     <g id="line2d_5">
      <path d="M 372.863819 300.04 
L 372.863819 27.96 
" clip-path="url(#pe28ee78c95)" style="fill: none; stroke: #b0b0b0; stroke-opacity: 0.25; stroke-width: 0.8; stroke-linecap: square"/>
     </g>
     <g id="line2d_6">
      <g>
       <use xlink:href="#mef4846e951" x="372.863819" y="300.04" style="stroke: #000000; stroke-width: 0.8"/>
      </g>
     </g>
     <g id="text_3">
      <!-- 300 -->
      <g transform="translate(363.320069 314.638438) scale(0.1 -0.1)">
       <defs>
        <path id="DejaVuSans-33" d="M 2597 2516 
Q 3050 2419 3304 2112 
Q 3559 1806 3559 1356 
Q 3559 666 3084 287 
Q 2609 -91 1734 -91 
Q 1441 -91 1130 -33 
Q 819 25 488 141 
L 488 750 
Q 750 597 1062 519 
Q 1375 441 1716 441 
Q 2309 441 2620 675 
Q 2931 909 2931 1356 
Q 2931 1769 2642 2001 
Q 2353 2234 1838 2234 
L 1294 2234 
L 1294 2753 
L 1863 2753 
Q 2328 2753 2575 2939 
Q 2822 3125 2822 3475 
Q 2822 3834 2567 4026 
Q 2313 4219 1838 4219 
Q 1578 4219 1281 4162 
Q 984 4106 628 3988 
L 628 4550 
Q 988 4650 1302 4700 
Q 1616 4750 1894 4750 
Q 2613 4750 3031 4423 
Q 3450 4097 3450 3541 
Q 3450 3153 3228 2886 
Q 3006 2619 2597 2516 
z
" transform="scale(0.015625)"/>
       </defs>
       <use xlink:href="#DejaVuSans-33"/>
       <use xlink:href="#DejaVuSans-30" transform="translate(63.623047 0)"/>
       <use xlink:href="#DejaVuSans-30" transform="translate(127.246094 0)"/>
      </g>
     </g>
    </g>
    <g id="xtick_4">
     <g id="line2d_7">
      <path d="M 491.666597 300.04 
L 491.666597 27.96 
" clip-path="url(#pe28ee78c95)" style="fill: none; stroke: #b0b0b0; stroke-opacity: 0.25; stroke-width: 0.8; stroke-linecap: square"/>
     </g>
     <g id="line2d_8">
      <g>
       <use xlink:href="#mef4846e951" x="491.666597" y="300.04" style="stroke: #000000; stroke-width: 0.8"/>
      </g>
     </g>
     <g id="text_4">
      <!-- 400 -->
      <g transform="translate(482.122847 314.638438) scale(0.1 -0.1)">
       <defs>
        <path id="DejaVuSans-34" d="M 2419 4116 
L 825 1625 
L 2419 1625 
L 2419 4116 
z
M 2253 4666 
L 3047 4666 
L 3047 1625 
L 3713 1625 
L 3713 1100 
L 3047 1100 
L 3047 0 
L 2419 0 
L 2419 1100 
L 313 1100 
L 313 1709 
L 2253 4666 
z
" transform="scale(0.015625)"/>
       </defs>
       <use xlink:href="#DejaVuSans-34"/>
       <use xlink:href="#DejaVuSans-30" transform="translate(63.623047 0)"/>
       <use xlink:href="#DejaVuSans-30" transform="translate(127.246094 0)"/>
      </g>
     </g>
    </g>
    <g id="xtick_5">
     <g id="line2d_9">
      <path d="M 610.469375 300.04 
L 610.469375 27.96 
" clip-path="url(#pe28ee78c95)" style="fill: none; stroke: #b0b0b0; stroke-opacity: 0.25; stroke-width: 0.8; stroke-linecap: square"/>
     </g>
     <g id="line2d_10">
      <g>
       <use xlink:href="#mef4846e951" x="610.469375" y="300.04" style="stroke: #000000; stroke-width: 0.8"/>
      </g>
     </g>
     <g id="text_5">
      <!-- 500 -->
      <g transform="translate(600.925625 314.638438) scale(0.1 -0.1)">
       <defs>
        <path id="DejaVuSans-35" d="M 691 4666 
L 3169 4666 
L 3169 4134 
L 1269 4134 
L 1269 2991 
Q 1406 3038 1543 3061 
Q 1681 3084 1819 3084 
Q 2600 3084 3056 2656 
Q 3513 2228 3513 1497 
Q 3513 744 3044 326 
Q 2575 -91 1722 -91 
Q 1428 -91 1123 -41 
Q 819 9 494 109 
L 494 744 
Q 775 591 1075 516 
Q 1375 441 1709 441 
Q 2250 441 2565 725 
Q 2881 1009 2881 1497 
Q 2881 1984 2565 2268 
Q 2250 2553 1709 2553 
Q 1456 2553 1204 2497 
Q 953 2441 691 2322 
L 691 4666 
z
" transform="scale(0.015625)"/>
       </defs>
       <use xlink:href="#DejaVuSans-35"/>
       <use xlink:href="#DejaVuSans-30" transform="translate(63.623047 0)"/>
       <use xlink:href="#DejaVuSans-30" transform="translate(127.246094 0)"/>
      </g>
     </g>
    </g>
    <g id="text_6">
     <!-- Kích thước dữ liệu (n) -->
     <g transform="translate(289.677969 328.468125) scale(0.1 -0.1)">
      <defs>
       <path id="DejaVuSans-4b" d="M 628 4666 
L 1259 4666 
L 1259 2694 
L 3353 4666 
L 4166 4666 
L 1850 2491 
L 4331 0 
L 3500 0 
L 1259 2247 
L 1259 0 
L 628 0 
L 628 4666 
z
" transform="scale(0.015625)"/>
       <path id="DejaVuSans-ed" d="M 1322 5119 
L 1944 5119 
L 926 3944 
L 447 3944 
L 1322 5119 
z
M 603 3500 
L 1178 3500 
L 1178 0 
L 603 0 
L 603 3500 
z
M 891 3584 
L 891 3584 
z
" transform="scale(0.015625)"/>
       <path id="DejaVuSans-63" d="M 3122 3366 
L 3122 2828 
Q 2878 2963 2633 3030 
Q 2388 3097 2138 3097 
Q 1578 3097 1268 2742 
Q 959 2388 959 1747 
Q 959 1106 1268 751 
Q 1578 397 2138 397 
Q 2388 397 2633 464 
Q 2878 531 3122 666 
L 3122 134 
Q 2881 22 2623 -34 
Q 2366 -91 2075 -91 
Q 1284 -91 818 406 
Q 353 903 353 1747 
Q 353 2603 823 3093 
Q 1294 3584 2113 3584 
Q 2378 3584 2631 3529 
Q 2884 3475 3122 3366 
z
" transform="scale(0.015625)"/>
       <path id="DejaVuSans-68" d="M 3513 2113 
L 3513 0 
L 2938 0 
L 2938 2094 
Q 2938 2591 2744 2837 
Q 2550 3084 2163 3084 
Q 1697 3084 1428 2787 
Q 1159 2491 1159 1978 
L 1159 0 
L 581 0 
L 581 4863 
L 1159 4863 
L 1159 2956 
Q 1366 3272 1645 3428 
Q 1925 3584 2291 3584 
Q 2894 3584 3203 3211 
Q 3513 2838 3513 2113 
z
" transform="scale(0.015625)"/>
       <path id="DejaVuSans-20" transform="scale(0.015625)"/>
       <path id="DejaVuSans-74" d="M 1172 4494 
L 1172 3500 
L 2356 3500 
L 2356 3053 
L 1172 3053 
L 1172 1153 
Q 1172 725 1289 603 
Q 1406 481 1766 481 
L 2356 481 
L 2356 0 
L 1766 0 
Q 1100 0 847 248 
Q 594 497 594 1153 
L 594 3053 
L 172 3053 
L 172 3500 
L 594 3500 
L 594 4494 
L 1172 4494 
z
" transform="scale(0.015625)"/>
       <path id="DejaVuSans-1b0" d="M 3094 3136 
L 3094 3508 
Q 3285 3367 3422 3300 
Q 3560 3233 3657 3233 
Q 3800 3233 3872 3319 
Q 3944 3405 3944 3573 
Q 3944 3673 3920 3770 
Q 3897 3867 3850 3964 
L 4266 3964 
Q 4297 3845 4312 3739 
Q 4328 3633 4328 3539 
Q 4328 3158 4192 2978 
Q 4057 2798 3766 2798 
Q 3616 2798 3452 2881 
Q 3288 2964 3094 3136 
z
M 552 1381 
L 552 3500 
L 1127 3500 
L 1127 1403 
Q 1127 906 1320 657 
Q 1514 409 1902 409 
Q 2367 409 2637 706 
Q 2908 1003 2908 1516 
L 2908 3500 
L 3483 3500 
L 3483 0 
L 2908 0 
L 2908 538 
Q 2699 219 2422 64 
Q 2146 -91 1780 -91 
Q 1177 -91 864 284 
Q 552 659 552 1381 
z
M 1999 3584 
L 1999 3584 
z
" transform="scale(0.015625)"/>
       <path id="DejaVuSans-1edb" d="M 2394 5119 
L 3016 5119 
L 1998 3944 
L 1519 3944 
L 2394 5119 
z
M 2622 3136 
L 2622 3508 
Q 2813 3367 2950 3300 
Q 3088 3233 3185 3233 
Q 3328 3233 3400 3319 
Q 3472 3405 3472 3573 
Q 3472 3673 3448 3770 
Q 3425 3867 3378 3964 
L 3794 3964 
Q 3825 3845 3840 3739 
Q 3856 3633 3856 3539 
Q 3856 3158 3720 2978 
Q 3585 2798 3294 2798 
Q 3144 2798 2980 2881 
Q 2816 2964 2622 3136 
z
M 1975 3097 
Q 1513 3097 1244 2736 
Q 975 2375 975 1747 
Q 975 1119 1242 758 
Q 1510 397 1975 397 
Q 2435 397 2703 759 
Q 2972 1122 2972 1747 
Q 2972 2369 2703 2733 
Q 2435 3097 1975 3097 
z
M 1975 3584 
Q 2725 3584 3153 3096 
Q 3582 2609 3582 1747 
Q 3582 888 3153 398 
Q 2725 -91 1975 -91 
Q 1222 -91 795 398 
Q 369 888 369 1747 
Q 369 2609 795 3096 
Q 1222 3584 1975 3584 
z
" transform="scale(0.015625)"/>
       <path id="DejaVuSans-64" d="M 2906 2969 
L 2906 4863 
L 3481 4863 
L 3481 0 
L 2906 0 
L 2906 525 
Q 2725 213 2448 61 
Q 2172 -91 1784 -91 
Q 1150 -91 751 415 
Q 353 922 353 1747 
Q 353 2572 751 3078 
Q 1150 3584 1784 3584 
Q 2172 3584 2448 3432 
Q 2725 3281 2906 2969 
z
M 947 1747 
Q 947 1113 1208 752 
Q 1469 391 1925 391 
Q 2381 391 2643 752 
Q 2906 1113 2906 1747 
Q 2906 2381 2643 2742 
Q 2381 3103 1925 3103 
Q 1469 3103 1208 2742 
Q 947 2381 947 1747 
z
" transform="scale(0.015625)"/>
       <path id="DejaVuSans-1eef" d="M 1988 4281 
L 1809 4453 
Q 1741 4516 1689 4545 
Q 1638 4575 1597 4575 
Q 1478 4575 1422 4461 
Q 1366 4347 1359 4091 
L 969 4091 
Q 975 4513 1134 4742 
Q 1294 4972 1578 4972 
Q 1697 4972 1797 4928 
Q 1897 4884 2013 4781 
L 2191 4609 
Q 2259 4547 2311 4517 
Q 2363 4488 2403 4488 
Q 2522 4488 2578 4602 
Q 2634 4716 2641 4972 
L 3031 4972 
Q 3025 4550 2865 4320 
Q 2706 4091 2422 4091 
Q 2303 4091 2203 4134 
Q 2103 4178 1988 4281 
z
M 3094 3136 
L 3094 3508 
Q 3285 3367 3422 3300 
Q 3560 3233 3657 3233 
Q 3800 3233 3872 3319 
Q 3944 3405 3944 3573 
Q 3944 3673 3920 3770 
Q 3897 3867 3850 3964 
L 4266 3964 
Q 4297 3845 4312 3739 
Q 4328 3633 4328 3539 
Q 4328 3158 4192 2978 
Q 4057 2798 3766 2798 
Q 3616 2798 3452 2881 
Q 3288 2964 3094 3136 
z
M 552 1381 
L 552 3500 
L 1127 3500 
L 1127 1403 
Q 1127 906 1320 657 
Q 1514 409 1902 409 
Q 2367 409 2637 706 
Q 2908 1003 2908 1516 
L 2908 3500 
L 3483 3500 
L 3483 0 
L 2908 0 
L 2908 538 
Q 2699 219 2422 64 
Q 2146 -91 1780 -91 
Q 1177 -91 864 284 
Q 552 659 552 1381 
z
M 1999 3584 
L 1999 3584 
z
" transform="scale(0.015625)"/>
       <path id="DejaVuSans-6c" d="M 603 4863 
L 1178 4863 
L 1178 0 
L 603 0 
L 603 4863 
z
" transform="scale(0.015625)"/>
       <path id="DejaVuSans-69" d="M 603 3500 
L 1178 3500 
L 1178 0 
L 603 0 
L 603 3500 
z
M 603 4863 
L 1178 4863 
L 1178 4134 
L 603 4134 
L 603 4863 
z
" transform="scale(0.015625)"/>
       <path id="DejaVuSans-1ec7" d="M 1738 -441 
L 2313 -441 
L 2313 -1172 
L 1738 -1172 
L 1738 -441 
z
M 3597 1894 
L 3597 1613 
L 953 1613 
Q 991 1019 1311 708 
Q 1631 397 2203 397 
Q 2534 397 2845 478 
Q 3156 559 3463 722 
L 3463 178 
Q 3153 47 2828 -22 
Q 2503 -91 2169 -91 
Q 1331 -91 842 396 
Q 353 884 353 1716 
Q 353 2575 817 3079 
Q 1281 3584 2069 3584 
Q 2775 3584 3186 3129 
Q 3597 2675 3597 1894 
z
M 3022 2063 
Q 3016 2534 2758 2815 
Q 2500 3097 2075 3097 
Q 1594 3097 1305 2825 
Q 1016 2553 972 2059 
L 3022 2063 
z
M 1738 -441 
L 2313 -441 
L 2313 -1172 
L 1738 -1172 
L 1738 -441 
z
M 1801 5119 
L 2263 5119 
L 3029 3944 
L 2595 3944 
L 2032 4709 
L 1470 3944 
L 1035 3944 
L 1801 5119 
z
" transform="scale(0.015625)"/>
       <path id="DejaVuSans-75" d="M 544 1381 
L 544 3500 
L 1119 3500 
L 1119 1403 
Q 1119 906 1312 657 
Q 1506 409 1894 409 
Q 2359 409 2629 706 
Q 2900 1003 2900 1516 
L 2900 3500 
L 3475 3500 
L 3475 0 
L 2900 0 
L 2900 538 
Q 2691 219 2414 64 
Q 2138 -91 1772 -91 
Q 1169 -91 856 284 
Q 544 659 544 1381 
z
M 1991 3584 
L 1991 3584 
z
" transform="scale(0.015625)"/>
       <path id="DejaVuSans-28" d="M 1984 4856 
Q 1566 4138 1362 3434 
Q 1159 2731 1159 2009 
Q 1159 1288 1364 580 
Q 1569 -128 1984 -844 
L 1484 -844 
Q 1016 -109 783 600 
Q 550 1309 550 2009 
Q 550 2706 781 3412 
Q 1013 4119 1484 4856 
L 1984 4856 
z
" transform="scale(0.015625)"/>
       <path id="DejaVuSans-6e" d="M 3513 2113 
L 3513 0 
L 2938 0 
L 2938 2094 
Q 2938 2591 2744 2837 
Q 2550 3084 2163 3084 
Q 1697 3084 1428 2787 
Q 1159 2491 1159 1978 
L 1159 0 
L 581 0 
L 581 3500 
L 1159 3500 
L 1159 2956 
Q 1366 3272 1645 3428 
Q 1925 3584 2291 3584 
Q 2894 3584 3203 3211 
Q 3513 2838 3513 2113 
z
" transform="scale(0.015625)"/>
       <path id="DejaVuSans-29" d="M 513 4856 
L 1013 4856 
Q 1481 4119 1714 3412 
Q 1947 2706 1947 2009 
Q 1947 1309 1714 600 
Q 1481 -109 1013 -844 
L 513 -844 
Q 928 -128 1133 580 
Q 1338 1288 1338 2009 
Q 1338 2731 1133 3434 
Q 928 4138 513 4856 
z
" transform="scale(0.015625)"/>
      </defs>
      <use xlink:href="#DejaVuSans-4b"/>
      <use xlink:href="#DejaVuSans-ed" transform="translate(65.576172 0)"/>
      <use xlink:href="#DejaVuSans-63" transform="translate(93.359375 0)"/>
      <use xlink:href="#DejaVuSans-68" transform="translate(148.339844 0)"/>
      <use xlink:href="#DejaVuSans-20" transform="translate(211.71875 0)"/>
      <use xlink:href="#DejaVuSans-74" transform="translate(243.505859 0)"/>
      <use xlink:href="#DejaVuSans-68" transform="translate(282.714844 0)"/>
      <use xlink:href="#DejaVuSans-1b0" transform="translate(346.09375 0)"/>
      <use xlink:href="#DejaVuSans-1edb" transform="translate(409.472656 0)"/>
      <use xlink:href="#DejaVuSans-63" transform="translate(470.654297 0)"/>
      <use xlink:href="#DejaVuSans-20" transform="translate(525.634766 0)"/>
      <use xlink:href="#DejaVuSans-64" transform="translate(557.421875 0)"/>
      <use xlink:href="#DejaVuSans-1eef" transform="translate(620.898438 0)"/>
      <use xlink:href="#DejaVuSans-20" transform="translate(684.277344 0)"/>
      <use xlink:href="#DejaVuSans-6c" transform="translate(716.064453 0)"/>
      <use xlink:href="#DejaVuSans-69" transform="translate(743.847656 0)"/>
      <use xlink:href="#DejaVuSans-1ec7" transform="translate(771.630859 0)"/>
      <use xlink:href="#DejaVuSans-75" transform="translate(833.154297 0)"/>
      <use xlink:href="#DejaVuSans-20" transform="translate(896.533203 0)"/>
      <use xlink:href="#DejaVuSans-28" transform="translate(928.320312 0)"/>
      <use xlink:href="#DejaVuSans-6e" transform="translate(967.333984 0)"/>
      <use xlink:href="#DejaVuSans-29" transform="translate(1030.712891 0)"/>
     </g>
    </g>
   </g>
   <g id="matplotlib.axis_2">
    <g id="ytick_1">
     <g id="line2d_11">
      <path d="M 49.12625 290.171166 
L 637.2 290.171166 
" clip-path="url(#pe28ee78c95)" style="fill: none; stroke: #b0b0b0; stroke-opacity: 0.25; stroke-width: 0.8; stroke-linecap: square"/>
     </g>
     <g id="line2d_12">
      <defs>
       <path id="m9785aa0d00" d="M 0 0 
L -3.5 0 
" style="stroke: #000000; stroke-width: 0.8"/>
      </defs>
      <g>
       <use xlink:href="#m9785aa0d00" x="49.12625" y="290.171166" style="stroke: #000000; stroke-width: 0.8"/>
      </g>
     </g>
     <g id="text_7">
      <!-- 0.0 -->
      <g transform="translate(26.223125 293.970385) scale(0.1 -0.1)">
       <defs>
        <path id="DejaVuSans-2e" d="M 684 794 
L 1344 794 
L 1344 0 
L 684 0 
L 684 794 
z
" transform="scale(0.015625)"/>
       </defs>
       <use xlink:href="#DejaVuSans-30"/>
       <use xlink:href="#DejaVuSans-2e" transform="translate(63.623047 0)"/>
       <use xlink:href="#DejaVuSans-30" transform="translate(95.410156 0)"/>
      </g>
     </g>
    </g>
    <g id="ytick_2">
     <g id="line2d_13">
      <path d="M 49.12625 240.202388 
L 637.2 240.202388 
" clip-path="url(#pe28ee78c95)" style="fill: none; stroke: #b0b0b0; stroke-opacity: 0.25; stroke-width: 0.8; stroke-linecap: square"/>
     </g>
     <g id="line2d_14">
      <g>
       <use xlink:href="#m9785aa0d00" x="49.12625" y="240.202388" style="stroke: #000000; stroke-width: 0.8"/>
      </g>
     </g>
     <g id="text_8">
      <!-- 0.2 -->
      <g transform="translate(26.223125 244.001606) scale(0.1 -0.1)">
       <use xlink:href="#DejaVuSans-30"/>
       <use xlink:href="#DejaVuSans-2e" transform="translate(63.623047 0)"/>
       <use xlink:href="#DejaVuSans-32" transform="translate(95.410156 0)"/>
      </g>
     </g>
    </g>
    <g id="ytick_3">
     <g id="line2d_15">
      <path d="M 49.12625 190.233609 
L 637.2 190.233609 
" clip-path="url(#pe28ee78c95)" style="fill: none; stroke: #b0b0b0; stroke-opacity: 0.25; stroke-width: 0.8; stroke-linecap: square"/>
     </g>
     <g id="line2d_16">
      <g>
       <use xlink:href="#m9785aa0d00" x="49.12625" y="190.233609" style="stroke: #000000; stroke-width: 0.8"/>
      </g>
     </g>
     <g id="text_9">
      <!-- 0.4 -->
      <g transform="translate(26.223125 194.032828) scale(0.1 -0.1)">
       <use xlink:href="#DejaVuSans-30"/>
       <use xlink:href="#DejaVuSans-2e" transform="translate(63.623047 0)"/>
       <use xlink:href="#DejaVuSans-34" transform="translate(95.410156 0)"/>
      </g>
     </g>
    </g>
    <g id="ytick_4">
     <g id="line2d_17">
      <path d="M 49.12625 140.26483 
L 637.2 140.26483 
" clip-path="url(#pe28ee78c95)" style="fill: none; stroke: #b0b0b0; stroke-opacity: 0.25; stroke-width: 0.8; stroke-linecap: square"/>
     </g>
     <g id="line2d_18">
      <g>
       <use xlink:href="#m9785aa0d00" x="49.12625" y="140.26483" style="stroke: #000000; stroke-width: 0.8"/>
      </g>
     </g>
     <g id="text_10">
      <!-- 0.6 -->
      <g transform="translate(26.223125 144.064049) scale(0.1 -0.1)">
       <defs>
        <path id="DejaVuSans-36" d="M 2113 2584 
Q 1688 2584 1439 2293 
Q 1191 2003 1191 1497 
Q 1191 994 1439 701 
Q 1688 409 2113 409 
Q 2538 409 2786 701 
Q 3034 994 3034 1497 
Q 3034 2003 2786 2293 
Q 2538 2584 2113 2584 
z
M 3366 4563 
L 3366 3988 
Q 3128 4100 2886 4159 
Q 2644 4219 2406 4219 
Q 1781 4219 1451 3797 
Q 1122 3375 1075 2522 
Q 1259 2794 1537 2939 
Q 1816 3084 2150 3084 
Q 2853 3084 3261 2657 
Q 3669 2231 3669 1497 
Q 3669 778 3244 343 
Q 2819 -91 2113 -91 
Q 1303 -91 875 529 
Q 447 1150 447 2328 
Q 447 3434 972 4092 
Q 1497 4750 2381 4750 
Q 2619 4750 2861 4703 
Q 3103 4656 3366 4563 
z
" transform="scale(0.015625)"/>
       </defs>
       <use xlink:href="#DejaVuSans-30"/>
       <use xlink:href="#DejaVuSans-2e" transform="translate(63.623047 0)"/>
       <use xlink:href="#DejaVuSans-36" transform="translate(95.410156 0)"/>
      </g>
     </g>
    </g>
    <g id="ytick_5">
     <g id="line2d_19">
      <path d="M 49.12625 90.296051 
L 637.2 90.296051 
" clip-path="url(#pe28ee78c95)" style="fill: none; stroke: #b0b0b0; stroke-opacity: 0.25; stroke-width: 0.8; stroke-linecap: square"/>
     </g>
     <g id="line2d_20">
      <g>
       <use xlink:href="#m9785aa0d00" x="49.12625" y="90.296051" style="stroke: #000000; stroke-width: 0.8"/>
      </g>
     </g>
     <g id="text_11">
      <!-- 0.8 -->
      <g transform="translate(26.223125 94.09527) scale(0.1 -0.1)">
       <defs>
        <path id="DejaVuSans-38" d="M 2034 2216 
Q 1584 2216 1326 1975 
Q 1069 1734 1069 1313 
Q 1069 891 1326 650 
Q 1584 409 2034 409 
Q 2484 409 2743 651 
Q 3003 894 3003 1313 
Q 3003 1734 2745 1975 
Q 2488 2216 2034 2216 
z
M 1403 2484 
Q 997 2584 770 2862 
Q 544 3141 544 3541 
Q 544 4100 942 4425 
Q 1341 4750 2034 4750 
Q 2731 4750 3128 4425 
Q 3525 4100 3525 3541 
Q 3525 3141 3298 2862 
Q 3072 2584 2669 2484 
Q 3125 2378 3379 2068 
Q 3634 1759 3634 1313 
Q 3634 634 3220 271 
Q 2806 -91 2034 -91 
Q 1263 -91 848 271 
Q 434 634 434 1313 
Q 434 1759 690 2068 
Q 947 2378 1403 2484 
z
M 1172 3481 
Q 1172 3119 1398 2916 
Q 1625 2713 2034 2713 
Q 2441 2713 2670 2916 
Q 2900 3119 2900 3481 
Q 2900 3844 2670 4047 
Q 2441 4250 2034 4250 
Q 1625 4250 1398 4047 
Q 1172 3844 1172 3481 
z
" transform="scale(0.015625)"/>
       </defs>
       <use xlink:href="#DejaVuSans-30"/>
       <use xlink:href="#DejaVuSans-2e" transform="translate(63.623047 0)"/>
       <use xlink:href="#DejaVuSans-38" transform="translate(95.410156 0)"/>
      </g>
     </g>
    </g>
    <g id="ytick_6">
     <g id="line2d_21">
      <path d="M 49.12625 40.327273 
L 637.2 40.327273 
" clip-path="url(#pe28ee78c95)" style="fill: none; stroke: #b0b0b0; stroke-opacity: 0.25; stroke-width: 0.8; stroke-linecap: square"/>
     </g>
     <g id="line2d_22">
      <g>
       <use xlink:href="#m9785aa0d00" x="49.12625" y="40.327273" style="stroke: #000000; stroke-width: 0.8"/>
      </g>
     </g>
     <g id="text_12">
      <!-- 1.0 -->
      <g transform="translate(26.223125 44.126491) scale(0.1 -0.1)">
       <use xlink:href="#DejaVuSans-31"/>
       <use xlink:href="#DejaVuSans-2e" transform="translate(63.623047 0)"/>
       <use xlink:href="#DejaVuSans-30" transform="translate(95.410156 0)"/>
      </g>
     </g>
    </g>
    <g id="text_13">
     <!-- Độ lớn tương đối (chuẩn hoá) -->
     <g transform="translate(20.143438 237.163281) rotate(-90) scale(0.1 -0.1)">
      <defs>
       <path id="DejaVuSans-110" d="M 659 4666 
L 1959 4666 
Q 3313 4666 3947 4102 
Q 4581 3538 4581 2338 
Q 4581 1131 3945 565 
Q 3309 0 1959 0 
L 659 0 
L 659 2188 
L 31 2188 
L 31 2638 
L 659 2638 
L 659 4666 
z
M 1294 4147 
L 1294 2638 
L 2344 2638 
L 2344 2188 
L 1294 2188 
L 1294 519 
L 2053 519 
Q 3019 519 3467 956 
Q 3916 1394 3916 2338 
Q 3916 3275 3467 3711 
Q 3019 4147 2053 4147 
L 1294 4147 
z
" transform="scale(0.015625)"/>
       <path id="DejaVuSans-1ed9" d="M 1666 -441 
L 2241 -441 
L 2241 -1172 
L 1666 -1172 
L 1666 -441 
z
M 1959 3097 
Q 1497 3097 1228 2736 
Q 959 2375 959 1747 
Q 959 1119 1226 758 
Q 1494 397 1959 397 
Q 2419 397 2687 759 
Q 2956 1122 2956 1747 
Q 2956 2369 2687 2733 
Q 2419 3097 1959 3097 
z
M 1959 3584 
Q 2709 3584 3137 3096 
Q 3566 2609 3566 1747 
Q 3566 888 3137 398 
Q 2709 -91 1959 -91 
Q 1206 -91 779 398 
Q 353 888 353 1747 
Q 353 2609 779 3096 
Q 1206 3584 1959 3584 
z
M 1666 -441 
L 2241 -441 
L 2241 -1172 
L 1666 -1172 
L 1666 -441 
z
M 1729 5119 
L 2191 5119 
L 2957 3944 
L 2523 3944 
L 1960 4709 
L 1398 3944 
L 963 3944 
L 1729 5119 
z
" transform="scale(0.015625)"/>
       <path id="DejaVuSans-1a1" d="M 2622 3136 
L 2622 3508 
Q 2813 3367 2950 3300 
Q 3088 3233 3185 3233 
Q 3328 3233 3400 3319 
Q 3472 3405 3472 3573 
Q 3472 3673 3448 3770 
Q 3425 3867 3378 3964 
L 3794 3964 
Q 3825 3845 3840 3739 
Q 3856 3633 3856 3539 
Q 3856 3158 3720 2978 
Q 3585 2798 3294 2798 
Q 3144 2798 2980 2881 
Q 2816 2964 2622 3136 
z
M 1975 3097 
Q 1513 3097 1244 2736 
Q 975 2375 975 1747 
Q 975 1119 1242 758 
Q 1510 397 1975 397 
Q 2435 397 2703 759 
Q 2972 1122 2972 1747 
Q 2972 2369 2703 2733 
Q 2435 3097 1975 3097 
z
M 1975 3584 
Q 2725 3584 3153 3096 
Q 3582 2609 3582 1747 
Q 3582 888 3153 398 
Q 2725 -91 1975 -91 
Q 1222 -91 795 398 
Q 369 888 369 1747 
Q 369 2609 795 3096 
Q 1222 3584 1975 3584 
z
" transform="scale(0.015625)"/>
       <path id="DejaVuSans-67" d="M 2906 1791 
Q 2906 2416 2648 2759 
Q 2391 3103 1925 3103 
Q 1463 3103 1205 2759 
Q 947 2416 947 1791 
Q 947 1169 1205 825 
Q 1463 481 1925 481 
Q 2391 481 2648 825 
Q 2906 1169 2906 1791 
z
M 3481 434 
Q 3481 -459 3084 -895 
Q 2688 -1331 1869 -1331 
Q 1566 -1331 1297 -1286 
Q 1028 -1241 775 -1147 
L 775 -588 
Q 1028 -725 1275 -790 
Q 1522 -856 1778 -856 
Q 2344 -856 2625 -561 
Q 2906 -266 2906 331 
L 2906 616 
Q 2728 306 2450 153 
Q 2172 0 1784 0 
Q 1141 0 747 490 
Q 353 981 353 1791 
Q 353 2603 747 3093 
Q 1141 3584 1784 3584 
Q 2172 3584 2450 3431 
Q 2728 3278 2906 2969 
L 2906 3500 
L 3481 3500 
L 3481 434 
z
" transform="scale(0.015625)"/>
       <path id="DejaVuSans-111" d="M 2906 2969 
L 2906 4013 
L 1888 4013 
L 1888 4403 
L 2906 4403 
L 2906 4863 
L 3481 4863 
L 3481 4403 
L 3963 4403 
L 3963 4013 
L 3481 4013 
L 3481 0 
L 2906 0 
L 2906 525 
Q 2725 213 2448 61 
Q 2172 -91 1784 -91 
Q 1150 -91 751 415 
Q 353 922 353 1747 
Q 353 2572 751 3078 
Q 1150 3584 1784 3584 
Q 2172 3584 2448 3432 
Q 2725 3281 2906 2969 
z
M 947 1747 
Q 947 1113 1208 752 
Q 1469 391 1925 391 
Q 2381 391 2643 752 
Q 2906 1113 2906 1747 
Q 2906 2381 2643 2742 
Q 2381 3103 1925 3103 
Q 1469 3103 1208 2742 
Q 947 2381 947 1747 
z
" transform="scale(0.015625)"/>
       <path id="DejaVuSans-1ed1" d="M 1658 4775 
L 2246 4775 
L 2905 3944 
L 2471 3944 
L 1952 4500 
L 1433 3944 
L 999 3944 
L 1658 4775 
z
M 3268 5409 
L 3846 5409 
L 3134 4584 
L 2655 4584 
L 3268 5409 
z
M 1959 3097 
Q 1497 3097 1228 2736 
Q 959 2375 959 1747 
Q 959 1119 1226 758 
Q 1494 397 1959 397 
Q 2419 397 2687 759 
Q 2956 1122 2956 1747 
Q 2956 2369 2687 2733 
Q 2419 3097 1959 3097 
z
M 1959 3584 
Q 2709 3584 3137 3096 
Q 3566 2609 3566 1747 
Q 3566 888 3137 398 
Q 2709 -91 1959 -91 
Q 1206 -91 779 398 
Q 353 888 353 1747 
Q 353 2609 779 3096 
Q 1206 3584 1959 3584 
z
" transform="scale(0.015625)"/>
       <path id="DejaVuSans-1ea9" d="M 2292 5345 
Q 2642 5504 2970 5504 
Q 3295 5504 3493 5371 
Q 3692 5239 3692 5029 
Q 3692 4839 3417 4636 
L 3279 4536 
Q 3170 4454 3158 4426 
Q 3136 4376 3136 4276 
L 2764 4276 
L 2764 4314 
Q 2764 4439 2811 4523 
Q 2858 4608 3017 4723 
L 3158 4829 
Q 3301 4936 3301 5061 
Q 3301 5126 3204 5182 
Q 3108 5239 2886 5239 
Q 2604 5239 2292 5076 
L 2292 5345 
z
M 1562 4775 
L 2150 4775 
L 2809 3944 
L 2375 3944 
L 1856 4500 
L 1337 3944 
L 903 3944 
L 1562 4775 
z
M 2194 1759 
Q 1497 1759 1228 1600 
Q 959 1441 959 1056 
Q 959 750 1161 570 
Q 1363 391 1709 391 
Q 2188 391 2477 730 
Q 2766 1069 2766 1631 
L 2766 1759 
L 2194 1759 
z
M 3341 1997 
L 3341 0 
L 2766 0 
L 2766 531 
Q 2569 213 2275 61 
Q 1981 -91 1556 -91 
Q 1019 -91 701 211 
Q 384 513 384 1019 
Q 384 1609 779 1909 
Q 1175 2209 1959 2209 
L 2766 2209 
L 2766 2266 
Q 2766 2663 2505 2880 
Q 2244 3097 1772 3097 
Q 1472 3097 1187 3025 
Q 903 2953 641 2809 
L 641 3341 
Q 956 3463 1253 3523 
Q 1550 3584 1831 3584 
Q 2591 3584 2966 3190 
Q 3341 2797 3341 1997 
z
" transform="scale(0.015625)"/>
       <path id="DejaVuSans-6f" d="M 1959 3097 
Q 1497 3097 1228 2736 
Q 959 2375 959 1747 
Q 959 1119 1226 758 
Q 1494 397 1959 397 
Q 2419 397 2687 759 
Q 2956 1122 2956 1747 
Q 2956 2369 2687 2733 
Q 2419 3097 1959 3097 
z
M 1959 3584 
Q 2709 3584 3137 3096 
Q 3566 2609 3566 1747 
Q 3566 888 3137 398 
Q 2709 -91 1959 -91 
Q 1206 -91 779 398 
Q 353 888 353 1747 
Q 353 2609 779 3096 
Q 1206 3584 1959 3584 
z
" transform="scale(0.015625)"/>
       <path id="DejaVuSans-e1" d="M 2194 1759 
Q 1497 1759 1228 1600 
Q 959 1441 959 1056 
Q 959 750 1161 570 
Q 1363 391 1709 391 
Q 2188 391 2477 730 
Q 2766 1069 2766 1631 
L 2766 1759 
L 2194 1759 
z
M 3341 1997 
L 3341 0 
L 2766 0 
L 2766 531 
Q 2569 213 2275 61 
Q 1981 -91 1556 -91 
Q 1019 -91 701 211 
Q 384 513 384 1019 
Q 384 1609 779 1909 
Q 1175 2209 1959 2209 
L 2766 2209 
L 2766 2266 
Q 2766 2663 2505 2880 
Q 2244 3097 1772 3097 
Q 1472 3097 1187 3025 
Q 903 2953 641 2809 
L 641 3341 
Q 956 3463 1253 3523 
Q 1550 3584 1831 3584 
Q 2591 3584 2966 3190 
Q 3341 2797 3341 1997 
z
M 2290 5119 
L 2912 5119 
L 1894 3944 
L 1415 3944 
L 2290 5119 
z
" transform="scale(0.015625)"/>
      </defs>
      <use xlink:href="#DejaVuSans-110"/>
      <use xlink:href="#DejaVuSans-1ed9" transform="translate(77.490234 0)"/>
      <use xlink:href="#DejaVuSans-20" transform="translate(138.671875 0)"/>
      <use xlink:href="#DejaVuSans-6c" transform="translate(170.458984 0)"/>
      <use xlink:href="#DejaVuSans-1edb" transform="translate(198.242188 0)"/>
      <use xlink:href="#DejaVuSans-6e" transform="translate(259.423828 0)"/>
      <use xlink:href="#DejaVuSans-20" transform="translate(322.802734 0)"/>
      <use xlink:href="#DejaVuSans-74" transform="translate(354.589844 0)"/>
      <use xlink:href="#DejaVuSans-1b0" transform="translate(393.798828 0)"/>
      <use xlink:href="#DejaVuSans-1a1" transform="translate(457.177734 0)"/>
      <use xlink:href="#DejaVuSans-6e" transform="translate(518.359375 0)"/>
      <use xlink:href="#DejaVuSans-67" transform="translate(581.738281 0)"/>
      <use xlink:href="#DejaVuSans-20" transform="translate(645.214844 0)"/>
      <use xlink:href="#DejaVuSans-111" transform="translate(677.001953 0)"/>
      <use xlink:href="#DejaVuSans-1ed1" transform="translate(740.478516 0)"/>
      <use xlink:href="#DejaVuSans-69" transform="translate(801.660156 0)"/>
      <use xlink:href="#DejaVuSans-20" transform="translate(829.443359 0)"/>
      <use xlink:href="#DejaVuSans-28" transform="translate(861.230469 0)"/>
      <use xlink:href="#DejaVuSans-63" transform="translate(900.244141 0)"/>
      <use xlink:href="#DejaVuSans-68" transform="translate(955.224609 0)"/>
      <use xlink:href="#DejaVuSans-75" transform="translate(1018.603516 0)"/>
      <use xlink:href="#DejaVuSans-1ea9" transform="translate(1081.982422 0)"/>
      <use xlink:href="#DejaVuSans-6e" transform="translate(1143.261719 0)"/>
      <use xlink:href="#DejaVuSans-20" transform="translate(1206.640625 0)"/>
      <use xlink:href="#DejaVuSans-68" transform="translate(1238.427734 0)"/>
      <use xlink:href="#DejaVuSans-6f" transform="translate(1301.806641 0)"/>
      <use xlink:href="#DejaVuSans-e1" transform="translate(1362.988281 0)"/>
      <use xlink:href="#DejaVuSans-29" transform="translate(1424.267578 0)"/>
     </g>
    </g>
   </g>
   <g id="line2d_23">
    <path d="M 75.856875 265.186777 
L 610.469375 40.327273 
L 610.469375 40.327273 
" clip-path="url(#pe28ee78c95)" style="fill: none; stroke: #004c6d; stroke-width: 2; stroke-linecap: square"/>
   </g>
   <g id="line2d_24">
    <path d="M 75.856875 274.443786 
L 90.886142 269.328372 
L 108.062447 263.231147 
L 127.385791 256.111546 
L 148.856172 247.933914 
L 170.326554 239.519598 
L 193.943973 230.029917 
L 219.708431 219.435159 
L 247.619927 207.708225 
L 277.678461 194.82426 
L 309.884034 180.76034 
L 342.089606 166.456707 
L 376.442216 150.961999 
L 412.941865 134.255864 
L 451.588552 116.319224 
L 492.382277 97.134144 
L 535.32304 76.683719 
L 580.410841 54.951966 
L 610.469375 40.327273 
L 610.469375 40.327273 
" clip-path="url(#pe28ee78c95)" style="fill: none; stroke: #2a9d8f; stroke-width: 2; stroke-linecap: square"/>
   </g>
   <g id="line2d_25">
    <path d="M 75.856875 287.672727 
L 88.739104 286.471562 
L 101.621333 285.035385 
L 114.503562 283.364199 
L 127.385791 281.458001 
L 140.26802 279.316793 
L 153.150248 276.940574 
L 166.032477 274.329344 
L 178.914706 271.483104 
L 191.796935 268.401853 
L 204.679164 265.085592 
L 217.561393 261.53432 
L 230.443622 257.748037 
L 243.325851 253.726743 
L 256.20808 249.470439 
L 269.090309 244.979124 
L 281.972538 240.252799 
L 294.854767 235.291463 
L 307.736995 230.095116 
L 320.619224 224.663758 
L 333.501453 218.99739 
L 346.383682 213.096011 
L 359.265911 206.959622 
L 372.14814 200.588222 
L 385.030369 193.981811 
L 397.912598 187.14039 
L 410.794827 180.063958 
L 423.677056 172.752515 
L 436.559285 165.206062 
L 449.441514 157.424598 
L 462.323742 149.408123 
L 475.205971 141.156638 
L 488.0882 132.670142 
L 500.970429 123.948635 
L 513.852658 114.992118 
L 526.734887 105.80059 
L 541.764154 94.780113 
L 556.793421 83.439761 
L 571.822688 71.779533 
L 586.851955 59.799429 
L 601.881222 47.49945 
L 610.469375 40.327273 
L 610.469375 40.327273 
" clip-path="url(#pe28ee78c95)" style="fill: none; stroke: #ff7f0e; stroke-width: 2; stroke-linecap: square"/>
   </g>
   <g id="patch_3">
    <path d="M 49.12625 300.04 
L 49.12625 27.96 
" style="fill: none; stroke: #000000; stroke-width: 0.8; stroke-linejoin: miter; stroke-linecap: square"/>
   </g>
   <g id="patch_4">
    <path d="M 637.2 300.04 
L 637.2 27.96 
" style="fill: none; stroke: #000000; stroke-width: 0.8; stroke-linejoin: miter; stroke-linecap: square"/>
   </g>
   <g id="patch_5">
    <path d="M 49.12625 300.04 
L 637.2 300.04 
" style="fill: none; stroke: #000000; stroke-width: 0.8; stroke-linejoin: miter; stroke-linecap: square"/>
   </g>
   <g id="patch_6">
    <path d="M 49.12625 27.96 
L 637.2 27.96 
" style="fill: none; stroke: #000000; stroke-width: 0.8; stroke-linejoin: miter; stroke-linecap: square"/>
   </g>
   <g id="text_14">
    <!-- Tối Ưu Độ Phức Tạp Thuật Toán -->
    <g transform="translate(248.681875 21.96) scale(0.12 -0.12)">
     <defs>
      <path id="DejaVuSans-54" d="M -19 4666 
L 3928 4666 
L 3928 4134 
L 2272 4134 
L 2272 0 
L 1638 0 
L 1638 4134 
L -19 4134 
L -19 4666 
z
" transform="scale(0.015625)"/>
      <path id="DejaVuSans-1af" d="M 540 4730 
L 1175 4730 
L 1175 1895 
Q 1175 1145 1446 815 
Q 1718 486 2328 486 
Q 2934 486 3206 815 
Q 3478 1145 3478 1895 
L 3478 4730 
L 4112 4730 
L 4112 1817 
Q 4112 905 3660 439 
Q 3209 -27 2328 -27 
Q 1443 -27 991 439 
Q 540 905 540 1817 
L 540 4730 
z
M 3862 4032 
L 3862 4404 
Q 4053 4263 4190 4196 
Q 4328 4129 4425 4129 
Q 4568 4129 4640 4215 
Q 4712 4301 4712 4469 
Q 4712 4569 4688 4666 
Q 4665 4763 4618 4860 
L 5034 4860 
Q 5065 4741 5080 4635 
Q 5096 4529 5096 4435 
Q 5096 4054 4960 3874 
Q 4825 3694 4534 3694 
Q 4384 3694 4220 3777 
Q 4056 3860 3862 4032 
z
" transform="scale(0.015625)"/>
      <path id="DejaVuSans-50" d="M 1259 4147 
L 1259 2394 
L 2053 2394 
Q 2494 2394 2734 2622 
Q 2975 2850 2975 3272 
Q 2975 3691 2734 3919 
Q 2494 4147 2053 4147 
L 1259 4147 
z
M 628 4666 
L 2053 4666 
Q 2838 4666 3239 4311 
Q 3641 3956 3641 3272 
Q 3641 2581 3239 2228 
Q 2838 1875 2053 1875 
L 1259 1875 
L 1259 0 
L 628 0 
L 628 4666 
z
" transform="scale(0.015625)"/>
      <path id="DejaVuSans-1ee9" d="M 2418 5119 
L 3040 5119 
L 2022 3944 
L 1543 3944 
L 2418 5119 
z
M 3094 3136 
L 3094 3508 
Q 3285 3367 3422 3300 
Q 3560 3233 3657 3233 
Q 3800 3233 3872 3319 
Q 3944 3405 3944 3573 
Q 3944 3673 3920 3770 
Q 3897 3867 3850 3964 
L 4266 3964 
Q 4297 3845 4312 3739 
Q 4328 3633 4328 3539 
Q 4328 3158 4192 2978 
Q 4057 2798 3766 2798 
Q 3616 2798 3452 2881 
Q 3288 2964 3094 3136 
z
M 552 1381 
L 552 3500 
L 1127 3500 
L 1127 1403 
Q 1127 906 1320 657 
Q 1514 409 1902 409 
Q 2367 409 2637 706 
Q 2908 1003 2908 1516 
L 2908 3500 
L 3483 3500 
L 3483 0 
L 2908 0 
L 2908 538 
Q 2699 219 2422 64 
Q 2146 -91 1780 -91 
Q 1177 -91 864 284 
Q 552 659 552 1381 
z
M 1999 3584 
L 1999 3584 
z
" transform="scale(0.015625)"/>
      <path id="DejaVuSans-1ea1" d="M 1410 -441 
L 1985 -441 
L 1985 -1172 
L 1410 -1172 
L 1410 -441 
z
M 2194 1759 
Q 1497 1759 1228 1600 
Q 959 1441 959 1056 
Q 959 750 1161 570 
Q 1363 391 1709 391 
Q 2188 391 2477 730 
Q 2766 1069 2766 1631 
L 2766 1759 
L 2194 1759 
z
M 3341 1997 
L 3341 0 
L 2766 0 
L 2766 531 
Q 2569 213 2275 61 
Q 1981 -91 1556 -91 
Q 1019 -91 701 211 
Q 384 513 384 1019 
Q 384 1609 779 1909 
Q 1175 2209 1959 2209 
L 2766 2209 
L 2766 2266 
Q 2766 2663 2505 2880 
Q 2244 3097 1772 3097 
Q 1472 3097 1187 3025 
Q 903 2953 641 2809 
L 641 3341 
Q 956 3463 1253 3523 
Q 1550 3584 1831 3584 
Q 2591 3584 2966 3190 
Q 3341 2797 3341 1997 
z
" transform="scale(0.015625)"/>
      <path id="DejaVuSans-70" d="M 1159 525 
L 1159 -1331 
L 581 -1331 
L 581 3500 
L 1159 3500 
L 1159 2969 
Q 1341 3281 1617 3432 
Q 1894 3584 2278 3584 
Q 2916 3584 3314 3078 
Q 3713 2572 3713 1747 
Q 3713 922 3314 415 
Q 2916 -91 2278 -91 
Q 1894 -91 1617 61 
Q 1341 213 1159 525 
z
M 3116 1747 
Q 3116 2381 2855 2742 
Q 2594 3103 2138 3103 
Q 1681 3103 1420 2742 
Q 1159 2381 1159 1747 
Q 1159 1113 1420 752 
Q 1681 391 2138 391 
Q 2594 391 2855 752 
Q 3116 1113 3116 1747 
z
" transform="scale(0.015625)"/>
      <path id="DejaVuSans-1ead" d="M 2194 1759 
Q 1497 1759 1228 1600 
Q 959 1441 959 1056 
Q 959 750 1161 570 
Q 1363 391 1709 391 
Q 2188 391 2477 730 
Q 2766 1069 2766 1631 
L 2766 1759 
L 2194 1759 
z
M 3341 1997 
L 3341 0 
L 2766 0 
L 2766 531 
Q 2569 213 2275 61 
Q 1981 -91 1556 -91 
Q 1019 -91 701 211 
Q 384 513 384 1019 
Q 384 1609 779 1909 
Q 1175 2209 1959 2209 
L 2766 2209 
L 2766 2266 
Q 2766 2663 2505 2880 
Q 2244 3097 1772 3097 
Q 1472 3097 1187 3025 
Q 903 2953 641 2809 
L 641 3341 
Q 956 3463 1253 3523 
Q 1550 3584 1831 3584 
Q 2591 3584 2966 3190 
Q 3341 2797 3341 1997 
z
M 1625 5119 
L 2087 5119 
L 2853 3944 
L 2419 3944 
L 1856 4709 
L 1294 3944 
L 859 3944 
L 1625 5119 
z
M 1410 -441 
L 1985 -441 
L 1985 -1172 
L 1410 -1172 
L 1410 -441 
z
" transform="scale(0.015625)"/>
     </defs>
     <use xlink:href="#DejaVuSans-54"/>
     <use xlink:href="#DejaVuSans-1ed1" transform="translate(61.083984 0)"/>
     <use xlink:href="#DejaVuSans-69" transform="translate(122.265625 0)"/>
     <use xlink:href="#DejaVuSans-20" transform="translate(150.048828 0)"/>
     <use xlink:href="#DejaVuSans-1af" transform="translate(181.835938 0)"/>
     <use xlink:href="#DejaVuSans-75" transform="translate(267.626953 0)"/>
     <use xlink:href="#DejaVuSans-20" transform="translate(331.005859 0)"/>
     <use xlink:href="#DejaVuSans-110" transform="translate(362.792969 0)"/>
     <use xlink:href="#DejaVuSans-1ed9" transform="translate(440.283203 0)"/>
     <use xlink:href="#DejaVuSans-20" transform="translate(501.464844 0)"/>
     <use xlink:href="#DejaVuSans-50" transform="translate(533.251953 0)"/>
     <use xlink:href="#DejaVuSans-68" transform="translate(593.554688 0)"/>
     <use xlink:href="#DejaVuSans-1ee9" transform="translate(656.933594 0)"/>
     <use xlink:href="#DejaVuSans-63" transform="translate(720.3125 0)"/>
     <use xlink:href="#DejaVuSans-20" transform="translate(775.292969 0)"/>
     <use xlink:href="#DejaVuSans-54" transform="translate(807.080078 0)"/>
     <use xlink:href="#DejaVuSans-1ea1" transform="translate(868.164062 0)"/>
     <use xlink:href="#DejaVuSans-70" transform="translate(929.443359 0)"/>
     <use xlink:href="#DejaVuSans-20" transform="translate(992.919922 0)"/>
     <use xlink:href="#DejaVuSans-54" transform="translate(1024.707031 0)"/>
     <use xlink:href="#DejaVuSans-68" transform="translate(1085.791016 0)"/>
     <use xlink:href="#DejaVuSans-75" transform="translate(1149.169922 0)"/>
     <use xlink:href="#DejaVuSans-1ead" transform="translate(1212.548828 0)"/>
     <use xlink:href="#DejaVuSans-74" transform="translate(1273.828125 0)"/>
     <use xlink:href="#DejaVuSans-20" transform="translate(1313.037109 0)"/>
     <use xlink:href="#DejaVuSans-54" transform="translate(1344.824219 0)"/>
     <use xlink:href="#DejaVuSans-6f" transform="translate(1388.908203 0)"/>
     <use xlink:href="#DejaVuSans-e1" transform="translate(1450.089844 0)"/>
     <use xlink:href="#DejaVuSans-6e" transform="translate(1511.369141 0)"/>
    </g>
   </g>
   <g id="legend_1">
    <g id="patch_7">
     <path d="M 56.12625 79.994375 
L 138.077813 79.994375 
Q 140.077813 79.994375 140.077813 77.994375 
L 140.077813 34.96 
Q 140.077813 32.96 138.077813 32.96 
L 56.12625 32.96 
Q 54.12625 32.96 54.12625 34.96 
L 54.12625 77.994375 
Q 54.12625 79.994375 56.12625 79.994375 
z
" style="fill: #ffffff; opacity: 0.8; stroke: #cccccc; stroke-linejoin: miter"/>
    </g>
    <g id="line2d_26">
     <path d="M 58.12625 41.058437 
L 68.12625 41.058437 
L 78.12625 41.058437 
" style="fill: none; stroke: #004c6d; stroke-width: 2; stroke-linecap: square"/>
    </g>
    <g id="text_15">
     <!-- O(n) -->
     <g transform="translate(86.12625 44.558437) scale(0.1 -0.1)">
      <defs>
       <path id="DejaVuSans-4f" d="M 2522 4238 
Q 1834 4238 1429 3725 
Q 1025 3213 1025 2328 
Q 1025 1447 1429 934 
Q 1834 422 2522 422 
Q 3209 422 3611 934 
Q 4013 1447 4013 2328 
Q 4013 3213 3611 3725 
Q 3209 4238 2522 4238 
z
M 2522 4750 
Q 3503 4750 4090 4092 
Q 4678 3434 4678 2328 
Q 4678 1225 4090 567 
Q 3503 -91 2522 -91 
Q 1538 -91 948 565 
Q 359 1222 359 2328 
Q 359 3434 948 4092 
Q 1538 4750 2522 4750 
z
" transform="scale(0.015625)"/>
      </defs>
      <use xlink:href="#DejaVuSans-4f"/>
      <use xlink:href="#DejaVuSans-28" transform="translate(78.710938 0)"/>
      <use xlink:href="#DejaVuSans-6e" transform="translate(117.724609 0)"/>
      <use xlink:href="#DejaVuSans-29" transform="translate(181.103516 0)"/>
     </g>
    </g>
    <g id="line2d_27">
     <path d="M 58.12625 55.736562 
L 68.12625 55.736562 
L 78.12625 55.736562 
" style="fill: none; stroke: #2a9d8f; stroke-width: 2; stroke-linecap: square"/>
    </g>
    <g id="text_16">
     <!-- O(n log n) -->
     <g transform="translate(86.12625 59.236562) scale(0.1 -0.1)">
      <use xlink:href="#DejaVuSans-4f"/>
      <use xlink:href="#DejaVuSans-28" transform="translate(78.710938 0)"/>
      <use xlink:href="#DejaVuSans-6e" transform="translate(117.724609 0)"/>
      <use xlink:href="#DejaVuSans-20" transform="translate(181.103516 0)"/>
      <use xlink:href="#DejaVuSans-6c" transform="translate(212.890625 0)"/>
      <use xlink:href="#DejaVuSans-6f" transform="translate(240.673828 0)"/>
      <use xlink:href="#DejaVuSans-67" transform="translate(301.855469 0)"/>
      <use xlink:href="#DejaVuSans-20" transform="translate(365.332031 0)"/>
      <use xlink:href="#DejaVuSans-6e" transform="translate(397.119141 0)"/>
      <use xlink:href="#DejaVuSans-29" transform="translate(460.498047 0)"/>
     </g>
    </g>
    <g id="line2d_28">
     <path d="M 58.12625 70.414687 
L 68.12625 70.414687 
L 78.12625 70.414687 
" style="fill: none; stroke: #ff7f0e; stroke-width: 2; stroke-linecap: square"/>
    </g>
    <g id="text_17">
     <!-- O(n²) -->
     <g transform="translate(86.12625 73.914687) scale(0.1 -0.1)">
      <defs>
       <path id="DejaVuSans-b2" d="M 838 2444 
L 2163 2444 
L 2163 2088 
L 294 2088 
L 294 2431 
Q 400 2528 597 2703 
Q 1672 3656 1672 3950 
Q 1672 4156 1509 4282 
Q 1347 4409 1081 4409 
Q 919 4409 728 4354 
Q 538 4300 313 4191 
L 313 4575 
Q 553 4663 761 4706 
Q 969 4750 1147 4750 
Q 1600 4750 1872 4544 
Q 2144 4338 2144 4000 
Q 2144 3566 1109 2678 
Q 934 2528 838 2444 
z
" transform="scale(0.015625)"/>
      </defs>
      <use xlink:href="#DejaVuSans-4f"/>
      <use xlink:href="#DejaVuSans-28" transform="translate(78.710938 0)"/>
      <use xlink:href="#DejaVuSans-6e" transform="translate(117.724609 0)"/>
      <use xlink:href="#DejaVuSans-b2" transform="translate(181.103516 0)"/>
      <use xlink:href="#DejaVuSans-29" transform="translate(221.191406 0)"/>
     </g>
    </g>
   </g>
  </g>
  <g id="text_18">
   <!-- Giảm độ phức tạp từ O(n²) xuống O(n log n) hay O(n) là bước tiến lớn, đảm bảo hệ thống duy trì tốc độ và độ ổn định khi dữ liệu tăng. -->
   <g transform="translate(12.96 350.928281) scale(0.09 -0.09)">
    <defs>
     <path id="DejaVuSans-47" d="M 3809 666 
L 3809 1919 
L 2778 1919 
L 2778 2438 
L 4434 2438 
L 4434 434 
Q 4069 175 3628 42 
Q 3188 -91 2688 -91 
Q 1594 -91 976 548 
Q 359 1188 359 2328 
Q 359 3472 976 4111 
Q 1594 4750 2688 4750 
Q 3144 4750 3555 4637 
Q 3966 4525 4313 4306 
L 4313 3634 
Q 3963 3931 3569 4081 
Q 3175 4231 2741 4231 
Q 1884 4231 1454 3753 
Q 1025 3275 1025 2328 
Q 1025 1384 1454 906 
Q 1884 428 2741 428 
Q 3075 428 3337 486 
Q 3600 544 3809 666 
z
" transform="scale(0.015625)"/>
     <path id="DejaVuSans-1ea3" d="M 2194 1759 
Q 1497 1759 1228 1600 
Q 959 1441 959 1056 
Q 959 750 1161 570 
Q 1363 391 1709 391 
Q 2188 391 2477 730 
Q 2766 1069 2766 1631 
L 2766 1759 
L 2194 1759 
z
M 3341 1997 
L 3341 0 
L 2766 0 
L 2766 531 
Q 2569 213 2275 61 
Q 1981 -91 1556 -91 
Q 1019 -91 701 211 
Q 384 513 384 1019 
Q 384 1609 779 1909 
Q 1175 2209 1959 2209 
L 2766 2209 
L 2766 2266 
Q 2766 2663 2505 2880 
Q 2244 3097 1772 3097 
Q 1472 3097 1187 3025 
Q 903 2953 641 2809 
L 641 3341 
Q 956 3463 1253 3523 
Q 1550 3584 1831 3584 
Q 2591 3584 2966 3190 
Q 3341 2797 3341 1997 
z
M 1236 5025 
Q 1586 5184 1914 5184 
Q 2239 5184 2437 5051 
Q 2636 4919 2636 4709 
Q 2636 4519 2361 4316 
L 2223 4216 
Q 2114 4134 2102 4106 
Q 2080 4056 2080 3956 
L 1708 3956 
L 1708 3994 
Q 1708 4119 1755 4203 
Q 1802 4288 1961 4403 
L 2102 4509 
Q 2245 4616 2245 4741 
Q 2245 4806 2148 4862 
Q 2052 4919 1830 4919 
Q 1548 4919 1236 4756 
L 1236 5025 
z
" transform="scale(0.015625)"/>
     <path id="DejaVuSans-6d" d="M 3328 2828 
Q 3544 3216 3844 3400 
Q 4144 3584 4550 3584 
Q 5097 3584 5394 3201 
Q 5691 2819 5691 2113 
L 5691 0 
L 5113 0 
L 5113 2094 
Q 5113 2597 4934 2840 
Q 4756 3084 4391 3084 
Q 3944 3084 3684 2787 
Q 3425 2491 3425 1978 
L 3425 0 
L 2847 0 
L 2847 2094 
Q 2847 2600 2669 2842 
Q 2491 3084 2119 3084 
Q 1678 3084 1418 2786 
Q 1159 2488 1159 1978 
L 1159 0 
L 581 0 
L 581 3500 
L 1159 3500 
L 1159 2956 
Q 1356 3278 1631 3431 
Q 1906 3584 2284 3584 
Q 2666 3584 2933 3390 
Q 3200 3197 3328 2828 
z
" transform="scale(0.015625)"/>
     <path id="DejaVuSans-1eeb" d="M 1531 5119 
L 2412 3950 
L 1934 3950 
L 915 5119 
L 1531 5119 
z
M 3094 3136 
L 3094 3508 
Q 3285 3367 3422 3300 
Q 3560 3233 3657 3233 
Q 3800 3233 3872 3319 
Q 3944 3405 3944 3573 
Q 3944 3673 3920 3770 
Q 3897 3867 3850 3964 
L 4266 3964 
Q 4297 3845 4312 3739 
Q 4328 3633 4328 3539 
Q 4328 3158 4192 2978 
Q 4057 2798 3766 2798 
Q 3616 2798 3452 2881 
Q 3288 2964 3094 3136 
z
M 552 1381 
L 552 3500 
L 1127 3500 
L 1127 1403 
Q 1127 906 1320 657 
Q 1514 409 1902 409 
Q 2367 409 2637 706 
Q 2908 1003 2908 1516 
L 2908 3500 
L 3483 3500 
L 3483 0 
L 2908 0 
L 2908 538 
Q 2699 219 2422 64 
Q 2146 -91 1780 -91 
Q 1177 -91 864 284 
Q 552 659 552 1381 
z
M 1999 3584 
L 1999 3584 
z
" transform="scale(0.015625)"/>
     <path id="DejaVuSans-78" d="M 3513 3500 
L 2247 1797 
L 3578 0 
L 2900 0 
L 1881 1375 
L 863 0 
L 184 0 
L 1544 1831 
L 300 3500 
L 978 3500 
L 1906 2253 
L 2834 3500 
L 3513 3500 
z
" transform="scale(0.015625)"/>
     <path id="DejaVuSans-61" d="M 2194 1759 
Q 1497 1759 1228 1600 
Q 959 1441 959 1056 
Q 959 750 1161 570 
Q 1363 391 1709 391 
Q 2188 391 2477 730 
Q 2766 1069 2766 1631 
L 2766 1759 
L 2194 1759 
z
M 3341 1997 
L 3341 0 
L 2766 0 
L 2766 531 
Q 2569 213 2275 61 
Q 1981 -91 1556 -91 
Q 1019 -91 701 211 
Q 384 513 384 1019 
Q 384 1609 779 1909 
Q 1175 2209 1959 2209 
L 2766 2209 
L 2766 2266 
Q 2766 2663 2505 2880 
Q 2244 3097 1772 3097 
Q 1472 3097 1187 3025 
Q 903 2953 641 2809 
L 641 3341 
Q 956 3463 1253 3523 
Q 1550 3584 1831 3584 
Q 2591 3584 2966 3190 
Q 3341 2797 3341 1997 
z
" transform="scale(0.015625)"/>
     <path id="DejaVuSans-79" d="M 2059 -325 
Q 1816 -950 1584 -1140 
Q 1353 -1331 966 -1331 
L 506 -1331 
L 506 -850 
L 844 -850 
Q 1081 -850 1212 -737 
Q 1344 -625 1503 -206 
L 1606 56 
L 191 3500 
L 800 3500 
L 1894 763 
L 2988 3500 
L 3597 3500 
L 2059 -325 
z
" transform="scale(0.015625)"/>
     <path id="DejaVuSans-e0" d="M 2194 1759 
Q 1497 1759 1228 1600 
Q 959 1441 959 1056 
Q 959 750 1161 570 
Q 1363 391 1709 391 
Q 2188 391 2477 730 
Q 2766 1069 2766 1631 
L 2766 1759 
L 2194 1759 
z
M 3341 1997 
L 3341 0 
L 2766 0 
L 2766 531 
Q 2569 213 2275 61 
Q 1981 -91 1556 -91 
Q 1019 -91 701 211 
Q 384 513 384 1019 
Q 384 1609 779 1909 
Q 1175 2209 1959 2209 
L 2766 2209 
L 2766 2266 
Q 2766 2663 2505 2880 
Q 2244 3097 1772 3097 
Q 1472 3097 1187 3025 
Q 903 2953 641 2809 
L 641 3341 
Q 956 3463 1253 3523 
Q 1550 3584 1831 3584 
Q 2591 3584 2966 3190 
Q 3341 2797 3341 1997 
z
M 1403 5119 
L 2284 3950 
L 1806 3950 
L 787 5119 
L 1403 5119 
z
" transform="scale(0.015625)"/>
     <path id="DejaVuSans-62" d="M 3116 1747 
Q 3116 2381 2855 2742 
Q 2594 3103 2138 3103 
Q 1681 3103 1420 2742 
Q 1159 2381 1159 1747 
Q 1159 1113 1420 752 
Q 1681 391 2138 391 
Q 2594 391 2855 752 
Q 3116 1113 3116 1747 
z
M 1159 2969 
Q 1341 3281 1617 3432 
Q 1894 3584 2278 3584 
Q 2916 3584 3314 3078 
Q 3713 2572 3713 1747 
Q 3713 922 3314 415 
Q 2916 -91 2278 -91 
Q 1894 -91 1617 61 
Q 1341 213 1159 525 
L 1159 0 
L 581 0 
L 581 4863 
L 1159 4863 
L 1159 2969 
z
" transform="scale(0.015625)"/>
     <path id="DejaVuSans-1ebf" d="M 1738 4775 
L 2326 4775 
L 2985 3944 
L 2551 3944 
L 2032 4500 
L 1513 3944 
L 1079 3944 
L 1738 4775 
z
M 3348 5409 
L 3926 5409 
L 3214 4584 
L 2735 4584 
L 3348 5409 
z
M 3597 1894 
L 3597 1613 
L 953 1613 
Q 991 1019 1311 708 
Q 1631 397 2203 397 
Q 2534 397 2845 478 
Q 3156 559 3463 722 
L 3463 178 
Q 3153 47 2828 -22 
Q 2503 -91 2169 -91 
Q 1331 -91 842 396 
Q 353 884 353 1716 
Q 353 2575 817 3079 
Q 1281 3584 2069 3584 
Q 2775 3584 3186 3129 
Q 3597 2675 3597 1894 
z
M 3022 2063 
Q 3016 2534 2758 2815 
Q 2500 3097 2075 3097 
Q 1594 3097 1305 2825 
Q 1016 2553 972 2059 
L 3022 2063 
z
" transform="scale(0.015625)"/>
     <path id="DejaVuSans-2c" d="M 750 794 
L 1409 794 
L 1409 256 
L 897 -744 
L 494 -744 
L 750 256 
L 750 794 
z
" transform="scale(0.015625)"/>
     <path id="DejaVuSans-72" d="M 2631 2963 
Q 2534 3019 2420 3045 
Q 2306 3072 2169 3072 
Q 1681 3072 1420 2755 
Q 1159 2438 1159 1844 
L 1159 0 
L 581 0 
L 581 3500 
L 1159 3500 
L 1159 2956 
Q 1341 3275 1631 3429 
Q 1922 3584 2338 3584 
Q 2397 3584 2469 3576 
Q 2541 3569 2628 3553 
L 2631 2963 
z
" transform="scale(0.015625)"/>
     <path id="DejaVuSans-ec" d="M 435 5119 
L 1316 3950 
L 838 3950 
L -181 5119 
L 435 5119 
z
M 603 3500 
L 1178 3500 
L 1178 0 
L 603 0 
L 603 3500 
z
M 891 3584 
L 891 3584 
z
" transform="scale(0.015625)"/>
     <path id="DejaVuSans-76" d="M 191 3500 
L 800 3500 
L 1894 563 
L 2988 3500 
L 3597 3500 
L 2284 0 
L 1503 0 
L 191 3500 
z
" transform="scale(0.015625)"/>
     <path id="DejaVuSans-1ed5" d="M 2388 5345 
Q 2738 5504 3066 5504 
Q 3391 5504 3589 5371 
Q 3788 5239 3788 5029 
Q 3788 4839 3513 4636 
L 3375 4536 
Q 3266 4454 3254 4426 
Q 3232 4376 3232 4276 
L 2860 4276 
L 2860 4314 
Q 2860 4439 2907 4523 
Q 2954 4608 3113 4723 
L 3254 4829 
Q 3397 4936 3397 5061 
Q 3397 5126 3300 5182 
Q 3204 5239 2982 5239 
Q 2700 5239 2388 5076 
L 2388 5345 
z
M 1658 4775 
L 2246 4775 
L 2905 3944 
L 2471 3944 
L 1952 4500 
L 1433 3944 
L 999 3944 
L 1658 4775 
z
M 1959 3097 
Q 1497 3097 1228 2736 
Q 959 2375 959 1747 
Q 959 1119 1226 758 
Q 1494 397 1959 397 
Q 2419 397 2687 759 
Q 2956 1122 2956 1747 
Q 2956 2369 2687 2733 
Q 2419 3097 1959 3097 
z
M 1959 3584 
Q 2709 3584 3137 3096 
Q 3566 2609 3566 1747 
Q 3566 888 3137 398 
Q 2709 -91 1959 -91 
Q 1206 -91 779 398 
Q 353 888 353 1747 
Q 353 2609 779 3096 
Q 1206 3584 1959 3584 
z
" transform="scale(0.015625)"/>
     <path id="DejaVuSans-1ecb" d="M 603 3500 
L 1178 3500 
L 1178 0 
L 603 0 
L 603 3500 
z
M 603 4863 
L 1178 4863 
L 1178 4134 
L 603 4134 
L 603 4863 
z
M 594 -441 
L 1169 -441 
L 1169 -1172 
L 594 -1172 
L 594 -441 
z
" transform="scale(0.015625)"/>
     <path id="DejaVuSans-6b" d="M 581 4863 
L 1159 4863 
L 1159 1991 
L 2875 3500 
L 3609 3500 
L 1753 1863 
L 3688 0 
L 2938 0 
L 1159 1709 
L 1159 0 
L 581 0 
L 581 4863 
z
" transform="scale(0.015625)"/>
     <path id="DejaVuSans-103" d="M 870 4897 
L 1239 4897 
Q 1273 4663 1424 4545 
Q 1576 4428 1848 4428 
Q 2117 4428 2267 4544 
Q 2417 4660 2457 4897 
L 2826 4897 
Q 2795 4450 2548 4225 
Q 2301 4000 1848 4000 
Q 1395 4000 1148 4225 
Q 901 4450 870 4897 
z
M 2194 1759 
Q 1497 1759 1228 1600 
Q 959 1441 959 1056 
Q 959 750 1161 570 
Q 1363 391 1709 391 
Q 2188 391 2477 730 
Q 2766 1069 2766 1631 
L 2766 1759 
L 2194 1759 
z
M 3341 1997 
L 3341 0 
L 2766 0 
L 2766 531 
Q 2569 213 2275 61 
Q 1981 -91 1556 -91 
Q 1019 -91 701 211 
Q 384 513 384 1019 
Q 384 1609 779 1909 
Q 1175 2209 1959 2209 
L 2766 2209 
L 2766 2266 
Q 2766 2663 2505 2880 
Q 2244 3097 1772 3097 
Q 1472 3097 1187 3025 
Q 903 2953 641 2809 
L 641 3341 
Q 956 3463 1253 3523 
Q 1550 3584 1831 3584 
Q 2591 3584 2966 3190 
Q 3341 2797 3341 1997 
z
" transform="scale(0.015625)"/>
    </defs>
    <use xlink:href="#DejaVuSans-47"/>
    <use xlink:href="#DejaVuSans-69" transform="translate(77.490234 0)"/>
    <use xlink:href="#DejaVuSans-1ea3" transform="translate(105.273438 0)"/>
    <use xlink:href="#DejaVuSans-6d" transform="translate(166.552734 0)"/>
    <use xlink:href="#DejaVuSans-20" transform="translate(263.964844 0)"/>
    <use xlink:href="#DejaVuSans-111" transform="translate(295.751953 0)"/>
    <use xlink:href="#DejaVuSans-1ed9" transform="translate(359.228516 0)"/>
    <use xlink:href="#DejaVuSans-20" transform="translate(420.410156 0)"/>
    <use xlink:href="#DejaVuSans-70" transform="translate(452.197266 0)"/>
    <use xlink:href="#DejaVuSans-68" transform="translate(515.673828 0)"/>
    <use xlink:href="#DejaVuSans-1ee9" transform="translate(579.052734 0)"/>
    <use xlink:href="#DejaVuSans-63" transform="translate(642.431641 0)"/>
    <use xlink:href="#DejaVuSans-20" transform="translate(697.412109 0)"/>
    <use xlink:href="#DejaVuSans-74" transform="translate(729.199219 0)"/>
    <use xlink:href="#DejaVuSans-1ea1" transform="translate(768.408203 0)"/>
    <use xlink:href="#DejaVuSans-70" transform="translate(829.6875 0)"/>
    <use xlink:href="#DejaVuSans-20" transform="translate(893.164062 0)"/>
    <use xlink:href="#DejaVuSans-74" transform="translate(924.951172 0)"/>
    <use xlink:href="#DejaVuSans-1eeb" transform="translate(964.160156 0)"/>
    <use xlink:href="#DejaVuSans-20" transform="translate(1027.539062 0)"/>
    <use xlink:href="#DejaVuSans-4f" transform="translate(1059.326172 0)"/>
    <use xlink:href="#DejaVuSans-28" transform="translate(1138.037109 0)"/>
    <use xlink:href="#DejaVuSans-6e" transform="translate(1177.050781 0)"/>
    <use xlink:href="#DejaVuSans-b2" transform="translate(1240.429688 0)"/>
    <use xlink:href="#DejaVuSans-29" transform="translate(1280.517578 0)"/>
    <use xlink:href="#DejaVuSans-20" transform="translate(1319.53125 0)"/>
    <use xlink:href="#DejaVuSans-78" transform="translate(1351.318359 0)"/>
    <use xlink:href="#DejaVuSans-75" transform="translate(1410.498047 0)"/>
    <use xlink:href="#DejaVuSans-1ed1" transform="translate(1473.876953 0)"/>
    <use xlink:href="#DejaVuSans-6e" transform="translate(1535.058594 0)"/>
    <use xlink:href="#DejaVuSans-67" transform="translate(1598.4375 0)"/>
    <use xlink:href="#DejaVuSans-20" transform="translate(1661.914062 0)"/>
    <use xlink:href="#DejaVuSans-4f" transform="translate(1693.701172 0)"/>
    <use xlink:href="#DejaVuSans-28" transform="translate(1772.412109 0)"/>
    <use xlink:href="#DejaVuSans-6e" transform="translate(1811.425781 0)"/>
    <use xlink:href="#DejaVuSans-20" transform="translate(1874.804688 0)"/>
    <use xlink:href="#DejaVuSans-6c" transform="translate(1906.591797 0)"/>
    <use xlink:href="#DejaVuSans-6f" transform="translate(1934.375 0)"/>
    <use xlink:href="#DejaVuSans-67" transform="translate(1995.556641 0)"/>
    <use xlink:href="#DejaVuSans-20" transform="translate(2059.033203 0)"/>
    <use xlink:href="#DejaVuSans-6e" transform="translate(2090.820312 0)"/>
    <use xlink:href="#DejaVuSans-29" transform="translate(2154.199219 0)"/>
    <use xlink:href="#DejaVuSans-20" transform="translate(2193.212891 0)"/>
    <use xlink:href="#DejaVuSans-68" transform="translate(2225 0)"/>
    <use xlink:href="#DejaVuSans-61" transform="translate(2288.378906 0)"/>
    <use xlink:href="#DejaVuSans-79" transform="translate(2349.658203 0)"/>
    <use xlink:href="#DejaVuSans-20" transform="translate(2408.837891 0)"/>
    <use xlink:href="#DejaVuSans-4f" transform="translate(2440.625 0)"/>
    <use xlink:href="#DejaVuSans-28" transform="translate(2519.335938 0)"/>
    <use xlink:href="#DejaVuSans-6e" transform="translate(2558.349609 0)"/>
    <use xlink:href="#DejaVuSans-29" transform="translate(2621.728516 0)"/>
    <use xlink:href="#DejaVuSans-20" transform="translate(2660.742188 0)"/>
    <use xlink:href="#DejaVuSans-6c" transform="translate(2692.529297 0)"/>
    <use xlink:href="#DejaVuSans-e0" transform="translate(2720.3125 0)"/>
    <use xlink:href="#DejaVuSans-20" transform="translate(2781.591797 0)"/>
    <use xlink:href="#DejaVuSans-62" transform="translate(2813.378906 0)"/>
    <use xlink:href="#DejaVuSans-1b0" transform="translate(2876.855469 0)"/>
    <use xlink:href="#DejaVuSans-1edb" transform="translate(2940.234375 0)"/>
    <use xlink:href="#DejaVuSans-63" transform="translate(3001.416016 0)"/>
    <use xlink:href="#DejaVuSans-20" transform="translate(3056.396484 0)"/>
    <use xlink:href="#DejaVuSans-74" transform="translate(3088.183594 0)"/>
    <use xlink:href="#DejaVuSans-69" transform="translate(3127.392578 0)"/>
    <use xlink:href="#DejaVuSans-1ebf" transform="translate(3155.175781 0)"/>
    <use xlink:href="#DejaVuSans-6e" transform="translate(3216.699219 0)"/>
    <use xlink:href="#DejaVuSans-20" transform="translate(3280.078125 0)"/>
    <use xlink:href="#DejaVuSans-6c" transform="translate(3311.865234 0)"/>
    <use xlink:href="#DejaVuSans-1edb" transform="translate(3339.648438 0)"/>
    <use xlink:href="#DejaVuSans-6e" transform="translate(3400.830078 0)"/>
    <use xlink:href="#DejaVuSans-2c" transform="translate(3464.208984 0)"/>
    <use xlink:href="#DejaVuSans-20" transform="translate(3495.996094 0)"/>
    <use xlink:href="#DejaVuSans-111" transform="translate(3527.783203 0)"/>
    <use xlink:href="#DejaVuSans-1ea3" transform="translate(3591.259766 0)"/>
    <use xlink:href="#DejaVuSans-6d" transform="translate(3652.539062 0)"/>
    <use xlink:href="#DejaVuSans-20" transform="translate(3749.951172 0)"/>
    <use xlink:href="#DejaVuSans-62" transform="translate(3781.738281 0)"/>
    <use xlink:href="#DejaVuSans-1ea3" transform="translate(3845.214844 0)"/>
    <use xlink:href="#DejaVuSans-6f" transform="translate(3906.494141 0)"/>
    <use xlink:href="#DejaVuSans-20" transform="translate(3967.675781 0)"/>
    <use xlink:href="#DejaVuSans-68" transform="translate(3999.462891 0)"/>
    <use xlink:href="#DejaVuSans-1ec7" transform="translate(4062.841797 0)"/>
    <use xlink:href="#DejaVuSans-20" transform="translate(4124.365234 0)"/>
    <use xlink:href="#DejaVuSans-74" transform="translate(4156.152344 0)"/>
    <use xlink:href="#DejaVuSans-68" transform="translate(4195.361328 0)"/>
    <use xlink:href="#DejaVuSans-1ed1" transform="translate(4258.740234 0)"/>
    <use xlink:href="#DejaVuSans-6e" transform="translate(4319.921875 0)"/>
    <use xlink:href="#DejaVuSans-67" transform="translate(4383.300781 0)"/>
    <use xlink:href="#DejaVuSans-20" transform="translate(4446.777344 0)"/>
    <use xlink:href="#DejaVuSans-64" transform="translate(4478.564453 0)"/>
    <use xlink:href="#DejaVuSans-75" transform="translate(4542.041016 0)"/>
    <use xlink:href="#DejaVuSans-79" transform="translate(4605.419922 0)"/>
    <use xlink:href="#DejaVuSans-20" transform="translate(4664.599609 0)"/>
    <use xlink:href="#DejaVuSans-74" transform="translate(4696.386719 0)"/>
    <use xlink:href="#DejaVuSans-72" transform="translate(4735.595703 0)"/>
    <use xlink:href="#DejaVuSans-ec" transform="translate(4776.708984 0)"/>
    <use xlink:href="#DejaVuSans-20" transform="translate(4804.492188 0)"/>
    <use xlink:href="#DejaVuSans-74" transform="translate(4836.279297 0)"/>
    <use xlink:href="#DejaVuSans-1ed1" transform="translate(4875.488281 0)"/>
    <use xlink:href="#DejaVuSans-63" transform="translate(4936.669922 0)"/>
    <use xlink:href="#DejaVuSans-20" transform="translate(4991.650391 0)"/>
    <use xlink:href="#DejaVuSans-111" transform="translate(5023.4375 0)"/>
    <use xlink:href="#DejaVuSans-1ed9" transform="translate(5086.914062 0)"/>
    <use xlink:href="#DejaVuSans-20" transform="translate(5148.095703 0)"/>
    <use xlink:href="#DejaVuSans-76" transform="translate(5179.882812 0)"/>
    <use xlink:href="#DejaVuSans-e0" transform="translate(5239.0625 0)"/>
    <use xlink:href="#DejaVuSans-20" transform="translate(5300.341797 0)"/>
    <use xlink:href="#DejaVuSans-111" transform="translate(5332.128906 0)"/>
    <use xlink:href="#DejaVuSans-1ed9" transform="translate(5395.605469 0)"/>
    <use xlink:href="#DejaVuSans-20" transform="translate(5456.787109 0)"/>
    <use xlink:href="#DejaVuSans-1ed5" transform="translate(5488.574219 0)"/>
    <use xlink:href="#DejaVuSans-6e" transform="translate(5549.755859 0)"/>
    <use xlink:href="#DejaVuSans-20" transform="translate(5613.134766 0)"/>
    <use xlink:href="#DejaVuSans-111" transform="translate(5644.921875 0)"/>
    <use xlink:href="#DejaVuSans-1ecb" transform="translate(5708.398438 0)"/>
    <use xlink:href="#DejaVuSans-6e" transform="translate(5736.181641 0)"/>
    <use xlink:href="#DejaVuSans-68" transform="translate(5799.560547 0)"/>
    <use xlink:href="#DejaVuSans-20" transform="translate(5862.939453 0)"/>
    <use xlink:href="#DejaVuSans-6b" transform="translate(5894.726562 0)"/>
    <use xlink:href="#DejaVuSans-68" transform="translate(5952.636719 0)"/>
    <use xlink:href="#DejaVuSans-69" transform="translate(6016.015625 0)"/>
    <use xlink:href="#DejaVuSans-20" transform="translate(6043.798828 0)"/>
    <use xlink:href="#DejaVuSans-64" transform="translate(6075.585938 0)"/>
    <use xlink:href="#DejaVuSans-1eef" transform="translate(6139.0625 0)"/>
    <use xlink:href="#DejaVuSans-20" transform="translate(6202.441406 0)"/>
    <use xlink:href="#DejaVuSans-6c" transform="translate(6234.228516 0)"/>
    <use xlink:href="#DejaVuSans-69" transform="translate(6262.011719 0)"/>
    <use xlink:href="#DejaVuSans-1ec7" transform="translate(6289.794922 0)"/>
    <use xlink:href="#DejaVuSans-75" transform="translate(6351.318359 0)"/>
    <use xlink:href="#DejaVuSans-20" transform="translate(6414.697266 0)"/>
    <use xlink:href="#DejaVuSans-74" transform="translate(6446.484375 0)"/>
    <use xlink:href="#DejaVuSans-103" transform="translate(6485.693359 0)"/>
    <use xlink:href="#DejaVuSans-6e" transform="translate(6546.972656 0)"/>
    <use xlink:href="#DejaVuSans-67" transform="translate(6610.351562 0)"/>
    <use xlink:href="#DejaVuSans-2e" transform="translate(6673.828125 0)"/>
   </g>
  </g>
 </g>
 <defs>
  <clipPath id="pe28ee78c95">
   <rect x="49.12625" y="27.96" width="588.07375" height="272.08"/>
  </clipPath>
 </defs>
</svg>
